<svg width="956" height="1080" viewBox="0 0 956 1080" fill="none" xmlns="http://www.w3.org/2000/svg">
<rect width="956" height="1080" fill="black"/>
<path d="M851.953 767.618C849.734 767.618 847.517 767.045 845.538 765.903L823.912 753.427C822.657 752.704 821.907 751.408 821.907 749.96C821.907 748.515 822.657 747.219 823.912 746.495L845.538 734.019C849.493 731.738 854.411 731.736 858.367 734.019L879.995 746.495C881.25 747.219 882 748.515 882 749.96C882 751.408 881.25 752.704 879.995 753.427L858.369 765.903C856.39 767.045 854.171 767.618 851.953 767.618ZM851.953 735.733C850.326 735.733 848.7 736.151 847.25 736.987L825.624 749.463C825.374 749.609 825.337 749.839 825.337 749.96C825.337 750.084 825.375 750.314 825.624 750.461L847.252 762.937H847.254C850.151 764.609 853.753 764.609 856.655 762.937L878.281 750.461C878.532 750.316 878.569 750.086 878.569 749.96C878.569 749.839 878.53 749.609 878.281 749.463L856.653 736.987C855.201 736.15 853.576 735.733 851.953 735.733Z" fill="url(#paint0_linear_1412_510)"/>
<path d="M790.097 696.821C786.492 696.821 782.89 695.895 779.676 694.039L742.457 672.567C740.685 671.545 739.627 669.717 739.627 667.673C739.627 665.629 740.685 663.799 742.457 662.779L779.674 641.309C786.098 637.599 794.088 637.597 800.517 641.309L837.738 662.779C839.509 663.801 840.567 665.629 840.567 667.671C840.567 669.715 839.511 671.545 837.74 672.569L800.519 694.039C797.305 695.893 793.699 696.821 790.097 696.821ZM781.39 691.073C786.763 694.17 793.432 694.17 798.805 691.073L836.024 669.603C837.029 669.023 837.136 668.06 837.136 667.673C837.136 667.286 837.027 666.327 836.024 665.745L798.804 644.275C793.43 641.178 786.762 641.178 781.388 644.275L744.171 665.745C743.167 666.325 743.056 667.286 743.056 667.673C743.056 668.06 743.167 669.021 744.171 669.601L781.39 691.073Z" fill="url(#paint1_linear_1412_510)"/>
<path d="M124.472 730.611C120.867 730.611 117.265 729.685 114.051 727.829L76.8286 706.359C75.0559 705.335 74 703.505 74 701.461C74 699.419 75.0577 697.589 76.8286 696.569L114.047 675.099C120.473 671.387 128.463 671.387 134.89 675.099L172.109 696.571C173.882 697.593 174.94 699.421 174.94 701.465C174.94 703.509 173.882 705.339 172.109 706.359L134.892 727.829C131.68 729.683 128.074 730.611 124.472 730.611ZM124.47 675.743C121.459 675.743 118.448 676.518 115.761 678.067L78.5423 699.537C77.538 700.117 77.4293 701.078 77.4293 701.465C77.4293 701.851 77.538 702.813 78.5441 703.394L115.763 724.865C121.136 727.962 127.805 727.962 133.178 724.865L170.396 703.394C171.402 702.814 171.509 701.853 171.509 701.467C171.509 701.08 171.4 700.121 170.396 699.539L133.177 678.067C130.49 676.517 127.479 675.743 124.47 675.743Z" fill="url(#paint2_linear_1412_510)"/>
<path opacity="0.6" d="M501.387 810.941L235.246 657.408C231.367 655.171 231.853 651.262 236.333 648.677L407.146 550.137C411.625 547.554 418.401 547.272 422.28 549.511L688.422 703.046C692.301 705.285 691.814 709.194 687.335 711.777L516.521 810.315C512.044 812.9 505.266 813.179 501.387 810.941Z" fill="#D8D8D8"/>
<path d="M503.733 826C500.879 826 498.144 825.407 496.054 824.202H496.055L217.528 663.49C215.252 662.18 214 660.287 214 658.162C214 655.722 215.7 653.341 218.664 651.631L408.525 540.46C413.733 537.455 421.382 537.166 425.946 539.798L704.472 700.511C706.748 701.822 708 703.717 708 705.839C708 708.279 706.3 710.659 703.335 712.369L513.475 823.54C510.651 825.169 507.111 826 503.733 826ZM418.304 541.154C415.451 541.154 412.42 541.842 410.107 543.174L220.247 654.344C218.302 655.467 217.146 656.893 217.146 658.159C217.146 659.383 218.209 660.253 219.1 660.768L497.627 821.479H497.629C501.184 823.534 507.719 823.234 511.891 820.823L701.753 709.652C703.698 708.529 704.854 707.106 704.854 705.838C704.854 704.615 703.791 703.745 702.9 703.23L424.375 542.517C422.787 541.604 420.603 541.154 418.304 541.154Z" fill="url(#paint3_linear_1412_510)"/>
<path d="M759.125 458.987L494.031 306.058C492.209 305.007 490.307 304.79 488.621 305.281L488.619 305.283C488.612 305.285 488.603 305.289 488.595 305.29L483.686 306.999L485.415 307.408C484.722 308.227 484.164 309.243 483.797 310.437L423.846 504.925C422.361 509.747 424.537 515.608 428.706 518.012L693.801 670.941C694.446 671.313 695.1 671.569 695.75 671.737L695.094 673.165L699.784 671.519L699.773 671.516C701.693 670.752 703.276 669.037 704.039 666.561L763.989 472.072C765.469 467.25 763.293 461.392 759.125 458.987Z" fill="url(#paint4_radial_1412_510)"/>
<path d="M684.309 678.203L684.403 678.315L422.558 527.263C418.707 525.04 411.977 525.32 407.531 527.885L238.354 625.48L232.714 623.328L234.298 631.236L234.306 631.232C234.516 632.421 235.349 633.535 236.845 634.399L501.111 786.849C504.962 789.071 511.692 788.791 516.138 786.227L685.746 688.383C687.839 687.175 689.043 685.678 689.341 684.198L689.35 684.209L690.968 676.513L684.309 678.203Z" fill="url(#paint5_radial_1412_510)"/>
<path d="M501.387 779.889L235.246 626.356C231.367 624.119 231.853 620.21 236.333 617.625L407.146 519.088C411.625 516.504 418.401 516.223 422.28 518.462L688.422 671.994C692.301 674.231 691.814 678.142 687.335 680.725L516.521 779.263C512.044 781.846 505.266 782.128 501.387 779.889Z" fill="url(#paint6_radial_1412_510)"/>
<path d="M687.335 678.654L516.522 777.192C512.042 779.777 505.266 780.057 501.387 777.82L235.246 624.287C233.924 623.525 233.149 622.562 232.826 621.529C232.312 623.311 233.064 625.099 235.246 626.356L501.389 779.889C505.268 782.126 512.044 781.846 516.523 779.263L687.337 680.725C690.29 679.022 691.468 676.748 690.843 674.753C690.441 676.139 689.295 677.524 687.335 678.654Z" fill="white"/>
<g opacity="0.4">
<path d="M362.191 601.441L353.206 596.258C352.484 595.842 352.576 595.115 353.409 594.634L364.014 588.516C364.847 588.035 366.107 587.984 366.829 588.4L375.814 593.583C376.537 593.999 376.445 594.726 375.612 595.207L365.005 601.325C364.174 601.806 362.914 601.857 362.191 601.441Z" fill="#06033E"/>
<path d="M376.067 609.447L367.082 604.264C366.36 603.848 366.452 603.12 367.285 602.64L377.891 596.521C378.724 596.041 379.985 595.989 380.705 596.405L389.69 601.588C390.413 602.005 390.32 602.732 389.488 603.212L378.883 609.331C378.05 609.809 376.789 609.863 376.067 609.447Z" fill="#06033E"/>
<path d="M389.945 617.45L380.959 612.267C380.239 611.851 380.329 611.124 381.162 610.644L391.769 604.525C392.602 604.045 393.862 603.993 394.583 604.409L403.568 609.592C404.288 610.008 404.198 610.736 403.365 611.216L392.758 617.334C391.925 617.815 390.665 617.867 389.945 617.45Z" fill="#06033E"/>
<path d="M409.136 610.841L400.151 605.658C399.429 605.241 399.521 604.514 400.354 604.034L409.256 598.898C410.089 598.418 411.349 598.366 412.07 598.782L421.055 603.965C421.775 604.382 421.685 605.109 420.852 605.589L411.95 610.725C411.117 611.205 409.857 611.257 409.136 610.841Z" fill="#06033E"/>
<path d="M423.012 618.846L414.027 613.663C413.304 613.247 413.396 612.52 414.229 612.039L423.133 606.904C423.966 606.424 425.227 606.372 425.947 606.788L434.932 611.971C435.654 612.387 435.562 613.114 434.729 613.595L425.826 618.73C424.993 619.209 423.732 619.262 423.012 618.846Z" fill="#06033E"/>
<path d="M436.887 626.85L427.902 621.667C427.18 621.251 427.272 620.523 428.105 620.043L437.009 614.908C437.842 614.427 439.102 614.376 439.823 614.792L448.808 619.975C449.53 620.391 449.438 621.118 448.605 621.599L439.701 626.734C438.87 627.214 437.61 627.266 436.887 626.85Z" fill="#06033E"/>
<path d="M450.763 634.855L441.778 629.672C441.056 629.256 441.148 628.529 441.981 628.048L450.883 622.913C451.716 622.433 452.976 622.381 453.697 622.797L462.681 627.98C463.404 628.396 463.312 629.124 462.479 629.604L453.577 634.739C452.746 635.218 451.485 635.272 450.763 634.855Z" fill="#06033E"/>
<path d="M464.64 642.859L455.655 637.676C454.933 637.26 455.025 636.533 455.858 636.052L464.762 630.917C465.595 630.437 466.855 630.385 467.576 630.801L476.561 635.984C477.281 636.4 477.191 637.127 476.358 637.608L467.456 642.743C466.621 643.224 465.361 643.275 464.64 642.859Z" fill="#06033E"/>
<path d="M478.516 650.865L469.531 645.682C468.808 645.266 468.901 644.538 469.733 644.058L478.636 638.923C479.469 638.442 480.729 638.391 481.449 638.807L490.434 643.99C491.155 644.406 491.065 645.133 490.232 645.614L481.33 650.749C480.497 651.229 479.236 651.281 478.516 650.865Z" fill="#06033E"/>
<path d="M492.391 658.87L483.406 653.687C482.684 653.271 482.776 652.544 483.609 652.063L492.511 646.928C493.344 646.448 494.604 646.396 495.325 646.812L504.31 651.995C505.03 652.411 504.94 653.139 504.107 653.619L495.203 658.754C494.374 659.233 493.114 659.286 492.391 658.87Z" fill="#06033E"/>
<path d="M506.267 666.874L497.282 661.691C496.561 661.275 496.652 660.548 497.485 660.067L506.389 654.932C507.222 654.451 508.482 654.4 509.202 654.816L518.187 659.999C518.91 660.415 518.818 661.142 517.985 661.623L509.081 666.758C508.25 667.239 506.989 667.29 506.267 666.874Z" fill="#06033E"/>
<path d="M520.144 674.88L511.159 669.697C510.439 669.28 510.529 668.553 511.362 668.073L520.266 662.938C521.099 662.457 522.359 662.405 523.08 662.822L532.065 668.005C532.787 668.421 532.695 669.148 531.862 669.628L522.96 674.764C522.125 675.244 520.865 675.296 520.144 674.88Z" fill="#06033E"/>
<path d="M534.02 682.883L525.035 677.7C524.313 677.284 524.405 676.557 525.238 676.076L534.14 670.941C534.973 670.461 536.233 670.409 536.954 670.825L545.939 676.008C546.659 676.424 546.569 677.152 545.736 677.632L536.832 682.769C536.001 683.248 534.74 683.299 534.02 682.883Z" fill="#06033E"/>
<path d="M429.581 607.051L420.596 601.868C419.874 601.452 419.966 600.725 420.799 600.244L429.701 595.109C430.534 594.629 431.794 594.577 432.516 594.993L441.501 600.176C442.222 600.592 442.132 601.32 441.299 601.8L432.397 606.935C431.562 607.414 430.302 607.468 429.581 607.051Z" fill="#06033E"/>
<path d="M415.497 598.926L406.512 593.743C405.792 593.327 405.882 592.6 406.715 592.119L415.617 586.982C416.45 586.502 417.71 586.45 418.433 586.866L427.418 592.049C428.14 592.465 428.048 593.193 427.215 593.673L418.313 598.808C417.48 599.291 416.22 599.342 415.497 598.926Z" fill="#06033E"/>
<path d="M401.391 590.788L382.039 579.625C381.319 579.209 381.409 578.481 382.242 578.001L391.144 572.866C391.977 572.385 393.237 572.334 393.958 572.75L413.31 583.913C414.032 584.329 413.94 585.056 413.107 585.537L404.205 590.672C403.374 591.153 402.114 591.204 401.391 590.788Z" fill="#06033E"/>
<path d="M411.252 580.892L395.546 571.831C394.824 571.415 394.916 570.688 395.749 570.207L404.651 565.07C405.484 564.589 406.745 564.538 407.465 564.954L423.17 574.015C423.891 574.431 423.801 575.158 422.968 575.639L414.066 580.774C413.233 581.256 411.972 581.309 411.252 580.892Z" fill="#06033E"/>
<path d="M443.457 615.055L434.471 609.872C433.749 609.456 433.841 608.729 434.674 608.248L443.576 603.111C444.409 602.631 445.67 602.579 446.39 602.995L455.375 608.178C456.096 608.594 456.005 609.322 455.172 609.802L446.27 614.937C445.439 615.42 444.179 615.471 443.457 615.055Z" fill="#06033E"/>
<path d="M457.332 623.061L448.347 617.878C447.627 617.462 447.717 616.734 448.55 616.254L457.452 611.117C458.285 610.636 459.545 610.585 460.266 611.001L469.251 616.184C469.973 616.6 469.881 617.327 469.048 617.808L460.144 622.943C459.315 623.425 458.055 623.477 457.332 623.061Z" fill="#06033E"/>
<path d="M471.209 631.064L462.224 625.881C461.502 625.465 461.594 624.738 462.427 624.257L471.331 619.122C472.164 618.642 473.424 618.59 474.145 619.006L483.13 624.189C483.852 624.605 483.76 625.333 482.927 625.813L474.023 630.948C473.19 631.429 471.93 631.481 471.209 631.064Z" fill="#06033E"/>
<path d="M485.085 639.07L476.1 633.887C475.378 633.471 475.47 632.744 476.303 632.263L485.207 627.128C486.04 626.647 487.3 626.596 488.021 627.012L497.006 632.195C497.726 632.611 497.636 633.338 496.803 633.819L487.901 638.954C487.066 639.435 485.806 639.486 485.085 639.07Z" fill="#06033E"/>
<path d="M498.961 647.076L489.976 641.893C489.255 641.476 489.345 640.749 490.178 640.269L499.08 635.133C499.913 634.653 501.174 634.601 501.894 635.017L510.879 640.2C511.6 640.617 511.509 641.344 510.677 641.824L501.773 646.96C500.943 647.438 499.683 647.492 498.961 647.076Z" fill="#06033E"/>
<path d="M512.836 655.079L503.851 649.896C503.129 649.48 503.221 648.753 504.054 648.272L512.958 643.137C513.791 642.657 515.051 642.605 515.772 643.021L524.757 648.204C525.479 648.62 525.387 649.348 524.554 649.828L515.65 654.963C514.819 655.444 513.559 655.495 512.836 655.079Z" fill="#06033E"/>
<path d="M526.714 663.085L517.729 657.902C517.006 657.486 517.098 656.758 517.931 656.278L526.835 651.143C527.668 650.662 528.929 650.611 529.649 651.027L538.634 656.21C539.356 656.626 539.264 657.353 538.431 657.834L529.529 662.969C528.694 663.448 527.434 663.501 526.714 663.085Z" fill="#06033E"/>
<path d="M540.589 671.089L531.604 665.906C530.882 665.489 530.974 664.762 531.807 664.282L540.711 659.146C541.544 658.666 542.804 658.614 543.525 659.03L552.51 664.213C553.232 664.63 553.14 665.357 552.307 665.837L543.405 670.973C542.572 671.453 541.312 671.506 540.589 671.089Z" fill="#06033E"/>
<path d="M554.465 679.094L545.48 673.911C544.759 673.495 544.85 672.768 545.682 672.287L554.585 667.152C555.417 666.671 556.678 666.62 557.4 667.036L566.385 672.219C567.106 672.635 567.015 673.362 566.183 673.843L557.28 678.978C556.448 679.459 555.187 679.51 554.465 679.094Z" fill="#06033E"/>
<path d="M579.133 693.325L559.529 682.014C558.808 681.598 558.898 680.871 559.731 680.39L568.635 675.253C569.468 674.773 570.729 674.721 571.449 675.137L591.054 686.448C591.776 686.864 591.684 687.591 590.851 688.072L581.949 693.207C581.116 693.689 579.855 693.741 579.133 693.325Z" fill="#06033E"/>
<path d="M606.149 677.741L589.601 668.194C588.879 667.778 588.971 667.051 589.804 666.57L598.708 661.435C599.541 660.955 600.801 660.903 601.522 661.319L618.069 670.866C618.79 671.282 618.699 672.009 617.867 672.49L608.963 677.625C608.13 678.105 606.869 678.157 606.149 677.741Z" fill="#06033E"/>
<path d="M467.756 613.49L458.771 608.307C458.049 607.891 458.141 607.164 458.974 606.683L467.876 601.548C468.709 601.068 469.969 601.016 470.692 601.432L479.677 606.615C480.399 607.031 480.307 607.758 479.474 608.239L470.572 613.374C469.739 613.853 468.479 613.906 467.756 613.49Z" fill="#06033E"/>
<path d="M453.536 605.286L444.551 600.103C443.829 599.687 443.921 598.959 444.754 598.479L453.658 593.344C454.491 592.863 455.751 592.811 456.472 593.228L465.457 598.411C466.179 598.827 466.087 599.554 465.254 600.035L456.35 605.17C455.517 605.648 454.257 605.702 453.536 605.286Z" fill="#06033E"/>
<path d="M439.314 597.081L430.329 591.898C429.607 591.482 429.699 590.755 430.532 590.274L439.436 585.139C440.269 584.659 441.529 584.607 442.25 585.023L451.235 590.206C451.957 590.622 451.865 591.35 451.032 591.83L442.13 596.965C441.295 597.446 440.036 597.497 439.314 597.081Z" fill="#06033E"/>
<path d="M425.094 588.877L416.109 583.694C415.388 583.278 415.479 582.55 416.312 582.07L425.214 576.935C426.047 576.454 427.307 576.403 428.028 576.819L437.013 582.002C437.733 582.418 437.643 583.145 436.81 583.626L427.906 588.761C427.075 589.241 425.814 589.293 425.094 588.877Z" fill="#06033E"/>
<path d="M481.634 621.494L472.649 616.311C471.926 615.895 472.019 615.167 472.851 614.687L481.755 609.55C482.588 609.069 483.849 609.018 484.569 609.434L493.554 614.617C494.277 615.033 494.184 615.76 493.352 616.241L484.448 621.378C483.615 621.858 482.354 621.91 481.634 621.494Z" fill="#06033E"/>
<path d="M495.509 629.499L486.524 624.316C485.802 623.9 485.894 623.173 486.727 622.692L495.629 617.557C496.462 617.077 497.722 617.025 498.443 617.441L507.428 622.624C508.15 623.04 508.058 623.768 507.225 624.248L498.321 629.385C497.49 629.864 496.23 629.915 495.509 629.499Z" fill="#06033E"/>
<path d="M509.385 637.503L500.4 632.32C499.678 631.904 499.77 631.177 500.603 630.696L509.505 625.559C510.338 625.079 511.598 625.027 512.32 625.443L521.305 630.626C522.026 631.042 521.936 631.77 521.103 632.25L512.201 637.385C511.366 637.868 510.107 637.919 509.385 637.503Z" fill="#06033E"/>
<path d="M523.26 645.509L514.275 640.326C513.553 639.91 513.645 639.182 514.478 638.702L523.38 633.565C524.213 633.084 525.474 633.033 526.194 633.449L535.179 638.632C535.901 639.048 535.809 639.775 534.976 640.256L526.074 645.393C525.243 645.873 523.983 645.925 523.26 645.509Z" fill="#06033E"/>
<path d="M537.138 653.514L528.153 648.331C527.43 647.915 527.522 647.188 528.355 646.707L537.257 641.572C538.09 641.092 539.351 641.04 540.071 641.456L549.056 646.639C549.779 647.055 549.686 647.783 548.854 648.263L539.95 653.4C539.119 653.877 537.858 653.93 537.138 653.514Z" fill="#06033E"/>
<path d="M551.013 661.518L542.028 656.335C541.306 655.919 541.398 655.192 542.231 654.711L551.135 649.574C551.968 649.094 553.228 649.042 553.949 649.458L562.934 654.641C563.656 655.057 563.564 655.784 562.731 656.265L553.827 661.4C552.994 661.883 551.734 661.934 551.013 661.518Z" fill="#06033E"/>
<path d="M564.889 669.524L555.904 664.341C555.183 663.924 555.274 663.197 556.107 662.717L565.01 657.582C565.843 657.101 567.104 657.049 567.824 657.465L576.809 662.648C577.53 663.065 577.44 663.792 576.607 664.272L567.705 669.408C566.872 669.888 565.611 669.94 564.889 669.524Z" fill="#06033E"/>
<path d="M578.766 677.527L569.781 672.344C569.061 671.928 569.151 671.201 569.984 670.72L578.888 665.585C579.721 665.105 580.981 665.053 581.702 665.469L590.687 670.652C591.407 671.068 591.317 671.796 590.484 672.276L581.58 677.411C580.747 677.892 579.487 677.943 578.766 677.527Z" fill="#06033E"/>
<path d="M592.642 685.533L583.657 680.35C582.935 679.934 583.027 679.206 583.86 678.726L592.762 673.591C593.595 673.11 594.855 673.059 595.576 673.475L604.561 678.658C605.283 679.074 605.193 679.801 604.358 680.282L595.454 685.419C594.623 685.897 593.363 685.949 592.642 685.533Z" fill="#06033E"/>
<path d="M460.45 593.69L451.465 588.507C450.743 588.091 450.835 587.363 451.668 586.883L460.57 581.748C461.403 581.267 462.663 581.216 463.385 581.632L472.37 586.815C473.093 587.231 473.001 587.958 472.168 588.439L463.266 593.574C462.431 594.054 461.172 594.106 460.45 593.69Z" fill="#06033E"/>
<path d="M446.643 585.725L437.658 580.542C436.937 580.126 437.028 579.398 437.86 578.918L446.763 573.781C447.595 573.3 448.856 573.249 449.578 573.665L458.563 578.848C459.286 579.264 459.193 579.991 458.361 580.472L449.458 585.607C448.626 586.089 447.365 586.141 446.643 585.725Z" fill="#06033E"/>
<path d="M432.837 577.76L423.852 572.577C423.132 572.16 423.222 571.433 424.055 570.953L432.957 565.816C433.79 565.335 435.05 565.284 435.771 565.7L444.756 570.883C445.476 571.299 445.386 572.026 444.553 572.507L435.651 577.644C434.818 578.124 433.558 578.176 432.837 577.76Z" fill="#06033E"/>
<path d="M419.03 569.795L410.045 564.612C409.324 564.195 409.415 563.468 410.247 562.988L419.15 557.852C419.982 557.372 421.243 557.32 421.963 557.737L430.948 562.919C431.671 563.336 431.58 564.063 430.746 564.543L421.844 569.679C421.011 570.159 419.75 570.211 419.03 569.795Z" fill="#06033E"/>
<path d="M433.228 561.605L424.243 556.422C423.52 556.006 423.612 555.278 424.445 554.798L427.388 553.1C428.221 552.62 429.482 552.568 430.202 552.984L439.187 558.167C439.909 558.583 439.817 559.311 438.984 559.791L436.042 561.489C435.209 561.968 433.948 562.021 433.228 561.605Z" fill="#06033E"/>
<path d="M451.246 571.998L442.261 566.815C441.54 566.399 441.63 565.672 442.463 565.191L445.406 563.494C446.239 563.013 447.499 562.962 448.22 563.378L457.205 568.561C457.927 568.977 457.835 569.704 457.002 570.185L454.059 571.882C453.226 572.363 451.966 572.414 451.246 571.998Z" fill="#06033E"/>
<path d="M464.994 579.93L456.009 574.747C455.287 574.331 455.379 573.604 456.212 573.123L459.155 571.426C459.987 570.945 461.248 570.894 461.97 571.31L470.955 576.493C471.676 576.909 471.585 577.636 470.753 578.117L467.81 579.814C466.977 580.295 465.716 580.346 464.994 579.93Z" fill="#06033E"/>
<path d="M478.744 587.862L469.759 582.679C469.039 582.263 469.129 581.536 469.962 581.055L472.905 579.358C473.738 578.877 474.998 578.826 475.719 579.242L484.704 584.425C485.426 584.841 485.334 585.568 484.501 586.049L481.558 587.746C480.725 588.227 479.465 588.279 478.744 587.862Z" fill="#06033E"/>
<path d="M492.493 595.794L483.508 590.611C482.787 590.195 482.878 589.468 483.711 588.987L486.653 587.29C487.486 586.809 488.747 586.758 489.467 587.174L498.452 592.357C499.175 592.773 499.082 593.5 498.249 593.981L495.307 595.678C494.476 596.159 493.215 596.21 492.493 595.794Z" fill="#06033E"/>
<path d="M569.254 640.077L560.269 634.894C559.549 634.478 559.639 633.751 560.472 633.27L563.415 631.573C564.248 631.092 565.508 631.04 566.229 631.457L575.214 636.64C575.936 637.056 575.844 637.783 575.011 638.263L572.068 639.961C571.237 640.44 569.977 640.493 569.254 640.077Z" fill="#06033E"/>
<path d="M583.005 648.007L574.02 642.824C573.297 642.408 573.389 641.681 574.222 641.2L577.165 639.503C577.998 639.022 579.258 638.971 579.981 639.387L588.966 644.57C589.688 644.986 589.596 645.713 588.763 646.194L585.82 647.891C584.985 648.372 583.725 648.425 583.005 648.007Z" fill="#06033E"/>
<path d="M596.755 655.939L587.77 650.756C587.047 650.34 587.14 649.613 587.973 649.132L590.915 647.435C591.748 646.954 593.009 646.902 593.729 647.319L602.714 652.502C603.435 652.918 603.344 653.645 602.511 654.126L599.569 655.823C598.736 656.304 597.475 656.357 596.755 655.939Z" fill="#06033E"/>
<path d="M610.503 663.871L601.518 658.688C600.796 658.272 600.888 657.545 601.721 657.064L604.664 655.366C605.497 654.886 606.757 654.834 607.478 655.25L616.463 660.433C617.185 660.85 617.093 661.577 616.26 662.057L613.317 663.755C612.484 664.236 611.226 664.287 610.503 663.871Z" fill="#06033E"/>
<path d="M474.325 601.695L465.34 596.512C464.62 596.096 464.71 595.369 465.543 594.888L474.445 589.753C475.278 589.273 476.538 589.221 477.259 589.637L486.244 594.82C486.964 595.236 486.874 595.964 486.041 596.444L477.139 601.579C476.308 602.058 475.048 602.111 474.325 601.695Z" fill="#06033E"/>
<path d="M488.203 609.699L479.218 604.516C478.496 604.1 478.588 603.373 479.421 602.892L488.323 597.757C489.156 597.276 490.416 597.225 491.137 597.641L500.122 602.824C500.844 603.24 500.752 603.967 499.919 604.448L491.017 609.583C490.184 610.064 488.924 610.115 488.203 609.699Z" fill="#06033E"/>
<path d="M502.078 617.705L493.093 612.522C492.371 612.105 492.463 611.378 493.296 610.898L502.198 605.763C503.031 605.282 504.291 605.23 505.012 605.647L513.997 610.83C514.719 611.246 514.627 611.973 513.794 612.453L504.89 617.59C504.059 618.069 502.801 618.121 502.078 617.705Z" fill="#06033E"/>
<path d="M515.954 625.71L506.969 620.527C506.247 620.111 506.339 619.384 507.172 618.903L516.076 613.768C516.909 613.288 518.169 613.236 518.89 613.652L527.875 618.835C528.597 619.251 528.505 619.978 527.672 620.459L518.77 625.594C517.937 626.073 516.676 626.126 515.954 625.71Z" fill="#06033E"/>
<path d="M529.831 633.714L520.846 628.531C520.126 628.115 520.216 627.388 521.049 626.907L529.953 621.772C530.786 621.291 532.046 621.24 532.767 621.656L541.752 626.839C542.472 627.255 542.382 627.982 541.549 628.463L532.647 633.6C531.812 634.078 530.552 634.13 529.831 633.714Z" fill="#06033E"/>
<path d="M543.707 641.719L534.722 636.536C534 636.12 534.092 635.393 534.925 634.912L543.829 629.777C544.662 629.297 545.922 629.245 546.642 629.661L555.627 634.844C556.348 635.26 556.258 635.988 555.425 636.468L546.521 641.605C545.688 642.082 544.427 642.136 543.707 641.719Z" fill="#06033E"/>
<path d="M557.583 649.723L548.598 644.54C547.875 644.124 547.968 643.397 548.8 642.916L557.704 637.781C558.537 637.301 559.798 637.249 560.518 637.665L569.503 642.848C570.226 643.264 570.133 643.991 569.3 644.472L560.397 649.607C559.564 650.088 558.305 650.139 557.583 649.723Z" fill="#06033E"/>
<path d="M571.458 657.729L562.473 652.546C561.751 652.13 561.843 651.402 562.676 650.922L571.578 645.787C572.411 645.306 573.671 645.255 574.392 645.671L583.377 650.854C584.099 651.27 584.007 651.997 583.174 652.478L574.272 657.615C573.441 658.093 572.18 658.145 571.458 657.729Z" fill="#06033E"/>
<path d="M585.336 665.732L576.351 660.549C575.63 660.133 575.72 659.406 576.553 658.925L585.457 653.79C586.29 653.31 587.551 653.258 588.271 653.674L597.256 658.857C597.978 659.273 597.886 660.001 597.053 660.481L588.151 665.616C587.317 666.097 586.056 666.15 585.336 665.732Z" fill="#06033E"/>
<path d="M394.995 602.682L368.532 587.417C367.812 587.001 367.902 586.273 368.735 585.793L377.637 580.658C378.47 580.177 379.73 580.126 380.453 580.542L406.916 595.807C407.636 596.223 407.546 596.951 406.713 597.431L397.809 602.566C396.976 603.047 395.716 603.1 394.995 602.682Z" fill="#06033E"/>
<path d="M565.466 701.025L539.002 685.759C538.282 685.343 538.372 684.616 539.205 684.135L548.109 679C548.942 678.52 550.202 678.468 550.923 678.884L577.386 694.15C578.108 694.566 578.016 695.293 577.183 695.774L568.279 700.909C567.446 701.387 566.186 701.441 565.466 701.025Z" fill="#06033E"/>
<path d="M509.973 686.693L500.988 681.51C500.265 681.094 500.357 680.366 501.19 679.886L511.797 673.768C512.63 673.287 513.89 673.235 514.611 673.652L523.596 678.835C524.316 679.251 524.226 679.978 523.393 680.458L512.786 686.577C511.955 687.057 510.695 687.111 509.973 686.693Z" fill="#06033E"/>
<path d="M409.204 628.562L394.835 620.273C394.114 619.857 394.205 619.13 395.038 618.649L405.644 612.531C406.477 612.05 407.738 611.999 408.458 612.415L422.827 620.704C423.55 621.12 423.458 621.847 422.625 622.328L412.018 628.446C411.187 628.927 409.927 628.978 409.204 628.562Z" fill="#06033E"/>
<path d="M496.604 678.982L482.234 670.693C481.512 670.277 481.604 669.549 482.437 669.069L493.044 662.95C493.877 662.47 495.137 662.418 495.857 662.834L510.227 671.123C510.947 671.54 510.857 672.267 510.024 672.747L499.419 678.866C498.585 679.345 497.324 679.398 496.604 678.982Z" fill="#06033E"/>
<path d="M429.225 640.112L414.856 631.823C414.135 631.407 414.226 630.68 415.059 630.199L425.665 624.081C426.498 623.6 427.759 623.549 428.479 623.965L442.848 632.254C443.571 632.67 443.479 633.397 442.646 633.878L432.039 639.996C431.206 640.475 429.946 640.528 429.225 640.112Z" fill="#06033E"/>
<path d="M428.575 624.02L491.052 660.062C491.827 660.509 491.827 661.234 491.052 661.682L480.237 667.92C479.461 668.367 478.204 668.367 477.429 667.92L414.952 631.878L428.575 624.02Z" fill="#06033E"/>
<path d="M548.754 701.207L558.764 706.981C559.355 707.322 559.282 707.918 558.598 708.312L554.258 710.814C553.577 711.208 552.543 711.251 551.951 710.91L541.944 705.136C541.352 704.796 541.426 704.199 542.11 703.805L546.447 701.303C547.131 700.909 548.163 700.866 548.754 701.207Z" fill="#06033E"/>
<path d="M534.762 693.135L544.772 698.909C545.364 699.25 545.29 699.846 544.606 700.24L540.268 702.743C539.585 703.137 538.553 703.179 537.961 702.838L527.954 697.064C527.362 696.724 527.436 696.127 528.12 695.733L532.457 693.231C533.139 692.839 534.171 692.795 534.762 693.135Z" fill="#06033E"/>
<path d="M520.887 685.131L530.896 690.905C531.488 691.246 531.414 691.843 530.731 692.237L526.393 694.739C525.709 695.133 524.677 695.175 524.086 694.835L514.076 689.061C513.485 688.72 513.558 688.123 514.242 687.729L518.58 685.227C519.263 684.833 520.295 684.791 520.887 685.131Z" fill="#06033E"/>
<path d="M542.426 688.716L552.434 694.49C553.026 694.831 552.952 695.427 552.268 695.821L547.929 698.324C547.247 698.718 546.213 698.76 545.622 698.419L535.612 692.645C535.021 692.305 535.094 691.708 535.778 691.314L540.118 688.812C540.801 688.418 541.835 688.374 542.426 688.716Z" fill="#06033E"/>
</g>
<g opacity="0.4">
<path d="M362.191 601.441L353.206 596.258C352.484 595.842 352.576 595.115 353.409 594.634L364.014 588.516C364.847 588.035 366.107 587.984 366.829 588.4L375.814 593.583C376.537 593.999 376.445 594.726 375.612 595.207L365.005 601.325C364.174 601.806 362.914 601.857 362.191 601.441Z" fill="#06033E"/>
<path d="M376.067 609.447L367.082 604.264C366.36 603.848 366.452 603.12 367.285 602.64L377.891 596.521C378.724 596.041 379.985 595.989 380.705 596.405L389.69 601.588C390.413 602.005 390.32 602.732 389.488 603.212L378.883 609.331C378.05 609.809 376.789 609.863 376.067 609.447Z" fill="#06033E"/>
<path d="M389.945 617.45L380.959 612.267C380.239 611.851 380.329 611.124 381.162 610.644L391.769 604.525C392.602 604.045 393.862 603.993 394.583 604.409L403.568 609.592C404.288 610.008 404.198 610.736 403.365 611.216L392.758 617.334C391.925 617.815 390.665 617.867 389.945 617.45Z" fill="#06033E"/>
<path d="M409.136 610.841L400.151 605.658C399.429 605.241 399.521 604.514 400.354 604.034L409.256 598.898C410.089 598.418 411.349 598.366 412.07 598.782L421.055 603.965C421.775 604.382 421.685 605.109 420.852 605.589L411.95 610.725C411.117 611.205 409.857 611.257 409.136 610.841Z" fill="#06033E"/>
<path d="M423.012 618.846L414.027 613.663C413.304 613.247 413.396 612.52 414.229 612.039L423.133 606.904C423.966 606.424 425.227 606.372 425.947 606.788L434.932 611.971C435.654 612.387 435.562 613.114 434.729 613.595L425.826 618.73C424.993 619.209 423.732 619.262 423.012 618.846Z" fill="#06033E"/>
<path d="M436.887 626.85L427.902 621.667C427.18 621.251 427.272 620.523 428.105 620.043L437.009 614.908C437.842 614.427 439.102 614.376 439.823 614.792L448.808 619.975C449.53 620.391 449.438 621.118 448.605 621.599L439.701 626.734C438.87 627.214 437.61 627.266 436.887 626.85Z" fill="#06033E"/>
<path d="M450.763 634.855L441.778 629.672C441.056 629.256 441.148 628.529 441.981 628.048L450.883 622.913C451.716 622.433 452.976 622.381 453.697 622.797L462.681 627.98C463.404 628.396 463.312 629.124 462.479 629.604L453.577 634.739C452.746 635.218 451.485 635.272 450.763 634.855Z" fill="#06033E"/>
<path d="M464.64 642.859L455.655 637.676C454.933 637.26 455.025 636.533 455.858 636.052L464.762 630.917C465.595 630.437 466.855 630.385 467.576 630.801L476.561 635.984C477.281 636.4 477.191 637.127 476.358 637.608L467.456 642.743C466.621 643.224 465.361 643.275 464.64 642.859Z" fill="#06033E"/>
<path d="M478.516 650.865L469.531 645.682C468.808 645.266 468.901 644.538 469.733 644.058L478.636 638.923C479.469 638.442 480.729 638.391 481.449 638.807L490.434 643.99C491.155 644.406 491.065 645.133 490.232 645.614L481.33 650.749C480.497 651.229 479.236 651.281 478.516 650.865Z" fill="#06033E"/>
<path d="M492.391 658.87L483.406 653.687C482.684 653.271 482.776 652.544 483.609 652.063L492.511 646.928C493.344 646.448 494.604 646.396 495.325 646.812L504.31 651.995C505.03 652.411 504.94 653.139 504.107 653.619L495.203 658.754C494.374 659.233 493.114 659.286 492.391 658.87Z" fill="#06033E"/>
<path d="M506.267 666.874L497.282 661.691C496.561 661.275 496.652 660.548 497.485 660.067L506.389 654.932C507.222 654.451 508.482 654.4 509.202 654.816L518.187 659.999C518.91 660.415 518.818 661.142 517.985 661.623L509.081 666.758C508.25 667.239 506.989 667.29 506.267 666.874Z" fill="#06033E"/>
<path d="M520.144 674.88L511.159 669.697C510.439 669.28 510.529 668.553 511.362 668.073L520.266 662.938C521.099 662.457 522.359 662.405 523.08 662.822L532.065 668.005C532.787 668.421 532.695 669.148 531.862 669.628L522.96 674.764C522.125 675.244 520.865 675.296 520.144 674.88Z" fill="#06033E"/>
<path d="M534.02 682.883L525.035 677.7C524.313 677.284 524.405 676.557 525.238 676.076L534.14 670.941C534.973 670.461 536.233 670.409 536.954 670.825L545.939 676.008C546.659 676.424 546.569 677.152 545.736 677.632L536.832 682.769C536.001 683.248 534.74 683.299 534.02 682.883Z" fill="#06033E"/>
<path d="M429.581 607.051L420.596 601.868C419.874 601.452 419.966 600.725 420.799 600.244L429.701 595.109C430.534 594.629 431.794 594.577 432.516 594.993L441.501 600.176C442.222 600.592 442.132 601.32 441.299 601.8L432.397 606.935C431.562 607.414 430.302 607.468 429.581 607.051Z" fill="#06033E"/>
<path d="M415.497 598.926L406.512 593.743C405.792 593.327 405.882 592.6 406.715 592.119L415.617 586.982C416.45 586.502 417.71 586.45 418.433 586.866L427.418 592.049C428.14 592.465 428.048 593.193 427.215 593.673L418.313 598.808C417.48 599.291 416.22 599.342 415.497 598.926Z" fill="#06033E"/>
<path d="M401.391 590.788L382.039 579.625C381.319 579.209 381.409 578.481 382.242 578.001L391.144 572.866C391.977 572.385 393.237 572.334 393.958 572.75L413.31 583.913C414.032 584.329 413.94 585.056 413.107 585.537L404.205 590.672C403.374 591.153 402.114 591.204 401.391 590.788Z" fill="#06033E"/>
<path d="M411.252 580.892L395.546 571.831C394.824 571.415 394.916 570.688 395.749 570.207L404.651 565.07C405.484 564.589 406.745 564.538 407.465 564.954L423.17 574.015C423.891 574.431 423.801 575.158 422.968 575.639L414.066 580.774C413.233 581.256 411.972 581.309 411.252 580.892Z" fill="#06033E"/>
<path d="M443.457 615.055L434.471 609.872C433.749 609.456 433.841 608.729 434.674 608.248L443.576 603.111C444.409 602.631 445.67 602.579 446.39 602.995L455.375 608.178C456.096 608.594 456.005 609.322 455.172 609.802L446.27 614.937C445.439 615.42 444.179 615.471 443.457 615.055Z" fill="#06033E"/>
<path d="M457.332 623.061L448.347 617.878C447.627 617.462 447.717 616.734 448.55 616.254L457.452 611.117C458.285 610.636 459.545 610.585 460.266 611.001L469.251 616.184C469.973 616.6 469.881 617.327 469.048 617.808L460.144 622.943C459.315 623.425 458.055 623.477 457.332 623.061Z" fill="#06033E"/>
<path d="M471.209 631.064L462.224 625.881C461.502 625.465 461.594 624.738 462.427 624.257L471.331 619.122C472.164 618.642 473.424 618.59 474.145 619.006L483.13 624.189C483.852 624.605 483.76 625.333 482.927 625.813L474.023 630.948C473.19 631.429 471.93 631.481 471.209 631.064Z" fill="#06033E"/>
<path d="M485.085 639.07L476.1 633.887C475.378 633.471 475.47 632.744 476.303 632.263L485.207 627.128C486.04 626.647 487.3 626.596 488.021 627.012L497.006 632.195C497.726 632.611 497.636 633.338 496.803 633.819L487.901 638.954C487.066 639.435 485.806 639.486 485.085 639.07Z" fill="#06033E"/>
<path d="M498.961 647.076L489.976 641.893C489.255 641.476 489.345 640.749 490.178 640.269L499.08 635.133C499.913 634.653 501.174 634.601 501.894 635.017L510.879 640.2C511.6 640.617 511.509 641.344 510.677 641.824L501.773 646.96C500.943 647.438 499.683 647.492 498.961 647.076Z" fill="#06033E"/>
<path d="M512.836 655.079L503.851 649.896C503.129 649.48 503.221 648.753 504.054 648.272L512.958 643.137C513.791 642.657 515.051 642.605 515.772 643.021L524.757 648.204C525.479 648.62 525.387 649.348 524.554 649.828L515.65 654.963C514.819 655.444 513.559 655.495 512.836 655.079Z" fill="#06033E"/>
<path d="M526.714 663.085L517.729 657.902C517.006 657.486 517.098 656.758 517.931 656.278L526.835 651.143C527.668 650.662 528.929 650.611 529.649 651.027L538.634 656.21C539.356 656.626 539.264 657.353 538.431 657.834L529.529 662.969C528.694 663.448 527.434 663.501 526.714 663.085Z" fill="#06033E"/>
<path d="M540.589 671.089L531.604 665.906C530.882 665.489 530.974 664.762 531.807 664.282L540.711 659.146C541.544 658.666 542.804 658.614 543.525 659.03L552.51 664.213C553.232 664.63 553.14 665.357 552.307 665.837L543.405 670.973C542.572 671.453 541.312 671.506 540.589 671.089Z" fill="#06033E"/>
<path d="M554.465 679.094L545.48 673.911C544.759 673.495 544.85 672.768 545.682 672.287L554.585 667.152C555.417 666.671 556.678 666.62 557.4 667.036L566.385 672.219C567.106 672.635 567.015 673.362 566.183 673.843L557.28 678.978C556.448 679.459 555.187 679.51 554.465 679.094Z" fill="#06033E"/>
<path d="M579.133 693.325L559.529 682.014C558.808 681.598 558.898 680.871 559.731 680.39L568.635 675.253C569.468 674.773 570.729 674.721 571.449 675.137L591.054 686.448C591.776 686.864 591.684 687.591 590.851 688.072L581.949 693.207C581.116 693.689 579.855 693.741 579.133 693.325Z" fill="#06033E"/>
<path d="M606.149 677.741L589.601 668.194C588.879 667.778 588.971 667.051 589.804 666.57L598.708 661.435C599.541 660.955 600.801 660.903 601.522 661.319L618.069 670.866C618.79 671.282 618.699 672.009 617.867 672.49L608.963 677.625C608.13 678.105 606.869 678.157 606.149 677.741Z" fill="#06033E"/>
<path d="M467.756 613.49L458.771 608.307C458.049 607.891 458.141 607.164 458.974 606.683L467.876 601.548C468.709 601.068 469.969 601.016 470.692 601.432L479.677 606.615C480.399 607.031 480.307 607.758 479.474 608.239L470.572 613.374C469.739 613.853 468.479 613.906 467.756 613.49Z" fill="#06033E"/>
<path d="M453.536 605.286L444.551 600.103C443.829 599.687 443.921 598.959 444.754 598.479L453.658 593.344C454.491 592.863 455.751 592.811 456.472 593.228L465.457 598.411C466.179 598.827 466.087 599.554 465.254 600.035L456.35 605.17C455.517 605.648 454.257 605.702 453.536 605.286Z" fill="#06033E"/>
<path d="M439.314 597.081L430.329 591.898C429.607 591.482 429.699 590.755 430.532 590.274L439.436 585.139C440.269 584.659 441.529 584.607 442.25 585.023L451.235 590.206C451.957 590.622 451.865 591.35 451.032 591.83L442.13 596.965C441.295 597.446 440.036 597.497 439.314 597.081Z" fill="#06033E"/>
<path d="M425.094 588.877L416.109 583.694C415.388 583.278 415.479 582.55 416.312 582.07L425.214 576.935C426.047 576.454 427.307 576.403 428.028 576.819L437.013 582.002C437.733 582.418 437.643 583.145 436.81 583.626L427.906 588.761C427.075 589.241 425.814 589.293 425.094 588.877Z" fill="#06033E"/>
<path d="M481.634 621.494L472.649 616.311C471.926 615.895 472.019 615.167 472.851 614.687L481.755 609.55C482.588 609.069 483.849 609.018 484.569 609.434L493.554 614.617C494.277 615.033 494.184 615.76 493.352 616.241L484.448 621.378C483.615 621.858 482.354 621.91 481.634 621.494Z" fill="#06033E"/>
<path d="M495.509 629.499L486.524 624.316C485.802 623.9 485.894 623.173 486.727 622.692L495.629 617.557C496.462 617.077 497.722 617.025 498.443 617.441L507.428 622.624C508.15 623.04 508.058 623.768 507.225 624.248L498.321 629.385C497.49 629.864 496.23 629.915 495.509 629.499Z" fill="#06033E"/>
<path d="M509.385 637.503L500.4 632.32C499.678 631.904 499.77 631.177 500.603 630.696L509.505 625.559C510.338 625.079 511.598 625.027 512.32 625.443L521.305 630.626C522.026 631.042 521.936 631.77 521.103 632.25L512.201 637.385C511.366 637.868 510.107 637.919 509.385 637.503Z" fill="#06033E"/>
<path d="M523.26 645.509L514.275 640.326C513.553 639.91 513.645 639.182 514.478 638.702L523.38 633.565C524.213 633.084 525.474 633.033 526.194 633.449L535.179 638.632C535.901 639.048 535.809 639.775 534.976 640.256L526.074 645.393C525.243 645.873 523.983 645.925 523.26 645.509Z" fill="#06033E"/>
<path d="M537.138 653.514L528.153 648.331C527.43 647.915 527.522 647.188 528.355 646.707L537.257 641.572C538.09 641.092 539.351 641.04 540.071 641.456L549.056 646.639C549.779 647.055 549.686 647.783 548.854 648.263L539.95 653.4C539.119 653.877 537.858 653.93 537.138 653.514Z" fill="#06033E"/>
<path d="M551.013 661.518L542.028 656.335C541.306 655.919 541.398 655.192 542.231 654.711L551.135 649.574C551.968 649.094 553.228 649.042 553.949 649.458L562.934 654.641C563.656 655.057 563.564 655.784 562.731 656.265L553.827 661.4C552.994 661.883 551.734 661.934 551.013 661.518Z" fill="#06033E"/>
<path d="M564.889 669.524L555.904 664.341C555.183 663.924 555.274 663.197 556.107 662.717L565.01 657.582C565.843 657.101 567.104 657.049 567.824 657.465L576.809 662.648C577.53 663.065 577.44 663.792 576.607 664.272L567.705 669.408C566.872 669.888 565.611 669.94 564.889 669.524Z" fill="#06033E"/>
<path d="M578.766 677.527L569.781 672.344C569.061 671.928 569.151 671.201 569.984 670.72L578.888 665.585C579.721 665.105 580.981 665.053 581.702 665.469L590.687 670.652C591.407 671.068 591.317 671.796 590.484 672.276L581.58 677.411C580.747 677.892 579.487 677.943 578.766 677.527Z" fill="#06033E"/>
<path d="M592.642 685.533L583.657 680.35C582.935 679.934 583.027 679.206 583.86 678.726L592.762 673.591C593.595 673.11 594.855 673.059 595.576 673.475L604.561 678.658C605.283 679.074 605.193 679.801 604.358 680.282L595.454 685.419C594.623 685.897 593.363 685.949 592.642 685.533Z" fill="#06033E"/>
<path d="M460.45 593.69L451.465 588.507C450.743 588.091 450.835 587.363 451.668 586.883L460.57 581.748C461.403 581.267 462.663 581.216 463.385 581.632L472.37 586.815C473.093 587.231 473.001 587.958 472.168 588.439L463.266 593.574C462.431 594.054 461.172 594.106 460.45 593.69Z" fill="#06033E"/>
<path d="M446.643 585.725L437.658 580.542C436.937 580.126 437.028 579.398 437.86 578.918L446.763 573.781C447.595 573.3 448.856 573.249 449.578 573.665L458.563 578.848C459.286 579.264 459.193 579.991 458.361 580.472L449.458 585.607C448.626 586.089 447.365 586.141 446.643 585.725Z" fill="#06033E"/>
<path d="M432.837 577.76L423.852 572.577C423.132 572.16 423.222 571.433 424.055 570.953L432.957 565.816C433.79 565.335 435.05 565.284 435.771 565.7L444.756 570.883C445.476 571.299 445.386 572.026 444.553 572.507L435.651 577.644C434.818 578.124 433.558 578.176 432.837 577.76Z" fill="#06033E"/>
<path d="M419.03 569.795L410.045 564.612C409.324 564.195 409.415 563.468 410.247 562.988L419.15 557.852C419.982 557.372 421.243 557.32 421.963 557.737L430.948 562.919C431.671 563.336 431.58 564.063 430.746 564.543L421.844 569.679C421.011 570.159 419.75 570.211 419.03 569.795Z" fill="#06033E"/>
<path d="M433.228 561.605L424.243 556.422C423.52 556.006 423.612 555.278 424.445 554.798L427.388 553.1C428.221 552.62 429.482 552.568 430.202 552.984L439.187 558.167C439.909 558.583 439.817 559.311 438.984 559.791L436.042 561.489C435.209 561.968 433.948 562.021 433.228 561.605Z" fill="#06033E"/>
<path d="M451.246 571.998L442.261 566.815C441.54 566.399 441.63 565.672 442.463 565.191L445.406 563.494C446.239 563.013 447.499 562.962 448.22 563.378L457.205 568.561C457.927 568.977 457.835 569.704 457.002 570.185L454.059 571.882C453.226 572.363 451.966 572.414 451.246 571.998Z" fill="#06033E"/>
<path d="M464.994 579.93L456.009 574.747C455.287 574.331 455.379 573.604 456.212 573.123L459.155 571.426C459.987 570.945 461.248 570.894 461.97 571.31L470.955 576.493C471.676 576.909 471.585 577.636 470.753 578.117L467.81 579.814C466.977 580.295 465.716 580.346 464.994 579.93Z" fill="#06033E"/>
<path d="M478.744 587.862L469.759 582.679C469.039 582.263 469.129 581.536 469.962 581.055L472.905 579.358C473.738 578.877 474.998 578.826 475.719 579.242L484.704 584.425C485.426 584.841 485.334 585.568 484.501 586.049L481.558 587.746C480.725 588.227 479.465 588.279 478.744 587.862Z" fill="#06033E"/>
<path d="M492.493 595.794L483.508 590.611C482.787 590.195 482.878 589.468 483.711 588.987L486.653 587.29C487.486 586.809 488.747 586.758 489.467 587.174L498.452 592.357C499.175 592.773 499.082 593.5 498.249 593.981L495.307 595.678C494.476 596.159 493.215 596.21 492.493 595.794Z" fill="#06033E"/>
<path d="M569.254 640.077L560.269 634.894C559.549 634.478 559.639 633.751 560.472 633.27L563.415 631.573C564.248 631.092 565.508 631.04 566.229 631.457L575.214 636.64C575.936 637.056 575.844 637.783 575.011 638.263L572.068 639.961C571.237 640.44 569.977 640.493 569.254 640.077Z" fill="#06033E"/>
<path d="M583.005 648.007L574.02 642.824C573.297 642.408 573.389 641.681 574.222 641.2L577.165 639.503C577.998 639.022 579.258 638.971 579.981 639.387L588.966 644.57C589.688 644.986 589.596 645.713 588.763 646.194L585.82 647.891C584.985 648.372 583.725 648.425 583.005 648.007Z" fill="#06033E"/>
<path d="M596.755 655.939L587.77 650.756C587.047 650.34 587.14 649.613 587.973 649.132L590.915 647.435C591.748 646.954 593.009 646.902 593.729 647.319L602.714 652.502C603.435 652.918 603.344 653.645 602.511 654.126L599.569 655.823C598.736 656.304 597.475 656.357 596.755 655.939Z" fill="#06033E"/>
<path d="M610.503 663.871L601.518 658.688C600.796 658.272 600.888 657.545 601.721 657.064L604.664 655.366C605.497 654.886 606.757 654.834 607.478 655.25L616.463 660.433C617.185 660.85 617.093 661.577 616.26 662.057L613.317 663.755C612.484 664.236 611.226 664.287 610.503 663.871Z" fill="#06033E"/>
<path d="M474.325 601.695L465.34 596.512C464.62 596.096 464.71 595.369 465.543 594.888L474.445 589.753C475.278 589.273 476.538 589.221 477.259 589.637L486.244 594.82C486.964 595.236 486.874 595.964 486.041 596.444L477.139 601.579C476.308 602.058 475.048 602.111 474.325 601.695Z" fill="#06033E"/>
<path d="M488.203 609.699L479.218 604.516C478.496 604.1 478.588 603.373 479.421 602.892L488.323 597.757C489.156 597.276 490.416 597.225 491.137 597.641L500.122 602.824C500.844 603.24 500.752 603.967 499.919 604.448L491.017 609.583C490.184 610.064 488.924 610.115 488.203 609.699Z" fill="#06033E"/>
<path d="M502.078 617.705L493.093 612.522C492.371 612.105 492.463 611.378 493.296 610.898L502.198 605.763C503.031 605.282 504.291 605.23 505.012 605.647L513.997 610.83C514.719 611.246 514.627 611.973 513.794 612.453L504.89 617.59C504.059 618.069 502.801 618.121 502.078 617.705Z" fill="#06033E"/>
<path d="M515.954 625.71L506.969 620.527C506.247 620.111 506.339 619.384 507.172 618.903L516.076 613.768C516.909 613.288 518.169 613.236 518.89 613.652L527.875 618.835C528.597 619.251 528.505 619.978 527.672 620.459L518.77 625.594C517.937 626.073 516.676 626.126 515.954 625.71Z" fill="#06033E"/>
<path d="M529.831 633.714L520.846 628.531C520.126 628.115 520.216 627.388 521.049 626.907L529.953 621.772C530.786 621.291 532.046 621.24 532.767 621.656L541.752 626.839C542.472 627.255 542.382 627.982 541.549 628.463L532.647 633.6C531.812 634.078 530.552 634.13 529.831 633.714Z" fill="#06033E"/>
<path d="M543.707 641.719L534.722 636.536C534 636.12 534.092 635.393 534.925 634.912L543.829 629.777C544.662 629.297 545.922 629.245 546.642 629.661L555.627 634.844C556.348 635.26 556.258 635.988 555.425 636.468L546.521 641.605C545.688 642.082 544.427 642.136 543.707 641.719Z" fill="#06033E"/>
<path d="M557.583 649.723L548.598 644.54C547.875 644.124 547.968 643.397 548.8 642.916L557.704 637.781C558.537 637.301 559.798 637.249 560.518 637.665L569.503 642.848C570.226 643.264 570.133 643.991 569.3 644.472L560.397 649.607C559.564 650.088 558.305 650.139 557.583 649.723Z" fill="#06033E"/>
<path d="M571.458 657.729L562.473 652.546C561.751 652.13 561.843 651.402 562.676 650.922L571.578 645.787C572.411 645.306 573.671 645.255 574.392 645.671L583.377 650.854C584.099 651.27 584.007 651.997 583.174 652.478L574.272 657.615C573.441 658.093 572.18 658.145 571.458 657.729Z" fill="#06033E"/>
<path d="M585.336 665.732L576.351 660.549C575.63 660.133 575.72 659.406 576.553 658.925L585.457 653.79C586.29 653.31 587.551 653.258 588.271 653.674L597.256 658.857C597.978 659.273 597.886 660.001 597.053 660.481L588.151 665.616C587.317 666.097 586.056 666.15 585.336 665.732Z" fill="#06033E"/>
<path d="M394.995 602.682L368.532 587.417C367.812 587.001 367.902 586.273 368.735 585.793L377.637 580.658C378.47 580.177 379.73 580.126 380.453 580.542L406.916 595.807C407.636 596.223 407.546 596.951 406.713 597.431L397.809 602.566C396.976 603.047 395.716 603.1 394.995 602.682Z" fill="#06033E"/>
<path d="M565.466 701.025L539.002 685.759C538.282 685.343 538.372 684.616 539.205 684.135L548.109 679C548.942 678.52 550.202 678.468 550.923 678.884L577.386 694.15C578.108 694.566 578.016 695.293 577.183 695.774L568.279 700.909C567.446 701.387 566.186 701.441 565.466 701.025Z" fill="#06033E"/>
<path d="M509.973 686.693L500.988 681.51C500.265 681.094 500.357 680.366 501.19 679.886L511.797 673.768C512.63 673.287 513.89 673.235 514.611 673.652L523.596 678.835C524.316 679.251 524.226 679.978 523.393 680.458L512.786 686.577C511.955 687.057 510.695 687.111 509.973 686.693Z" fill="#06033E"/>
<path d="M409.204 628.562L394.835 620.273C394.114 619.857 394.205 619.13 395.038 618.649L405.644 612.531C406.477 612.05 407.738 611.999 408.458 612.415L422.827 620.704C423.55 621.12 423.458 621.847 422.625 622.328L412.018 628.446C411.187 628.927 409.927 628.978 409.204 628.562Z" fill="#06033E"/>
<path d="M496.604 678.982L482.234 670.693C481.512 670.277 481.604 669.549 482.437 669.069L493.044 662.95C493.877 662.47 495.137 662.418 495.857 662.834L510.227 671.123C510.947 671.54 510.857 672.267 510.024 672.747L499.419 678.866C498.585 679.345 497.324 679.398 496.604 678.982Z" fill="#06033E"/>
<path d="M429.225 640.112L414.856 631.823C414.135 631.407 414.226 630.68 415.059 630.199L425.665 624.081C426.498 623.6 427.759 623.549 428.479 623.965L442.848 632.254C443.571 632.67 443.479 633.397 442.646 633.878L432.039 639.996C431.206 640.475 429.946 640.528 429.225 640.112Z" fill="#06033E"/>
<path d="M428.575 624.02L491.052 660.062C491.827 660.509 491.827 661.234 491.052 661.682L480.237 667.92C479.461 668.367 478.204 668.367 477.429 667.92L414.952 631.878L428.575 624.02Z" fill="#06033E"/>
<path d="M548.754 701.207L558.764 706.981C559.355 707.322 559.282 707.918 558.598 708.312L554.258 710.814C553.577 711.208 552.543 711.251 551.951 710.91L541.944 705.136C541.352 704.796 541.426 704.199 542.11 703.805L546.447 701.303C547.131 700.909 548.163 700.866 548.754 701.207Z" fill="#06033E"/>
<path d="M534.762 693.135L544.772 698.909C545.364 699.25 545.29 699.846 544.606 700.24L540.268 702.743C539.585 703.137 538.553 703.179 537.961 702.838L527.954 697.064C527.362 696.724 527.436 696.127 528.12 695.733L532.457 693.231C533.139 692.839 534.171 692.795 534.762 693.135Z" fill="#06033E"/>
<path d="M520.887 685.131L530.896 690.905C531.488 691.246 531.414 691.843 530.731 692.237L526.393 694.739C525.709 695.133 524.677 695.175 524.086 694.835L514.076 689.061C513.485 688.72 513.558 688.123 514.242 687.729L518.58 685.227C519.263 684.833 520.295 684.791 520.887 685.131Z" fill="#06033E"/>
<path d="M542.426 688.716L552.434 694.49C553.026 694.831 552.952 695.427 552.268 695.821L547.929 698.324C547.247 698.718 546.213 698.76 545.622 698.419L535.612 692.645C535.021 692.305 535.094 691.708 535.778 691.314L540.118 688.812C540.801 688.418 541.835 688.374 542.426 688.716Z" fill="#06033E"/>
</g>
<path d="M689.281 672.521L424.185 519.592C420.017 517.187 417.841 511.327 419.326 506.505L479.277 312.016C480.762 307.194 485.345 305.233 489.513 307.638L754.608 460.567C758.776 462.971 760.952 468.83 759.467 473.654L699.517 668.142C698.033 672.966 693.451 674.925 689.281 672.521Z" fill="url(#paint7_radial_1412_510)"/>
<path d="M686.782 665.71L429.655 517.256C425.665 514.954 423.583 509.348 425.004 504.732L482.319 318.801C483.74 314.185 488.125 312.309 492.115 314.611L749.242 463.065C753.232 465.367 755.314 470.973 753.893 475.589L696.578 661.52C695.157 666.136 690.771 668.012 686.782 665.71Z" fill="url(#paint8_linear_1412_510)"/>
<path opacity="0.4" d="M686.782 665.71L429.655 517.256C425.665 514.954 423.583 509.348 425.004 504.732L482.319 318.801C483.74 314.185 488.125 312.309 492.115 314.611L749.242 463.065C753.232 465.367 755.314 470.973 753.893 475.589L696.578 661.52C695.157 666.136 690.771 668.012 686.782 665.71Z" fill="#06033E"/>
<path opacity="0.4" d="M686.782 665.71L429.655 517.256C425.665 514.954 423.583 509.348 425.004 504.732L482.319 318.801C483.74 314.185 488.125 312.309 492.115 314.611L749.242 463.065C753.232 465.367 755.314 470.973 753.893 475.589L696.578 661.52C695.157 666.136 690.771 668.012 686.782 665.71Z" fill="#06033E"/>
<path opacity="0.5" d="M672.967 608.891L498.905 508.479C496.169 506.899 494.739 503.053 495.714 499.886L535.078 372.183C536.052 369.016 539.061 367.729 541.8 369.307L715.862 469.719C718.598 471.299 720.028 475.145 719.053 478.312L679.689 606.015C678.715 609.182 675.705 610.469 672.967 608.891Z" fill="#06033E"/>
<path d="M649.449 611.973L475.387 511.561C472.651 509.981 471.221 506.135 472.195 502.968L511.559 375.266C512.534 372.099 515.543 370.812 518.28 372.39L692.341 472.803C695.078 474.383 696.506 478.229 695.531 481.396L656.167 609.099C655.196 612.266 652.187 613.553 649.449 611.973Z" fill="url(#paint9_radial_1412_510)"/>
<g opacity="0.5">
<path d="M649.449 611.973L475.387 511.561C472.651 509.981 471.221 506.135 472.195 502.968L511.559 375.266C512.534 372.099 515.543 370.812 518.28 372.39L692.341 472.803C695.078 474.383 696.506 478.229 695.531 481.396L656.167 609.099C655.196 612.266 652.187 613.553 649.449 611.973Z" fill="#06033E"/>
</g>
<path d="M692.343 472.803L518.281 372.39C516.566 371.401 514.745 371.537 513.384 372.555C514.204 372.531 515.06 372.717 515.897 373.198L689.959 473.61C692.695 475.188 694.123 479.036 693.149 482.203L653.785 609.905C653.42 611.087 652.771 612.006 651.96 612.614C653.827 612.558 655.491 611.295 656.169 609.095L695.533 481.393C696.51 478.229 695.08 474.381 692.343 472.803Z" fill="white"/>
<path opacity="0.4" d="M429.916 716.255C427.517 716.255 425.221 715.756 423.467 714.745V714.747L353.728 674.517C351.88 673.449 350.863 671.926 350.863 670.223C350.861 668.249 352.265 666.307 354.708 664.897L390.604 644.187C394.992 641.659 401.428 641.41 405.267 643.621L475.004 683.852C476.852 684.918 477.869 686.442 477.871 688.145C477.871 690.119 476.469 692.062 474.025 693.47L438.126 714.18C435.749 715.554 432.762 716.255 429.916 716.255ZM398.852 644.15C396.331 644.15 393.654 644.756 391.614 645.932L355.718 666.64C353.912 667.68 352.877 668.988 352.877 670.223C352.877 671.444 353.888 672.283 354.738 672.773L424.477 713.004C427.641 714.825 433.429 714.57 437.121 712.437L473.019 691.728C474.823 690.688 475.859 689.381 475.859 688.145C475.859 686.925 474.847 686.085 473.998 685.595L404.26 645.365C402.845 644.548 400.899 644.15 398.852 644.15Z" fill="#06033E"/>
<path d="M560.678 439.388L549.917 433.179C548.918 432.603 548.384 431.218 548.721 430.088C549.058 428.955 550.142 428.506 551.14 429.082L561.902 435.291C562.9 435.867 563.435 437.252 563.098 438.382C562.759 439.513 561.675 439.962 560.678 439.388Z" fill="white"/>
<path d="M586.31 454.174L570.443 445.02C569.444 444.444 568.91 443.059 569.247 441.928C569.584 440.796 570.667 440.347 571.666 440.923L587.534 450.076C588.532 450.652 589.067 452.037 588.73 453.167C588.392 454.3 587.309 454.751 586.31 454.174Z" fill="white"/>
<path d="M538.975 487.257L528.213 481.049C527.215 480.472 526.68 479.088 527.018 477.957C527.355 476.825 528.438 476.376 529.437 476.95L540.198 483.159C541.197 483.735 541.732 485.12 541.394 486.25C541.057 487.382 539.974 487.833 538.975 487.257Z" fill="white"/>
<path d="M561.824 500.44L545.957 491.288C544.958 490.711 544.424 489.327 544.761 488.196C545.098 487.064 546.182 486.615 547.18 487.191L563.048 496.345C564.047 496.922 564.581 498.306 564.244 499.437C563.907 500.565 562.823 501.015 561.824 500.44Z" fill="white"/>
<path d="M528.442 430.855L521.72 426.978C520.721 426.402 520.187 425.017 520.524 423.887C520.861 422.754 521.945 422.305 522.944 422.881L529.666 426.759C530.665 427.335 531.199 428.72 530.862 429.85C530.524 430.981 529.441 431.432 528.442 430.855Z" fill="white"/>
<path d="M548.669 452.589L528.131 440.741C527.132 440.165 526.598 438.78 526.935 437.65C527.272 436.517 528.355 436.068 529.354 436.644L549.893 448.492C550.892 449.069 551.426 450.453 551.089 451.584C550.752 452.716 549.668 453.165 548.669 452.589Z" fill="white"/>
<path d="M529.727 461.791L523.004 457.914C522.006 457.338 521.471 455.953 521.809 454.822C522.146 453.69 523.229 453.241 524.228 453.817L530.95 457.695C531.949 458.271 532.483 459.656 532.146 460.786C531.807 461.917 530.724 462.368 529.727 461.791Z" fill="white"/>
<path d="M564.303 521.999L546.348 511.64C545.349 511.064 544.815 509.679 545.152 508.549C545.489 507.416 546.573 506.967 547.571 507.544L565.527 517.902C566.525 518.478 567.06 519.863 566.722 520.994C566.383 522.124 565.302 522.575 564.303 521.999Z" fill="white"/>
<path d="M522.192 477.576L517.876 475.087C516.877 474.51 516.343 473.126 516.68 471.995C517.017 470.863 518.101 470.414 519.1 470.99L523.415 473.479C524.414 474.056 524.948 475.44 524.611 476.571C524.272 477.701 523.19 478.151 522.192 477.576Z" fill="white"/>
<path d="M518.108 495.349L512.75 492.258C511.751 491.682 511.216 490.297 511.554 489.167C511.891 488.034 512.974 487.585 513.973 488.161L519.332 491.253C520.33 491.829 520.865 493.213 520.528 494.344C520.19 495.475 519.107 495.926 518.108 495.349Z" fill="white"/>
<path d="M538.955 507.376L524.827 499.227C523.828 498.65 523.294 497.266 523.631 496.135C523.968 495.003 525.052 494.554 526.05 495.13L540.178 503.279C541.177 503.856 541.711 505.24 541.374 506.371C541.037 507.501 539.953 507.952 538.955 507.376Z" fill="white"/>
<path d="M520.343 506.704L510.186 500.843C509.188 500.267 508.653 498.883 508.99 497.752C509.328 496.62 510.411 496.171 511.41 496.747L521.569 502.607C522.567 503.184 523.102 504.568 522.765 505.699C522.426 506.829 521.342 507.28 520.343 506.704Z" fill="white"/>
<path d="M579.706 530.929L573.183 527.165C572.184 526.589 571.65 525.204 571.987 524.074C572.324 522.942 573.408 522.492 574.406 523.069L580.93 526.832C581.928 527.408 582.463 528.793 582.126 529.923C581.788 531.054 580.705 531.503 579.706 530.929Z" fill="white"/>
<path d="M554.732 476.217L536.776 465.859C535.778 465.282 535.243 463.898 535.581 462.767C535.918 461.635 537.001 461.186 538 461.762L555.955 472.121C556.954 472.697 557.488 474.081 557.151 475.212C556.814 476.342 555.73 476.794 554.732 476.217Z" fill="white"/>
<path d="M556.86 467.379L525.567 449.326C524.569 448.75 524.034 447.366 524.372 446.235C524.709 445.103 525.792 444.653 526.791 445.23L558.084 463.283C559.083 463.859 559.617 465.244 559.28 466.374C558.942 467.505 557.859 467.956 556.86 467.379Z" fill="#E8975B"/>
<path d="M538.394 476.858L520.439 466.499C519.44 465.923 518.906 464.538 519.243 463.408C519.58 462.276 520.664 461.826 521.663 462.403L539.618 472.761C540.617 473.338 541.151 474.722 540.814 475.853C540.477 476.983 539.393 477.434 538.394 476.858Z" fill="#E8975B"/>
<path d="M568.35 484.074L561.827 480.31C560.828 479.734 560.293 478.349 560.631 477.219C560.968 476.087 562.051 475.637 563.05 476.214L569.573 479.977C570.572 480.553 571.106 481.938 570.769 483.068C570.432 484.199 569.348 484.65 568.35 484.074Z" fill="#E8975B"/>
<path d="M634.707 482.094L596.075 459.808C595.076 459.232 594.542 457.848 594.879 456.717C595.216 455.585 596.3 455.135 597.298 455.712L635.931 477.998C636.929 478.574 637.464 479.959 637.127 481.089C636.789 482.22 635.706 482.669 634.707 482.094Z" fill="#E8975B"/>
<path d="M536.896 496.123L515.313 483.672C514.314 483.096 513.78 481.711 514.117 480.581C514.454 479.449 515.538 478.999 516.536 479.574L538.12 492.024C539.119 492.6 539.653 493.985 539.316 495.115C538.979 496.248 537.895 496.699 536.896 496.123Z" fill="#F8359E"/>
<path d="M540.151 427.545L524.283 418.39C523.284 417.814 522.75 416.43 523.087 415.299C523.424 414.167 524.508 413.717 525.507 414.294L541.374 423.448C542.373 424.025 542.907 425.409 542.57 426.54C542.233 427.67 541.149 428.121 540.151 427.545Z" fill="#F8359E"/>
<path d="M517.025 514.855L498.647 504.253C497.649 503.677 497.114 502.292 497.452 501.162C497.789 500.03 498.872 499.58 499.871 500.155L518.248 510.756C519.247 511.333 519.781 512.717 519.444 513.848C519.107 514.98 518.024 515.431 517.025 514.855Z" fill="#E8975B"/>
<path d="M639.045 462.242L631.18 457.704C630.45 457.282 630.058 456.271 630.307 455.445C630.554 454.618 631.346 454.288 632.076 454.71L639.94 459.247C640.67 459.668 641.061 460.679 640.814 461.508C640.565 462.333 639.775 462.662 639.045 462.242Z" fill="white"/>
<path d="M654.048 470.898L646.182 466.359C645.452 465.938 645.061 464.927 645.308 464.1C645.555 463.273 646.348 462.944 647.077 463.365L654.942 467.902C655.672 468.324 656.062 469.335 655.815 470.161C655.57 470.988 654.778 471.318 654.048 470.898Z" fill="white"/>
<path d="M669.052 479.551L661.187 475.015C660.457 474.593 660.067 473.582 660.314 472.756C660.56 471.929 661.353 471.599 662.083 472.021L669.947 476.558C670.677 476.979 671.069 477.99 670.823 478.817C670.574 479.644 669.781 479.973 669.052 479.551Z" fill="white"/>
<path d="M676.426 483.812L676.19 483.67C675.46 483.249 675.07 482.238 675.317 481.411C675.564 480.584 676.356 480.255 677.086 480.676L677.322 480.818C678.051 481.24 678.442 482.251 678.195 483.077C677.948 483.904 677.156 484.234 676.426 483.812Z" fill="#F8359E"/>
<path d="M270.455 548.107C265.477 548.107 260.498 546.827 256.059 544.264L203.367 513.866C201.082 512.548 199.719 510.189 199.719 507.552C199.719 504.916 201.082 502.557 203.367 501.239L256.058 470.842C264.936 465.72 275.974 465.718 284.852 470.842L337.544 501.241C339.829 502.559 341.192 504.918 341.192 507.554C341.192 510.191 339.829 512.549 337.544 513.868L284.854 544.264C280.414 546.827 275.434 548.107 270.455 548.107ZM257.773 541.298C265.597 545.809 275.316 545.809 283.142 541.298L335.832 510.901C337.041 510.202 337.765 508.952 337.765 507.556C337.765 506.16 337.041 504.908 335.832 504.211L283.14 473.812C275.312 469.298 265.594 469.301 257.771 473.812L205.081 504.209C203.872 504.908 203.148 506.159 203.148 507.554C203.148 508.952 203.872 510.202 205.081 510.9L257.773 541.298Z" fill="url(#paint10_linear_1412_510)"/>
<path opacity="0.6" d="M295.78 524.64C281.647 532.793 258.731 532.793 244.597 524.64C230.464 516.487 230.464 503.268 244.597 495.115C258.731 486.962 281.647 486.962 295.78 495.115C309.914 503.268 309.914 516.486 295.78 524.64Z" fill="#D8D8D8"/>
<path d="M323.837 387.147H220.753L230.34 498.667C230.34 504.861 234.437 511.055 242.629 515.781C259.015 525.234 285.579 525.234 301.963 515.781C310.155 511.055 314.251 504.861 314.25 498.667L323.837 387.147Z" fill="url(#paint11_radial_1412_510)"/>
<path opacity="0.4" d="M323.837 387.147H220.753L222.33 405.495C224.692 408.522 227.871 411.423 231.884 414.082C251.583 427.138 284.085 429.655 306.263 420.252L302.834 501.817C302.685 505.373 301.456 508.83 299.151 511.543C295.812 515.47 289.379 520.089 277.012 522.702C286.128 522.111 294.975 519.815 301.964 515.783C310.157 511.056 314.253 504.863 314.252 498.669L321.941 409.232L323.837 387.147Z" fill="#06033E"/>
<path opacity="0.4" d="M272.295 416.881C300.761 416.881 323.837 403.568 323.837 387.147C323.837 370.725 300.761 357.413 272.295 357.413C243.829 357.413 220.753 370.725 220.753 387.147C220.753 403.568 243.829 416.881 272.295 416.881Z" fill="#06033E"/>
<path opacity="0.4" d="M272.295 402.278C296.813 402.278 316.689 390.812 316.689 376.667C316.689 362.522 296.813 351.056 272.295 351.056C247.776 351.056 227.9 362.522 227.9 376.667C227.9 390.812 247.776 402.278 272.295 402.278Z" fill="#06033E"/>
<path d="M326.891 385.746L326.896 385.753L326.887 385.663C326.883 385.611 326.876 385.562 326.872 385.51L325.883 375.525L325.84 375.637C325.398 368.079 320.189 360.597 310.188 354.828C289.261 342.755 255.331 342.755 234.405 354.828C224.152 360.744 218.936 368.459 218.731 376.21L218.718 376.184L217.775 385.075C217.749 385.307 217.718 385.538 217.701 385.77L217.686 385.915L217.696 385.908C217.13 394.379 222.442 402.955 233.653 409.422C254.996 421.734 289.6 421.734 310.944 409.422C322.221 402.915 327.534 394.27 326.891 385.746Z" fill="url(#paint12_linear_1412_510)"/>
<path d="M272.295 402.278C296.813 402.278 316.689 390.812 316.689 376.667C316.689 362.522 296.813 351.056 272.295 351.056C247.776 351.056 227.9 362.522 227.9 376.667C227.9 390.812 247.776 402.278 272.295 402.278Z" fill="url(#paint13_linear_1412_510)"/>
<path d="M270.189 402.278C294.707 402.278 314.583 390.812 314.583 376.667C314.583 362.522 294.707 351.056 270.189 351.056C245.67 351.056 225.794 362.522 225.794 376.667C225.794 390.812 245.67 402.278 270.189 402.278Z" fill="url(#paint14_linear_1412_510)"/>
<path opacity="0.4" d="M246.169 362.372C263.505 352.37 291.616 352.37 308.952 362.372C309.173 362.499 309.357 362.639 309.573 362.768C307.9 361.278 305.948 359.862 303.685 358.557C286.347 348.555 258.239 348.555 240.903 358.557C223.786 368.431 223.602 384.35 240.282 394.379C229.144 384.457 231.096 371.068 246.169 362.372Z" fill="#06033E"/>
<path d="M240.903 363.001C258.241 353 286.349 353 303.687 363.001C311.375 367.437 315.646 373.093 316.516 378.889C317.607 371.615 313.336 364.123 303.687 358.557C286.349 348.555 258.241 348.555 240.903 358.557C231.254 364.123 226.983 371.615 228.074 378.887C228.943 373.093 233.215 367.437 240.903 363.001Z" fill="url(#paint15_linear_1412_510)"/>
<path d="M310.518 355.062C289.62 342.761 255.567 342.461 234.457 354.394C213.347 366.325 213.175 385.97 234.071 398.271C254.968 410.573 289.021 410.873 310.133 398.942C331.243 387.009 331.414 367.363 310.518 355.062ZM303.687 394.777C297.895 398.119 290.893 400.317 283.5 401.425L282.695 398.78C282.369 397.712 281.383 396.981 280.266 396.981H264.325C263.208 396.981 262.221 397.712 261.896 398.78L261.091 401.425C253.698 400.317 246.698 398.119 240.906 394.777C223.568 384.775 223.568 368.56 240.904 358.558C258.24 348.557 286.351 348.557 303.687 358.558C321.023 368.56 321.023 384.775 303.687 394.777Z" fill="url(#paint16_radial_1412_510)"/>
<path d="M303.685 356.662C286.347 346.661 258.239 346.661 240.902 356.662C231.816 361.904 227.5 368.853 227.939 375.718C228.337 369.484 232.653 363.318 240.902 358.558C258.239 348.557 286.349 348.557 303.685 358.558C311.935 363.318 316.251 369.484 316.649 375.72C317.089 368.853 312.773 361.904 303.685 356.662Z" fill="white"/>
<path d="M310.131 397.043C289.021 408.974 254.968 408.676 234.07 396.373C224.127 390.52 218.963 383.002 218.547 375.444C218.136 383.628 223.294 391.925 234.07 398.27C254.968 410.571 289.021 410.871 310.131 398.94C321.195 392.687 326.498 384.313 326.039 375.989C325.654 383.678 320.356 391.266 310.131 397.043Z" fill="white"/>
<path d="M277.058 402.803H267.53C266.864 402.803 266.326 402.263 266.326 401.6V401.433C266.326 400.768 266.864 400.229 267.53 400.229H277.058C277.724 400.229 278.262 400.768 278.262 401.433V401.6C278.263 402.263 277.724 402.803 277.058 402.803Z" fill="#0C0A78"/>
<path d="M277.058 400.229H267.53C266.864 400.229 266.326 400.768 266.326 401.433V401.6C266.326 401.714 266.361 401.816 266.391 401.921C266.533 401.416 266.979 401.039 267.53 401.039H277.058C277.609 401.039 278.055 401.416 278.197 401.921C278.227 401.816 278.262 401.714 278.262 401.6V401.433C278.263 400.766 277.724 400.229 277.058 400.229Z" fill="url(#paint17_linear_1412_510)"/>
<path opacity="0.5" d="M275.671 401.516C275.671 401.516 304.491 391.866 292.821 358.778C281.151 325.689 258.432 315.605 267.585 289.136C267.585 289.136 253.242 310.564 266.645 339.555C280.049 368.547 282.988 365.216 282.832 379.082C282.644 395.556 269.327 401.517 269.327 401.517L275.671 401.516Z" fill="#DEDEDE"/>
<path opacity="0.5" d="M278.264 293.739C278.264 293.739 275.264 273.946 293.844 254C293.844 254 277.412 290.671 282.788 308.776C282.788 308.776 278.441 297.267 278.264 293.739Z" fill="#DEDEDE"/>
<defs>
<linearGradient id="paint0_linear_1412_510" x1="821.906" y1="749.963" x2="881.999" y2="749.963" gradientUnits="userSpaceOnUse">
<stop stop-color="#E39A65"/>
<stop offset="1" stop-color="#E95F8D"/>
</linearGradient>
<linearGradient id="paint1_linear_1412_510" x1="739.626" y1="667.673" x2="840.567" y2="667.673" gradientUnits="userSpaceOnUse">
<stop stop-color="#E39A65"/>
<stop offset="1" stop-color="#E95F8D"/>
</linearGradient>
<linearGradient id="paint2_linear_1412_510" x1="74" y1="701.464" x2="174.94" y2="701.464" gradientUnits="userSpaceOnUse">
<stop stop-color="#E39A65"/>
<stop offset="1" stop-color="#E95F8D"/>
</linearGradient>
<linearGradient id="paint3_linear_1412_510" x1="214.001" y1="681.999" x2="708" y2="681.999" gradientUnits="userSpaceOnUse">
<stop stop-color="#E39A65"/>
<stop offset="1" stop-color="#E95F8D"/>
</linearGradient>
<radialGradient id="paint4_radial_1412_510" cx="0" cy="0" r="1" gradientUnits="userSpaceOnUse" gradientTransform="translate(489.089 296.457) scale(411.469 411.134)">
<stop stop-color="#E39A65"/>
<stop offset="0.4742" stop-color="#A92FFB"/>
<stop offset="0.5947" stop-color="#891CFB"/>
<stop offset="0.7421" stop-color="#6507FA"/>
<stop offset="0.8016" stop-color="#0D0C6F"/>
</radialGradient>
<radialGradient id="paint5_radial_1412_510" cx="0" cy="0" r="1" gradientUnits="userSpaceOnUse" gradientTransform="translate(237.426 626.627) scale(449.937 449.572)">
<stop stop-color="#E39A65"/>
<stop offset="0.4742" stop-color="#A92FFB"/>
<stop offset="0.5679" stop-color="#891CFB"/>
<stop offset="0.6825" stop-color="#6507FA"/>
<stop offset="0.7381" stop-color="#0D0C6F"/>
</radialGradient>
<radialGradient id="paint6_radial_1412_510" cx="0" cy="0" r="1" gradientUnits="userSpaceOnUse" gradientTransform="translate(278.808 536.391) scale(403.478 403.151)">
<stop stop-color="#E39A65"/>
<stop offset="0.4742" stop-color="#A92FFB"/>
<stop offset="0.5875" stop-color="#891CFB"/>
<stop offset="0.7262" stop-color="#6507FA"/>
<stop offset="1" stop-color="#3919BB"/>
</radialGradient>
<radialGradient id="paint7_radial_1412_510" cx="0" cy="0" r="1" gradientUnits="userSpaceOnUse" gradientTransform="translate(379.323 382.215) scale(411.551 411.217)">
<stop stop-color="#E39A65"/>
<stop offset="0.4742" stop-color="#A92FFB"/>
<stop offset="0.5875" stop-color="#891CFB"/>
<stop offset="0.7262" stop-color="#6507FA"/>
<stop offset="1" stop-color="#3919BB"/>
</radialGradient>
<linearGradient id="paint8_linear_1412_510" x1="424.557" y1="490.161" x2="754.339" y2="490.161" gradientUnits="userSpaceOnUse">
<stop stop-color="#3919BB"/>
<stop offset="1" stop-color="#6507FA"/>
</linearGradient>
<radialGradient id="paint9_radial_1412_510" cx="0" cy="0" r="1" gradientUnits="userSpaceOnUse" gradientTransform="translate(229.084 294.402) scale(640.98 640.459)">
<stop stop-color="#E39A65"/>
<stop offset="0.4742" stop-color="#A92FFB"/>
<stop offset="0.5875" stop-color="#891CFB"/>
<stop offset="0.7262" stop-color="#6507FA"/>
<stop offset="1" stop-color="#3919BB"/>
</radialGradient>
<linearGradient id="paint10_linear_1412_510" x1="199.718" y1="507.555" x2="341.192" y2="507.555" gradientUnits="userSpaceOnUse">
<stop stop-color="#E39A65"/>
<stop offset="1" stop-color="#E95F8D"/>
</linearGradient>
<radialGradient id="paint11_radial_1412_510" cx="0" cy="0" r="1" gradientUnits="userSpaceOnUse" gradientTransform="translate(212.26 419.93) scale(304.689 304.442)">
<stop stop-color="#E39A65"/>
<stop offset="0.1528" stop-color="#A92FFB"/>
<stop offset="0.4087" stop-color="#3919BB"/>
<stop offset="0.9311" stop-color="#3919BB"/>
</radialGradient>
<linearGradient id="paint12_linear_1412_510" x1="217.652" y1="382.215" x2="326.942" y2="382.215" gradientUnits="userSpaceOnUse">
<stop stop-color="#E39A65"/>
<stop offset="0.252" stop-color="#A92FFB"/>
<stop offset="0.5556" stop-color="#3919BB"/>
</linearGradient>
<linearGradient id="paint13_linear_1412_510" x1="227.9" y1="376.667" x2="316.689" y2="376.667" gradientUnits="userSpaceOnUse">
<stop stop-color="#4F1FEC"/>
<stop offset="1" stop-color="#A92FFB"/>
</linearGradient>
<linearGradient id="paint14_linear_1412_510" x1="225.793" y1="376.667" x2="314.583" y2="376.667" gradientUnits="userSpaceOnUse">
<stop stop-color="#4F1FEC"/>
<stop offset="1" stop-color="#A92FFB"/>
</linearGradient>
<linearGradient id="paint15_linear_1412_510" x1="227.907" y1="364.973" x2="339.856" y2="364.973" gradientUnits="userSpaceOnUse">
<stop stop-color="#131060"/>
<stop offset="0.1857" stop-color="#141062"/>
<stop offset="0.2823" stop-color="#19106A"/>
<stop offset="0.3584" stop-color="#221078"/>
<stop offset="0.4238" stop-color="#2E0F8B"/>
<stop offset="0.4823" stop-color="#3E0FA3"/>
<stop offset="0.5359" stop-color="#510EC2"/>
<stop offset="0.5847" stop-color="#680DE5"/>
<stop offset="0.6071" stop-color="#740DF8"/>
<stop offset="0.6179" stop-color="#7A14F0"/>
<stop offset="0.6826" stop-color="#9B3CC3"/>
<stop offset="0.7477" stop-color="#B75D9D"/>
<stop offset="0.8123" stop-color="#CC7680"/>
<stop offset="0.8762" stop-color="#DC886C"/>
<stop offset="0.9391" stop-color="#E5935F"/>
<stop offset="1" stop-color="#E8975B"/>
</linearGradient>
<radialGradient id="paint16_radial_1412_510" cx="0" cy="0" r="1" gradientUnits="userSpaceOnUse" gradientTransform="translate(204.011 351.32) scale(199.315 199.153)">
<stop stop-color="#E39A65"/>
<stop offset="0.252" stop-color="#A92FFB"/>
<stop offset="0.7357" stop-color="#3919BB"/>
</radialGradient>
<linearGradient id="paint17_linear_1412_510" x1="265.268" y1="401.074" x2="280.755" y2="401.074" gradientUnits="userSpaceOnUse">
<stop stop-color="#131060"/>
<stop offset="0.1857" stop-color="#141062"/>
<stop offset="0.2823" stop-color="#19106A"/>
<stop offset="0.3584" stop-color="#221078"/>
<stop offset="0.4238" stop-color="#2E0F8B"/>
<stop offset="0.4823" stop-color="#3E0FA3"/>
<stop offset="0.5359" stop-color="#510EC2"/>
<stop offset="0.5847" stop-color="#680DE5"/>
<stop offset="0.6071" stop-color="#740DF8"/>
<stop offset="0.6179" stop-color="#7A14F0"/>
<stop offset="0.6826" stop-color="#9B3CC3"/>
<stop offset="0.7477" stop-color="#B75D9D"/>
<stop offset="0.8123" stop-color="#CC7680"/>
<stop offset="0.8762" stop-color="#DC886C"/>
<stop offset="0.9391" stop-color="#E5935F"/>
<stop offset="1" stop-color="#E8975B"/>
</linearGradient>
</defs>
</svg>
