<svg width="44" height="43" viewBox="0 0 44 43" fill="none" xmlns="http://www.w3.org/2000/svg">
<g clip-path="url(#clip0_3165_6865)">
<g filter="url(#filter0_d_3165_6865)">
<path d="M29.2042 7.7183L6.71514 18.6381C5.72151 19.1206 5.30713 20.3172 5.7896 21.3108L12.3415 34.8043C12.824 35.7979 14.0206 36.2123 15.0142 35.7298L37.5033 24.81C38.4969 24.3275 38.9113 23.1309 38.4288 22.1373L31.8769 8.64383C31.3944 7.6502 30.1978 7.23583 29.2042 7.7183Z" fill="#78B75B"/>
</g>
<path d="M13.1578 31.9067L6.71514 18.6381C6.23798 18.8698 5.87241 19.2816 5.69883 19.7828C5.52526 20.284 5.55791 20.8337 5.7896 21.3108L12.3415 34.8043C12.5732 35.2814 12.9849 35.647 13.4862 35.8206C13.9874 35.9941 14.5371 35.9615 15.0142 35.7298L37.5033 24.81C37.9804 24.5783 38.346 24.1665 38.5196 23.6653C38.6931 23.1641 38.6605 22.6144 38.4288 22.1373L38.3196 21.9124L15.8306 32.8322C15.3534 33.0639 14.8037 33.0965 14.3025 32.923C13.8013 32.7494 13.3895 32.3838 13.1578 31.9067Z" fill="#669E4F"/>
<path d="M16.7838 27.9247L14.0851 29.2351C13.5883 29.4763 13.3811 30.0746 13.6223 30.5714L14.4959 32.3706C14.7372 32.8674 15.3355 33.0746 15.8323 32.8333L18.531 31.5229C19.0278 31.2817 19.235 30.6834 18.9937 30.1866L18.1201 28.3875C17.8789 27.8907 17.2806 27.6835 16.7838 27.9247Z" fill="#FACF5B"/>
<path d="M16.4107 31.1629C16.1722 31.2787 15.8973 31.2951 15.6467 31.2083C15.3961 31.1215 15.1902 30.9387 15.0744 30.7001L14.31 29.1259L14.0851 29.2351C13.8465 29.3509 13.6637 29.5568 13.577 29.8074C13.4902 30.058 13.5065 30.3329 13.6223 30.5714L14.4959 32.3706C14.6118 32.6091 14.8176 32.7919 15.0683 32.8787C15.3189 32.9655 15.5937 32.9492 15.8323 32.8333L18.531 31.5229C18.7695 31.4071 18.9523 31.2012 19.0391 30.9506C19.1259 30.7 19.1096 30.4252 18.9937 30.1866L18.8845 29.9617L16.4107 31.1629Z" fill="#F0AF4C"/>
<path d="M11.2188 25.6211L26.9611 17.9772L27.8347 19.7763L12.0923 27.4202L11.2188 25.6211Z" fill="#F7FCFF"/>
<path d="M12.1183 25.1843L11.2188 25.6211L12.0923 27.4202L27.8347 19.7763L27.3979 18.8768L13.4547 25.6471C13.2161 25.7629 12.9413 25.7792 12.6906 25.6925C12.44 25.6057 12.2342 25.4229 12.1183 25.1843Z" fill="#D7E6EF"/>
<path d="M5.90039 21.5352L31.9877 8.86815L33.7349 12.4664L7.64756 25.1334L5.90039 21.5352Z" fill="#545A6D"/>
<path d="M5.90039 21.5352L7.69951 20.6616L9.44669 24.2598L7.64756 25.1334L5.90039 21.5352Z" fill="#44394A"/>
<path d="M21.037 27.5249L34.5304 20.973C34.6497 20.9151 34.7411 20.8122 34.7845 20.6868C34.8279 20.5615 34.8197 20.4241 34.7618 20.3048C34.7039 20.1855 34.6009 20.0942 34.4756 20.0508C34.3503 20.0074 34.2129 20.0155 34.0936 20.0735L20.6002 26.6254C20.4809 26.6833 20.3895 26.7862 20.3461 26.9115C20.3027 27.0368 20.3109 27.1742 20.3688 27.2935C20.4267 27.4128 20.5296 27.5042 20.655 27.5476C20.7803 27.591 20.9177 27.5828 21.037 27.5249ZM34.9672 21.8726L21.4738 28.4245C21.3545 28.4824 21.2631 28.5853 21.2197 28.7106C21.1763 28.836 21.1845 28.9734 21.2424 29.0927C21.3003 29.2119 21.4032 29.3033 21.5285 29.3467C21.6538 29.3901 21.7913 29.382 21.9106 29.324L35.404 22.7721C35.5233 22.7142 35.6147 22.6113 35.6581 22.486C35.7014 22.3607 35.6933 22.2232 35.6354 22.104C35.5774 21.9847 35.4745 21.8933 35.3492 21.8499C35.2239 21.8065 35.0865 21.8147 34.9672 21.8726Z" fill="#F7FCFF"/>
</g>
<defs>
<filter id="filter0_d_3165_6865" x="3.58789" y="6.51562" width="37.043" height="32.4141" filterUnits="userSpaceOnUse" color-interpolation-filters="sRGB">
<feFlood flood-opacity="0" result="BackgroundImageFix"/>
<feColorMatrix in="SourceAlpha" type="matrix" values="0 0 0 0 0 0 0 0 0 0 0 0 0 0 0 0 0 0 127 0" result="hardAlpha"/>
<feOffset dy="1"/>
<feGaussianBlur stdDeviation="1"/>
<feComposite in2="hardAlpha" operator="out"/>
<feColorMatrix type="matrix" values="0 0 0 0 0 0 0 0 0 0 0 0 0 0 0 0 0 0 0.25 0"/>
<feBlend mode="normal" in2="BackgroundImageFix" result="effect1_dropShadow_3165_6865"/>
<feBlend mode="normal" in="SourceGraphic" in2="effect1_dropShadow_3165_6865" result="shape"/>
</filter>
<clipPath id="clip0_3165_6865">
<rect width="32" height="32" fill="white" transform="translate(0.619141 14.0938) rotate(-25.8995)"/>
</clipPath>
</defs>
</svg>
