<svg width="96" height="97" viewBox="0 0 96 97" fill="none" xmlns="http://www.w3.org/2000/svg">
<g filter="url(#filter0_d_3165_6856)">
<path d="M2 47.1172C2 21.7121 22.5949 1.11719 48 1.11719C73.4051 1.11719 94 21.7121 94 47.1172C94 72.5223 73.4051 93.1172 48 93.1172C22.5949 93.1172 2 72.5223 2 47.1172Z" fill="white" fill-opacity="0.13" shape-rendering="crispEdges"/>
<path d="M57.5625 41.7734C57.5625 43.7927 55.9255 45.4297 53.9062 45.4297C51.887 45.4297 50.25 43.7927 50.25 41.7734C50.25 39.7541 51.887 38.1172 53.9062 38.1172C55.9255 38.1172 57.5625 39.7541 57.5625 41.7734Z" fill="white"/>
<path d="M64.3983 37C64.3842 37.0375 64.3719 37.0696 64.3615 37.0957L64.3493 37.139C64.3294 37.2088 64.3002 37.3098 64.2614 37.4389C64.1839 37.6971 64.0683 38.0682 63.9141 38.5279C63.6057 39.4466 63.1413 40.7234 62.5145 42.1629C61.2699 45.0209 59.3469 48.6106 56.6695 51.288C54.0846 53.8729 52.1357 55.3278 50.242 56.3642C50.053 56.4676 49.8643 56.5668 49.6758 56.6627L47.8736 61.5585C47.59 62.329 46.603 62.546 46.0224 61.9653L43.2063 59.1493C43.2027 59.153 43.1991 59.1567 43.1955 59.1604C43.1908 59.1653 43.1861 59.1701 43.1812 59.1748C42.8077 59.5483 42.3026 59.7102 41.8152 59.6603C41.8065 59.69 41.7982 59.7174 41.7902 59.7423C41.7762 59.7864 41.7636 59.8228 41.7534 59.8512L41.746 59.8718C41.2075 61.4574 39.8637 62.4687 38.7407 63.0165C38.1616 63.299 37.5783 63.4903 37.0798 63.5811C36.8341 63.6259 36.5719 63.6531 36.3216 63.639C36.1445 63.629 35.6742 63.5884 35.3112 63.2254C35.2803 63.1944 35.251 63.1624 35.2236 63.1291C34.8866 63.2787 34.4359 63.4395 34.0029 63.5435C33.7432 63.6061 33.4365 63.6614 33.1374 63.6641C32.9111 63.6663 32.3529 63.6484 31.9299 63.2254C31.6204 62.9158 31.4744 62.5116 31.396 62.2214C31.3083 61.8966 31.2583 61.531 31.2363 61.1564C31.1921 60.4048 31.2543 59.5071 31.4384 58.6088C31.6221 57.7128 31.9377 56.7643 32.4337 55.9383C32.9296 55.1123 33.6447 54.3477 34.6437 53.9481L34.6474 53.9466L34.6522 53.9447L34.6649 53.9397L34.7025 53.9256C34.733 53.9142 34.7742 53.8995 34.8251 53.8823C34.9266 53.8478 35.068 53.8034 35.2413 53.7574C35.5345 53.6798 35.9293 53.5954 36.3847 53.5513C36.4599 53.28 36.6041 53.024 36.8173 52.8108C36.8258 52.8024 36.8343 52.794 36.8429 52.7858L35.9836 51.9266L35.9728 51.9167L33.4927 49.4356C32.9121 48.855 33.129 47.868 33.8996 47.5844L38.2802 45.9719C38.3429 45.8397 38.408 45.7069 38.476 45.5732C39.4397 43.6779 40.9183 41.7103 43.8586 38.9805C46.8557 36.198 50.4449 34.178 53.2539 32.8592C54.664 32.1971 55.8906 31.7057 56.7673 31.3789C57.2058 31.2155 57.5576 31.0929 57.8017 31.0106C57.9238 30.9694 58.0191 30.9383 58.085 30.9171L58.1614 30.8928L58.1629 30.8924L58.1772 30.8872C58.2053 30.8773 58.2433 30.8642 58.2903 30.849C58.384 30.8186 58.5147 30.7791 58.6746 30.7378C58.9923 30.6559 59.4386 30.5638 59.9527 30.5257C60.9547 30.4514 62.3856 30.5724 63.5548 31.5859C64.8125 32.6762 64.9165 34.2173 64.8097 35.2493C64.7544 35.7857 64.6366 36.258 64.535 36.5931C64.4837 36.7623 64.4352 36.9008 64.3983 37ZM56.1788 34.0276C55.5885 34.2715 54.9242 34.5606 54.2102 34.8959C51.5094 36.1639 48.1495 38.067 45.3895 40.6294C42.5726 43.2446 41.2883 45.0066 40.4816 46.593C40.0726 47.3975 39.7733 48.1822 39.4576 49.0656C39.3984 49.2313 39.3384 49.4009 39.2769 49.5749C39.192 49.8152 39.1043 50.0633 39.0119 50.3199L45.2782 48.0132C46.6288 47.5161 47.9419 48.8292 47.4448 50.1798L45.2604 56.1143C45.2978 56.0995 45.3352 56.0848 45.3724 56.0702C46.7728 55.5195 47.9313 55.0638 49.1619 54.3904C50.8204 53.4828 52.6011 52.1745 55.0786 49.697C57.4636 47.3121 59.2511 44.0214 60.4516 41.2646C60.7791 40.5124 61.0601 39.8067 61.2952 39.1791L56.1788 34.0276ZM39.7293 58.1093L37.4116 55.7917C37.1966 55.7676 36.9785 55.7651 36.7622 55.7781C36.3899 55.8006 36.0573 55.8689 35.8173 55.9325C35.6987 55.9638 35.6061 55.9932 35.5468 56.0133C35.5172 56.0234 35.4962 56.0309 35.4846 56.0353L35.4754 56.0387C35.0697 56.2022 34.6916 56.5486 34.3626 57.0965C34.0326 57.6462 33.7908 58.3375 33.6426 59.0606C33.4948 59.7816 33.4506 60.4826 33.4824 61.0243C33.4895 61.1454 33.5001 61.253 33.5129 61.3471C33.862 61.2596 34.2294 61.1165 34.4103 61.026C34.4976 60.9824 34.5922 60.9334 34.688 60.8839L34.6891 60.8834C34.909 60.7697 35.1361 60.6524 35.2983 60.5861C35.4278 60.5331 35.6666 60.4445 35.9525 60.4449C36.3091 60.4454 36.6455 60.5822 36.9022 60.8389C37.0222 60.959 37.1107 61.0945 37.1715 61.2351C37.352 61.1738 37.5496 61.094 37.7543 60.9942C38.6174 60.5732 39.3569 59.9241 39.6193 59.1368L39.6299 59.1047L39.6381 59.0845L39.6402 59.0782L39.6456 59.0619C39.655 59.0322 39.6705 58.9792 39.6863 58.907C39.7184 58.7609 39.7499 58.5463 39.7417 58.2917C39.7398 58.2334 39.7359 58.1724 39.7293 58.1093ZM36.4485 61.3925C36.4224 61.3911 36.4288 61.3886 36.4578 61.3928L36.4485 61.3925Z" fill="white"/>
</g>
<defs>
<filter id="filter0_d_3165_6856" x="0" y="0.117188" width="96" height="96" filterUnits="userSpaceOnUse" color-interpolation-filters="sRGB">
<feFlood flood-opacity="0" result="BackgroundImageFix"/>
<feColorMatrix in="SourceAlpha" type="matrix" values="0 0 0 0 0 0 0 0 0 0 0 0 0 0 0 0 0 0 127 0" result="hardAlpha"/>
<feOffset dy="1"/>
<feGaussianBlur stdDeviation="1"/>
<feComposite in2="hardAlpha" operator="out"/>
<feColorMatrix type="matrix" values="0 0 0 0 0 0 0 0 0 0 0 0 0 0 0 0 0 0 0.25 0"/>
<feBlend mode="normal" in2="BackgroundImageFix" result="effect1_dropShadow_3165_6856"/>
<feBlend mode="normal" in="SourceGraphic" in2="effect1_dropShadow_3165_6856" result="shape"/>
</filter>
</defs>
</svg>
