<svg width="60" height="61" viewBox="0 0 60 61" fill="none" xmlns="http://www.w3.org/2000/svg">
<g filter="url(#filter0_d_3165_6878)">
<rect x="2" y="1.37891" width="56" height="56" rx="28" fill="white" fill-opacity="0.13" shape-rendering="crispEdges"/>
<path d="M27.1061 22.8269C27.7041 21.0769 30.1221 21.0239 30.8311 22.6679L30.8911 22.8279L31.6981 25.1879C31.8831 25.7291 32.1819 26.2244 32.5746 26.6403C32.9672 27.0562 33.4444 27.3831 33.9741 27.5989L34.1911 27.6799L36.5511 28.4859C38.3011 29.0839 38.3541 31.5019 36.7111 32.2109L36.5511 32.2709L34.1911 33.0779C33.6497 33.2627 33.1542 33.5615 32.7381 33.9542C32.3221 34.3468 31.995 34.8241 31.7791 35.3539L31.6981 35.5699L30.8921 37.9309C30.2941 39.6809 27.8761 39.7339 27.1681 38.0909L27.1061 37.9309L26.3001 35.5709C26.1153 35.0295 25.8165 34.534 25.4239 34.1179C25.0312 33.7018 24.5539 33.3748 24.0241 33.1589L23.8081 33.0779L21.4481 32.2719C19.6971 31.6739 19.6441 29.2559 21.2881 28.5479L21.4481 28.4859L23.8081 27.6799C24.3494 27.495 24.8446 27.1961 25.2606 26.8035C25.6765 26.4109 26.0033 25.9336 26.2191 25.4039L26.3001 25.1879L27.1061 22.8269ZM36.9991 19.3789C37.1862 19.3789 37.3695 19.4314 37.5283 19.5304C37.687 19.6294 37.8148 19.7709 37.8971 19.9389L37.9451 20.0559L38.2951 21.0819L39.3221 21.4319C39.5096 21.4956 39.674 21.6135 39.7944 21.7707C39.9148 21.9279 39.9858 22.1173 39.9984 22.3149C40.011 22.5125 39.9647 22.7094 39.8653 22.8807C39.766 23.0519 39.618 23.1898 39.4401 23.2769L39.3221 23.3249L38.2961 23.6749L37.9461 24.7019C37.8823 24.8893 37.7643 25.0536 37.6071 25.1739C37.4498 25.2942 37.2604 25.3651 37.0628 25.3776C36.8652 25.3902 36.6683 25.3438 36.4971 25.2443C36.3259 25.1448 36.1881 24.9968 36.1011 24.8189L36.0531 24.7019L35.7031 23.6759L34.6761 23.3259C34.4886 23.2622 34.3243 23.1443 34.2039 22.9871C34.0835 22.8299 34.0125 22.6405 33.9999 22.4429C33.9872 22.2453 34.0335 22.0484 34.1329 21.8771C34.2323 21.7059 34.3803 21.568 34.5581 21.4809L34.6761 21.4329L35.7021 21.0829L36.0521 20.0559C36.1196 19.8583 36.2471 19.6868 36.417 19.5654C36.5868 19.444 36.7904 19.3788 36.9991 19.3789Z" fill="white"/>
</g>
<defs>
<filter id="filter0_d_3165_6878" x="0" y="0.378906" width="60" height="60" filterUnits="userSpaceOnUse" color-interpolation-filters="sRGB">
<feFlood flood-opacity="0" result="BackgroundImageFix"/>
<feColorMatrix in="SourceAlpha" type="matrix" values="0 0 0 0 0 0 0 0 0 0 0 0 0 0 0 0 0 0 127 0" result="hardAlpha"/>
<feOffset dy="1"/>
<feGaussianBlur stdDeviation="1"/>
<feComposite in2="hardAlpha" operator="out"/>
<feColorMatrix type="matrix" values="0 0 0 0 0 0 0 0 0 0 0 0 0 0 0 0 0 0 0.25 0"/>
<feBlend mode="normal" in2="BackgroundImageFix" result="effect1_dropShadow_3165_6878"/>
<feBlend mode="normal" in="SourceGraphic" in2="effect1_dropShadow_3165_6878" result="shape"/>
</filter>
</defs>
</svg>
