<svg width="48" height="48" viewBox="0 0 48 48" fill="none" xmlns="http://www.w3.org/2000/svg">
<g clip-path="url(#clip0_2526_3076)">
<path d="M15.2771 37.9961V17.7552H8.41649V37.9961H15.2771ZM11.8477 14.9899C14.2401 14.9899 15.7293 13.4357 15.7293 11.4933C15.6847 9.50722 14.2402 7.99609 11.8931 7.99609C9.54634 7.99609 8.01172 9.50725 8.01172 11.4933C8.01172 13.4358 9.50051 14.9899 11.8029 14.9899H11.8475H11.8477ZM19.0744 37.9961H25.935V26.6926C25.935 26.0876 25.9796 25.4833 26.1608 25.0509C26.6567 23.8422 27.7856 22.5903 29.6808 22.5903C32.1633 22.5903 33.1565 24.4465 33.1565 27.1675V37.996H40.0167V26.39C40.0167 20.1728 36.632 17.28 32.1181 17.28C28.4171 17.28 26.7921 19.3086 25.8894 20.6903H25.9352V17.7547H19.0746C19.1646 19.654 19.0746 37.9957 19.0746 37.9957L19.0744 37.9961Z" fill="white"/>
</g>
<defs>
<clipPath id="clip0_2526_3076">
<rect width="32" height="30" fill="white" transform="translate(8.01172 7.99609)"/>
</clipPath>
</defs>
</svg>
