<svg width="48" height="48" viewBox="0 0 48 48" fill="none" xmlns="http://www.w3.org/2000/svg">
<g clip-path="url(#clip0_2526_3072)">
<path d="M24.0203 15.9146C19.4774 15.9146 15.8132 19.5217 15.8132 23.9935C15.8132 28.4654 19.4774 32.0724 24.0203 32.0724C28.5632 32.0724 32.2274 28.4654 32.2274 23.9935C32.2274 19.5217 28.5632 15.9146 24.0203 15.9146ZM24.0203 29.2459C21.0846 29.2459 18.6846 26.8904 18.6846 23.9935C18.6846 21.0967 21.0774 18.7412 24.0203 18.7412C26.9632 18.7412 29.356 21.0967 29.356 23.9935C29.356 26.8904 26.956 29.2459 24.0203 29.2459ZM34.4774 15.5842C34.4774 16.6318 33.6203 17.4686 32.5631 17.4686C31.4989 17.4686 30.6489 16.6248 30.6489 15.5842C30.6489 14.5436 31.506 13.6998 32.5631 13.6998C33.6203 13.6998 34.4774 14.5436 34.4774 15.5842ZM39.9131 17.4967C39.7917 14.9725 39.206 12.7365 37.3274 10.8943C35.456 9.05215 33.1846 8.47559 30.6203 8.34902C27.9774 8.20137 20.056 8.20137 17.4132 8.34902C14.856 8.46855 12.5846 9.04512 10.706 10.8873C8.82745 12.7295 8.24888 14.9654 8.12031 17.4896C7.97031 20.0912 7.97031 27.8889 8.12031 30.4904C8.24174 33.0146 8.82745 35.2506 10.706 37.0928C12.5846 38.9349 14.8489 39.5115 17.4132 39.6381C20.056 39.7857 27.9774 39.7857 30.6203 39.6381C33.1846 39.5185 35.456 38.942 37.3274 37.0928C39.1989 35.2506 39.7846 33.0146 39.9131 30.4904C40.0631 27.8889 40.0631 20.0982 39.9131 17.4967ZM36.4989 33.2818C35.9417 34.6599 34.8631 35.7217 33.456 36.2771C31.3489 37.0998 26.3489 36.9099 24.0203 36.9099C21.6917 36.9099 16.6846 37.0928 14.5846 36.2771C13.1846 35.7287 12.106 34.667 11.5417 33.2818C10.706 31.2076 10.8989 26.2857 10.8989 23.9935C10.8989 21.7014 10.7132 16.7725 11.5417 14.7053C12.0989 13.3271 13.1775 12.2654 14.5846 11.71C16.6917 10.8873 21.6917 11.0771 24.0203 11.0771C26.3489 11.0771 31.356 10.8943 33.456 11.71C34.856 12.2584 35.9346 13.3201 36.4989 14.7053C37.3346 16.7795 37.1417 21.7014 37.1417 23.9935C37.1417 26.2857 37.3346 31.2146 36.4989 33.2818Z" fill="white"/>
</g>
<defs>
<clipPath id="clip0_2526_3072">
<rect width="32" height="36" fill="white" transform="translate(8.01172 6)"/>
</clipPath>
</defs>
</svg>
