<svg width="22" height="30" viewBox="0 0 22 30" fill="none" xmlns="http://www.w3.org/2000/svg">
<path fill-rule="evenodd" clip-rule="evenodd" d="M11.0007 0.666016V9.33268C11.0007 9.86311 11.2114 10.3718 11.5864 10.7469C11.9615 11.122 12.4702 11.3327 13.0007 11.3327H21.6673V24.666C21.6673 25.3733 21.3864 26.0515 20.8863 26.5516C20.3862 27.0517 19.7079 27.3327 19.0007 27.3327H3.00065C2.29341 27.3327 1.61513 27.0517 1.11503 26.5516C0.614936 26.0515 0.333984 25.3733 0.333984 24.666V3.33268C0.333984 2.62544 0.614936 1.94716 1.11503 1.44706C1.61513 0.946967 2.29341 0.666016 3.00065 0.666016H11.0007ZM15.0007 17.9993H7.00065C6.64703 17.9993 6.30789 18.1398 6.05784 18.3899C5.80779 18.6399 5.66732 18.9791 5.66732 19.3327C5.66732 19.6863 5.80779 20.0254 6.05784 20.2755C6.30789 20.5255 6.64703 20.666 7.00065 20.666H15.0007C15.3543 20.666 15.6934 20.5255 15.9435 20.2755C16.1935 20.0254 16.334 19.6863 16.334 19.3327C16.334 18.9791 16.1935 18.6399 15.9435 18.3899C15.6934 18.1398 15.3543 17.9993 15.0007 17.9993ZM8.33398 12.666H7.00065C6.64703 12.666 6.30789 12.8065 6.05784 13.0565C5.80779 13.3066 5.66732 13.6457 5.66732 13.9993C5.66732 14.353 5.80779 14.6921 6.05784 14.9422C6.30789 15.1922 6.64703 15.3327 7.00065 15.3327H8.33398C8.68761 15.3327 9.02674 15.1922 9.27679 14.9422C9.52684 14.6921 9.66732 14.353 9.66732 13.9993C9.66732 13.6457 9.52684 13.3066 9.27679 13.0565C9.02674 12.8065 8.68761 12.666 8.33398 12.666ZM13.6673 0.723349C14.1725 0.830489 14.6357 1.082 15.0007 1.44735L20.886 7.33268C21.2513 7.69765 21.5028 8.16084 21.61 8.66602H13.6673V0.723349Z" fill="#1F712F"/>
</svg>
