<svg width="24" height="24" viewBox="0 0 24 24" fill="none" xmlns="http://www.w3.org/2000/svg">
<g clip-path="url(#clip0_2570_248)">
<path d="M18.8579 6.85465V10.2821H14.2829V12.5696H18.8579V15.9971H19.9979V14.8571H21.1454V13.7171H22.2854V12.5696H23.4254V10.2821H22.2854V9.14215H21.1454V8.00215H19.9979V6.85465H18.8579ZM15.4304 15.9971H16.5704V20.5721H15.4304V15.9971ZM15.4304 1.13965H16.5704V6.85465H15.4304V1.13965ZM10.8554 22.8596V21.7122H15.4304V20.5721H10.8554V5.71465H9.71539V22.8596H10.8554ZM6.28789 22.8596H9.71539V23.9996H6.28789V22.8596ZM7.42789 12.5696H8.56789V14.8571H7.42789V12.5696ZM7.42789 4.57465H9.71539V5.71465H7.42789V4.57465ZM4.00039 21.7122H6.28789V22.8596H4.00039V21.7122ZM5.14039 3.42715H7.42789V4.57465H5.14039V3.42715ZM1.71289 20.5721H4.00039V21.7122H1.71289V20.5721ZM2.86039 2.28715H5.14039V3.42715H2.86039V2.28715Z" fill="#666666"/>
<path d="M1.71422 0V1.14H0.574219V20.5725H1.71422V2.2875H2.86172V1.14H15.4317V0H1.71422Z" fill="#666666"/>
</g>
<defs>
<clipPath id="clip0_2570_248">
<rect width="24" height="24" fill="white"/>
</clipPath>
</defs>
</svg>
