<svg width="36" height="36" viewBox="0 0 36 36" fill="none" xmlns="http://www.w3.org/2000/svg">
<path d="M20.5744 31.2294H13.9744C13.8866 31.2324 13.8028 31.2667 13.7381 31.3261C13.6735 31.3855 13.6322 31.4662 13.6219 31.5534C13.6156 31.6903 13.6156 31.8274 13.6219 31.9644C13.6219 34.7934 16.6834 36.5619 19.1344 35.1474C19.6931 34.8248 20.1571 34.3608 20.4796 33.8021C20.8022 33.2433 20.972 32.6095 20.9719 31.9644C20.9782 31.8274 20.9782 31.6903 20.9719 31.5534C20.9609 31.4582 20.9132 31.3711 20.839 31.3106C20.7648 31.2501 20.6698 31.2209 20.5744 31.2294ZM21.6769 7.70938C21.6744 6.83578 21.8495 5.97079 22.1914 5.16688C21.3384 4.71887 20.4209 4.40614 19.4719 4.23988V2.56438C19.4719 2.27481 19.4149 1.98808 19.3041 1.72056C19.1932 1.45304 19.0308 1.20996 18.8261 1.0052C18.6213 0.800451 18.3782 0.638032 18.1107 0.527221C17.8432 0.416409 17.5565 0.359375 17.2669 0.359375C16.9773 0.359375 16.6906 0.416409 16.4231 0.527221C16.1556 0.638032 15.9125 0.800451 15.7077 1.0052C15.503 1.20996 15.3406 1.45304 15.2297 1.72056C15.1189 1.98808 15.0619 2.27481 15.0619 2.56438V4.25488C13.5373 4.54483 12.1022 5.18916 10.8724 6.13588C9.30211 7.4269 8.04367 9.05589 7.19097 10.9013C6.33828 12.7467 5.91335 14.7608 5.9479 16.7934V17.9109C5.9479 21.6609 5.0659 25.3554 3.3754 28.7004C3.29303 28.8764 3.28219 29.0775 3.34514 29.2613C3.4081 29.4451 3.53994 29.5973 3.7129 29.6859C3.81405 29.7343 3.92476 29.7594 4.0369 29.7594H30.4969C30.6219 29.7597 30.7449 29.7281 30.8543 29.6676C30.9637 29.6072 31.0558 29.5198 31.122 29.4138C31.1883 29.3078 31.2264 29.1866 31.2327 29.0618C31.2391 28.937 31.2135 28.8126 31.1584 28.7004C29.4702 25.3541 28.5891 21.6589 28.5859 17.9109V16.7934C28.5909 15.9609 28.5221 15.1297 28.3804 14.3094H28.2919C27.4239 14.3113 26.5641 14.1421 25.7616 13.8113C24.9591 13.4805 24.2297 12.9947 23.6153 12.3816C23.0008 11.7685 22.5133 11.0403 22.1807 10.2386C21.8481 9.43683 21.6769 8.57736 21.6769 7.70938Z" fill="#666666"/>
<path d="M23.875 7.7096C23.875 11.1041 27.55 13.2266 30.49 11.5286C31.1604 11.1416 31.7171 10.5849 32.1041 9.91451C32.4912 9.24413 32.695 8.48369 32.695 7.7096C32.695 4.3151 29.02 2.1926 26.08 3.8906C25.4096 4.27765 24.8529 4.83433 24.4659 5.5047C24.0788 6.17507 23.875 6.93552 23.875 7.7096Z" fill="#FF0000"/>
</svg>
