<svg width="320" height="316" viewBox="0 0 320 316" fill="none" xmlns="http://www.w3.org/2000/svg">
<path d="M165.995 315.999C250.701 315.999 319.369 311.527 319.369 306.009C319.369 300.492 250.701 296.02 165.995 296.02C81.289 296.02 12.6211 300.492 12.6211 306.009C12.6211 311.527 81.289 315.999 165.995 315.999Z" fill="#FBEDE4"/>
<path d="M96.0257 6.16129L99.3394 7.23611L96.0257 8.31016C94.6748 8.74802 93.616 9.80681 93.1781 11.1578L92.1033 14.4714L91.0285 11.1578C90.5906 9.80681 89.5318 8.74802 88.1809 8.31016L84.8672 7.23611L88.1809 6.16129C89.5318 5.72343 90.5906 4.66464 91.0285 3.31369L92.1033 0L93.1781 3.31369C93.616 4.66464 94.6748 5.72343 96.0257 6.16129Z" fill="#E4D6CC"/>
<path d="M299.228 220.982L302.542 222.056L299.228 223.131C297.877 223.569 296.818 224.628 296.38 225.979L295.306 229.293L294.232 225.979C293.794 224.628 292.735 223.569 291.384 223.131L288.07 222.056L291.384 220.982C292.735 220.544 293.794 219.485 294.232 218.134L295.306 214.82L296.38 218.134C296.818 219.484 297.877 220.543 299.228 220.982Z" fill="#E4D6CC"/>
<path d="M11.7867 192.523L15.1004 193.597L11.7867 194.672C10.4357 195.11 9.37692 196.169 8.93907 197.52L7.86425 200.834L6.7902 197.52C6.35234 196.169 5.29355 195.11 3.94259 194.672L0.628906 193.597L3.94259 192.523C5.29355 192.085 6.35234 191.026 6.7902 189.675L7.86425 186.361L8.93907 189.675C9.37692 191.026 10.4357 192.085 11.7867 192.523Z" fill="#E4D6CC"/>
<path d="M160.628 91.73L162.552 92.354L160.628 92.9779C159.844 93.232 159.229 93.8468 158.974 94.631L158.35 96.5548L157.726 94.631C157.472 93.8468 156.856 93.232 156.072 92.9779L154.148 92.354L156.072 91.73C156.856 91.476 157.471 90.8611 157.726 90.0762L158.35 88.1523L158.974 90.0762C159.229 90.8611 159.844 91.476 160.628 91.73Z" fill="#E4D6CC"/>
<path d="M43.1513 50.3218L45.0751 50.9457L43.1513 51.5697C42.3671 51.8238 41.7523 52.4386 41.4975 53.2228L40.8735 55.1466L40.2495 53.2228C39.9955 52.4386 39.3806 51.8238 38.5957 51.5697L36.6719 50.9457L38.5957 50.3218C39.3799 50.0677 39.9947 49.4529 40.2495 48.668L40.8735 46.7441L41.4975 48.668C41.7523 49.4521 42.3671 50.067 43.1513 50.3218Z" fill="#E4D6CC"/>
<path d="M18.952 175.775L20.8759 176.399L18.952 177.023C18.1679 177.277 17.553 177.892 17.2983 178.677L16.6743 180.6L16.0503 178.677C15.7963 177.892 15.1814 177.278 14.3965 177.023L12.4727 176.399L14.3965 175.775C15.1807 175.521 15.7955 174.906 16.0503 174.121L16.6743 172.197L17.2983 174.121C17.553 174.905 18.1679 175.52 18.952 175.775Z" fill="#E4D6CC"/>
<path d="M267.78 224.242C267.78 224.242 261.044 224.978 258.413 226.451C255.782 227.925 254.519 232.872 259.15 232.872C263.781 232.872 271.148 232.872 274.306 232.872C277.464 232.872 276.201 225.82 274.517 223.926L267.78 224.242Z" fill="#2E344B"/>
<path d="M264.695 213.589C264.695 213.589 266.409 222.788 266.885 224.297C267.615 226.609 274.096 226.489 274.673 223.933C275.525 220.16 275.525 212.494 275.525 212.494L264.695 213.589Z" fill="#D8877B"/>
<path d="M263.506 226.64C263.359 226.374 263.168 226.122 262.944 225.916C262.711 225.7 262.452 225.508 262.185 225.337C261.904 225.156 261.578 224.934 261.231 224.957C261.005 224.972 260.767 225.193 260.861 225.443C260.901 225.548 260.94 225.646 261.015 225.732C261.059 225.784 261.111 225.832 261.159 225.88C261.205 225.925 261.258 225.963 261.309 226.003C261.317 226.009 261.336 226.022 261.349 226.03C261.342 226.025 261.337 226.022 261.321 226.012C261.378 226.05 261.431 226.099 261.484 226.142C261.694 226.315 261.896 226.5 262.074 226.705C262.112 226.749 262.146 226.795 262.185 226.839C262.053 226.692 262.217 226.882 262.241 226.913C262.306 227.016 262.382 227.111 262.442 227.218C262.473 227.274 262.5 227.331 262.528 227.389C262.536 227.404 262.538 227.409 262.54 227.412C262.561 227.463 262.58 227.513 262.606 227.561C262.632 227.61 262.658 227.659 262.684 227.707C262.75 227.826 262.851 227.9 262.962 227.97C263.195 228.116 263.487 228.009 263.629 227.795C263.868 227.434 263.695 226.982 263.506 226.64Z" fill="#E4D6CC"/>
<path d="M266.176 226.391C266.124 226.222 266.061 226.055 265.972 225.901C265.817 225.633 265.625 225.381 265.411 225.157C264.983 224.708 264.406 224.308 263.776 224.247C263.613 224.231 263.451 224.366 263.392 224.505C263.333 224.646 263.35 224.861 263.479 224.964C263.597 225.058 263.716 225.144 263.842 225.228C263.87 225.247 263.898 225.267 263.926 225.286C263.93 225.289 263.935 225.292 263.94 225.294C263.983 225.317 264.026 225.366 264.063 225.397C264.257 225.561 264.434 225.733 264.594 225.929C264.612 225.954 264.63 225.978 264.647 226.003C264.682 226.055 264.717 226.107 264.749 226.161C264.813 226.267 264.873 226.379 264.926 226.492C264.978 226.606 265.032 226.718 265.086 226.831C265.093 226.848 265.093 226.847 265.092 226.843C265.101 226.865 265.11 226.887 265.119 226.908C265.152 226.968 265.202 227.027 265.251 227.074C265.295 227.114 265.342 227.152 265.386 227.193C265.64 227.431 266.035 227.321 266.142 226.993C266.209 226.791 266.241 226.602 266.176 226.391Z" fill="#E4D6CC"/>
<path d="M273.515 228.198C273.445 227.948 273.319 227.732 273.136 227.548C273.037 227.471 272.938 227.395 272.838 227.318C272.608 227.184 272.36 227.117 272.094 227.116C271.891 227.108 271.702 227.15 271.527 227.243C271.344 227.302 271.186 227.404 271.053 227.547C270.91 227.681 270.808 227.839 270.749 228.021C270.656 228.196 270.614 228.385 270.622 228.588C270.64 228.719 270.657 228.849 270.675 228.98C270.745 229.229 270.871 229.446 271.053 229.63C271.152 229.707 271.252 229.783 271.351 229.86C271.581 229.993 271.829 230.06 272.094 230.061C272.297 230.068 272.486 230.026 272.662 229.934C272.844 229.874 273.003 229.773 273.135 229.63C273.279 229.496 273.38 229.338 273.44 229.156C273.532 228.98 273.574 228.791 273.566 228.588C273.55 228.459 273.533 228.328 273.515 228.198Z" fill="#E4D6CC"/>
<path d="M265.016 215.31C266.52 215.979 270.393 217.248 275.406 216.989C275.521 214.513 275.521 212.494 275.521 212.494L264.691 213.59C264.691 213.59 264.82 214.279 265.016 215.31Z" fill="#B44E50"/>
<path d="M241.253 224.242C241.253 224.242 234.517 224.978 231.886 226.451C229.255 227.925 227.992 232.872 232.623 232.872C237.254 232.872 244.622 232.872 247.779 232.872C250.936 232.872 249.674 225.82 247.99 223.926L241.253 224.242Z" fill="#2E344B"/>
<path d="M238.164 213.589C238.164 213.589 239.878 222.788 240.354 224.297C241.084 226.609 247.564 226.489 248.142 223.933C248.994 220.16 248.994 212.494 248.994 212.494L238.164 213.589Z" fill="#D8877B"/>
<path d="M236.979 226.64C236.832 226.374 236.641 226.122 236.418 225.916C236.184 225.7 235.925 225.508 235.658 225.337C235.377 225.156 235.051 224.934 234.703 224.957C234.477 224.972 234.24 225.193 234.334 225.443C234.373 225.548 234.413 225.646 234.488 225.732C234.532 225.784 234.584 225.832 234.632 225.88C234.678 225.925 234.73 225.963 234.781 226.003C234.79 226.009 234.808 226.022 234.821 226.03C234.815 226.025 234.81 226.022 234.794 226.012C234.851 226.05 234.903 226.099 234.957 226.142C235.167 226.315 235.368 226.5 235.546 226.705C235.585 226.749 235.618 226.795 235.657 226.839C235.525 226.692 235.689 226.882 235.713 226.913C235.778 227.016 235.854 227.111 235.914 227.218C235.945 227.274 235.973 227.331 236 227.389C236.008 227.404 236.01 227.409 236.013 227.412C236.033 227.463 236.052 227.513 236.077 227.561C236.104 227.61 236.129 227.659 236.156 227.707C236.222 227.826 236.323 227.9 236.434 227.97C236.666 228.116 236.958 228.009 237.101 227.795C237.341 227.434 237.169 226.982 236.979 226.64Z" fill="#E4D6CC"/>
<path d="M239.648 226.391C239.596 226.222 239.532 226.055 239.445 225.901C239.29 225.633 239.098 225.381 238.884 225.157C238.456 224.708 237.879 224.308 237.249 224.247C237.085 224.231 236.924 224.366 236.865 224.505C236.805 224.646 236.822 224.861 236.952 224.964C237.07 225.058 237.189 225.144 237.314 225.228C237.342 225.247 237.371 225.267 237.399 225.286C237.403 225.289 237.408 225.292 237.413 225.294C237.456 225.317 237.499 225.366 237.535 225.397C237.73 225.561 237.906 225.733 238.067 225.929C238.085 225.954 238.102 225.978 238.12 226.003C238.156 226.055 238.189 226.107 238.221 226.161C238.286 226.267 238.346 226.379 238.398 226.492C238.45 226.606 238.505 226.718 238.558 226.831C238.566 226.848 238.566 226.847 238.564 226.843C238.574 226.865 238.583 226.887 238.592 226.908C238.625 226.968 238.674 227.027 238.724 227.074C238.767 227.114 238.815 227.152 238.858 227.193C239.113 227.431 239.508 227.321 239.615 226.993C239.68 226.791 239.713 226.602 239.648 226.391Z" fill="#E4D6CC"/>
<path d="M246.987 228.198C246.917 227.948 246.791 227.732 246.608 227.548C246.509 227.471 246.41 227.395 246.31 227.318C246.08 227.184 245.832 227.117 245.567 227.116C245.364 227.108 245.175 227.15 244.999 227.243C244.817 227.302 244.659 227.404 244.526 227.547C244.382 227.681 244.281 227.839 244.221 228.021C244.129 228.196 244.087 228.385 244.095 228.588C244.112 228.719 244.13 228.849 244.147 228.98C244.217 229.229 244.343 229.446 244.526 229.63C244.625 229.707 244.724 229.783 244.824 229.86C245.053 229.993 245.301 230.06 245.567 230.061C245.77 230.068 245.959 230.026 246.134 229.934C246.317 229.874 246.475 229.773 246.608 229.63C246.752 229.496 246.853 229.338 246.912 229.156C247.005 228.98 247.047 228.791 247.039 228.588C247.022 228.459 247.005 228.328 246.987 228.198Z" fill="#E4D6CC"/>
<path d="M238.489 215.31C239.993 215.979 243.866 217.248 248.879 216.989C248.994 214.513 248.994 212.494 248.994 212.494L238.164 213.59C238.164 213.59 238.293 214.279 238.489 215.31Z" fill="#B44E50"/>
<path d="M271.14 140.333C271.992 143.132 274.669 150.433 274.913 158.951C275.156 167.469 276.129 208.477 276.495 214.805H263.474C263.474 214.805 254.834 183.41 254.348 159.681C254.348 159.681 251.214 178.651 250.089 186.939C248.75 196.795 250.575 214.927 250.575 214.927H236.704C236.704 214.927 232.201 184.749 234.27 168.93C236.339 153.11 239.868 139.238 239.868 139.238L271.14 140.333Z" fill="#4F6E59"/>
<path d="M272.113 143.412C271.715 142.119 271.365 141.068 271.142 140.334L255.467 139.785L252.402 140.699L252.463 143.802C252.463 143.802 261.71 146.443 272.113 143.412Z" fill="#2E344B"/>
<path d="M231.898 112.239C231.898 112.239 235.823 114.155 239.975 113.837C244.128 113.517 239.701 110.643 239.701 110.643L231.898 112.239Z" fill="#2E344B"/>
<path d="M241.269 112.59C241.59 112.502 240.113 118.127 238.836 120.864C238.04 122.569 231.9 130.66 231.9 130.66L226.484 127.374C226.484 127.374 231.9 118.217 232.356 117.122C232.812 116.027 233.907 108.087 233.907 108.087L239.566 107.266L241.269 112.59Z" fill="#D8877B"/>
<path d="M233.906 108.087C233.906 108.087 233.603 110.28 233.25 112.521C234.305 112.745 238.433 113.679 240.827 115.021C241.205 113.599 241.408 112.551 241.268 112.589L239.797 107.993L238.315 107.447L233.906 108.087Z" fill="#B44E50"/>
<path d="M262.427 92.0664C266.761 92.6652 270.229 94.0337 272.237 96.133C274.245 98.2323 274.793 117.763 273.88 120.409L272.846 119.831L270.503 122.051C270.503 122.051 270.412 133.915 272.329 140.578C272.329 140.578 257.179 147.514 239.109 139.3C239.109 139.3 242.668 133.185 241.664 122.873C241.505 121.235 239.748 116.94 239.839 112.834C239.839 112.834 234.545 111.83 231.898 112.241C231.898 112.241 234.272 99.9654 236.462 97.1369C238.652 94.3076 243.489 92.8475 245.314 92.3914C247.14 91.9352 250.516 93.0298 250.516 93.0298L257.908 92.6645L262.427 92.0664Z" fill="#6779B7"/>
<path d="M271.949 139.084C271.9 138.867 271.854 138.649 271.808 138.426C270.323 138.916 268.828 139.367 267.301 139.731C265.037 140.27 262.747 140.648 260.431 140.87C255.796 141.315 251.102 141.159 246.482 140.617C244.233 140.353 242.002 139.981 239.773 139.588C240.367 139.847 240.957 140.089 241.543 140.317C245.141 141.097 248.843 141.496 252.501 141.642C257.228 141.83 261.996 141.472 266.632 140.529C268.423 140.163 270.213 139.691 271.949 139.084Z" fill="#2E344B"/>
<path d="M218.816 127.8L251.46 154.78C253.215 156.231 255.799 156.053 257.339 154.375L257.892 153.771C259.446 152.077 259.384 149.457 257.751 147.839L227.699 118.064L218.816 127.8Z" fill="#2E344B"/>
<path d="M258.262 66.466C258.262 66.466 259.111 60.7761 265.838 60.4504C272.565 60.1247 275.247 65.2051 275.801 70.2435C276.356 75.2819 277.034 77.9251 278.652 78.9526C278.652 78.9526 272.129 84.5021 266.845 77.9731C261.562 71.4442 258.262 66.466 258.262 66.466Z" fill="#5F2A3D"/>
<path d="M262.997 60.9902C258.859 62.4808 258.262 66.465 258.262 66.465C258.262 66.465 261.43 71.2418 266.522 77.5694C267.443 77.4198 268.157 76.5907 268.519 74.7751C270.069 67.015 265.039 62.4785 262.997 60.9902Z" fill="#2E344B"/>
<path d="M247.477 88.5064C243.255 85.5856 241.264 86.1204 240.417 75.1106C239.57 64.1008 256.824 54.8394 265.161 65.4029C270.404 72.0456 270.864 83.9616 262.425 86.8694C252.974 90.1259 247.477 88.5064 247.477 88.5064Z" fill="#5F2A3D"/>
<path d="M204.216 133.215C220.194 133.215 233.147 120.262 233.147 104.284C233.147 88.3062 220.194 75.3535 204.216 75.3535C188.238 75.3535 175.285 88.3062 175.285 104.284C175.285 120.262 188.238 133.215 204.216 133.215Z" fill="#2E344B"/>
<path d="M204.217 126.088C216.258 126.088 226.02 116.327 226.02 104.285C226.02 92.2439 216.258 82.4824 204.217 82.4824C192.176 82.4824 182.414 92.2439 182.414 104.285C182.414 116.327 192.176 126.088 204.217 126.088Z" fill="#B9CFE6"/>
<path d="M248.693 87.7071C248.693 87.7071 248.632 89.2892 248.328 90.5669C248.024 91.8446 245.316 92.3923 245.316 92.3923C245.316 92.3923 247.172 96.9555 251.431 97.8076L252.891 103.953L254.96 98.0509C254.96 98.0509 259.934 97.3003 262.429 92.0674C262.429 92.0674 261.47 91.9667 260.192 91.419C258.914 90.8713 258.975 87.1602 258.975 87.1602L248.693 87.7071Z" fill="#D8877B"/>
<path d="M222.588 134.98C221.79 132.122 222.588 130.234 223.257 129.321C223.926 128.409 224.473 129.564 224.534 129.93C224.595 130.295 224.412 132.729 224.412 132.729C224.412 132.729 224.899 131.208 225.872 129.504C226.846 127.801 227.941 127.253 228.61 128.531C228.61 128.531 229.584 127.983 230.192 129.443C230.192 129.443 231.47 129.686 231.227 131.39C231.227 131.39 232.079 132.12 231.774 133.337C231.47 134.553 230.131 135.953 229.584 137.839C229.037 139.726 223.671 138.858 222.588 134.98Z" fill="#D8877B"/>
<path d="M273.879 120.409C272.008 120.911 263.886 118.904 262.836 118.31C262.836 118.31 263.407 117.74 264.205 117.58L269.134 118.835L271.142 119.314L272.845 119.831L273.879 120.409Z" fill="#2E344B"/>
<path d="M264.207 117.578C264.207 117.578 263.355 120.711 262.017 122.597C260.679 124.484 248.206 137.23 247.537 137.777C246.868 138.325 242.487 138.143 241.209 138.934C239.931 139.725 240.966 140.577 241.939 140.516C242.912 140.455 244.556 140.698 244.556 140.698C244.556 140.698 243.521 142.524 242.912 143.131C242.304 143.74 240.479 144.653 239.809 144.835C239.14 145.017 239.262 146.538 240.053 146.478C240.053 146.478 239.262 147.878 240.905 148.425C240.905 148.425 240.539 149.337 242.121 149.459C242.121 149.459 242.182 149.885 243.886 149.763C245.589 149.641 247.719 147.451 248.631 146.539C249.544 145.627 251.126 142.767 251.551 142.462C251.977 142.158 265.971 130.659 268.101 128.225C270.231 125.791 272.846 119.829 272.846 119.829C272.846 119.829 268.405 116.726 264.207 117.578Z" fill="#D8877B"/>
<path d="M260.912 91.6905C260.686 91.6134 260.446 91.5257 260.188 91.4151C258.911 90.8674 258.972 87.1562 258.972 87.1562L253.447 87.4507L250.071 87.9892L248.571 89.1121C248.549 89.3021 248.52 89.5019 248.488 89.7041C249.627 90.7377 253.928 93.9858 260.912 91.6905Z" fill="#B44E50"/>
<path d="M263.227 76.2662C263.227 76.2662 265.809 74.7367 267.433 77.3143C269.057 79.8919 266.409 82.0857 264.235 82.085C264.235 82.085 262.182 91.1808 254.322 91.5195C246.499 91.8567 243.134 83.8456 242.5 77.9169C242.5 77.9169 246.021 76.2524 246.412 74.3446C246.802 72.4368 251.615 72.2293 254.016 68.7227C254.016 68.7227 255.869 72.2354 258.146 72.4208C260.422 72.6054 262.699 74.9656 263.227 76.2662Z" fill="#D8877B"/>
<path d="M258.145 72.4208C255.868 72.2354 254.016 68.7227 254.016 68.7227C251.614 72.2293 246.802 72.4368 246.411 74.3446C246.02 76.2524 242.5 77.9169 242.5 77.9169C242.521 78.116 242.546 78.3174 242.573 78.5203C243.941 78.2045 246.409 76.4676 246.979 75.1631C247.618 73.7031 251.52 73.041 253.801 70.3948C253.801 70.3948 255.489 72.996 257.954 73.2698C259.876 73.4834 261.862 75.0502 262.908 75.6719C262.063 74.3515 260.107 72.581 258.145 72.4208Z" fill="#B44E50"/>
<path d="M266.403 77.7456C266.486 77.5411 266.293 77.3245 266.151 77.204C265.982 77.0613 265.802 76.9469 265.589 76.8813C265.201 76.7623 264.736 76.8386 264.46 77.1551C264.207 77.4465 264.158 77.8501 264.175 78.2231C264.197 78.6938 264.257 79.1667 264.332 79.6313C264.373 79.8891 264.765 79.9837 264.929 79.7884C265.086 79.6007 265.455 79.3528 265.668 79.6206C265.758 79.7342 265.702 79.9089 265.643 80.0218C265.592 80.1187 265.519 80.2011 265.466 80.2972C265.408 80.4032 265.373 80.5169 265.347 80.6336C265.31 80.7915 265.451 80.9586 265.619 80.9059C265.986 80.7915 266.212 80.5215 266.335 80.1614C266.453 79.8159 266.395 79.4383 266.158 79.1583C265.846 78.7899 265.374 78.7464 264.966 78.9035C264.947 78.7227 264.918 78.5427 264.91 78.3596C264.9 78.1331 264.872 77.8264 265.025 77.6472C265.382 77.2307 266.157 78.3482 266.403 77.7456Z" fill="#B44E50"/>
<path d="M264.207 117.578C264.207 117.578 264.157 117.758 264.066 118.051C264.76 118.272 268.987 118.976 272.184 121.266C272.594 120.403 272.846 119.829 272.846 119.829C272.846 119.829 268.405 116.726 264.207 117.578Z" fill="#B44E50"/>
<path d="M245.682 143.177C245.442 143.288 245.272 143.557 245.104 143.754C244.912 143.977 244.721 144.203 244.515 144.412C244.131 144.799 243.698 145.141 243.231 145.422C242.307 145.977 241.291 146.374 240.222 146.531C240.108 146.548 240.134 146.741 240.25 146.734C241.367 146.658 242.467 146.342 243.413 145.734C243.872 145.438 244.304 145.099 244.69 144.713C244.92 144.484 245.135 144.242 245.348 144C245.532 143.791 245.774 143.589 245.877 143.328C245.924 143.207 245.775 143.133 245.682 143.177Z" fill="#B44E50"/>
<path d="M246.915 145.19C246.484 145.555 246.092 145.952 245.638 146.293C245.19 146.629 244.709 146.925 244.213 147.187C243.218 147.712 242.135 148.069 241.036 148.306C240.889 148.339 240.955 148.551 241.097 148.528C242.242 148.347 243.33 147.966 244.363 147.445C244.879 147.184 245.374 146.885 245.849 146.557C246.314 146.235 246.807 145.885 247.189 145.466C247.36 145.279 247.105 145.029 246.915 145.19Z" fill="#B44E50"/>
<path d="M246.931 146.933C246.561 147.053 246.262 147.373 245.945 147.593C245.603 147.832 245.247 148.052 244.879 148.248C244.51 148.444 244.132 148.62 243.743 148.772C243.343 148.928 242.921 149.036 242.525 149.2C242.411 149.248 242.406 149.463 242.558 149.444C242.975 149.389 243.399 149.232 243.789 149.079C244.189 148.921 244.581 148.742 244.961 148.54C245.341 148.339 245.711 148.118 246.066 147.876C246.394 147.653 246.832 147.405 247.014 147.041C247.042 146.988 246.996 146.913 246.931 146.933Z" fill="#B44E50"/>
<path d="M228.399 128.635C228.209 128.63 228.079 128.821 227.966 128.954C227.823 129.125 227.694 129.311 227.568 129.495C227.295 129.888 227.055 130.303 226.842 130.733C226.639 131.141 226.455 131.562 226.297 131.991C226.217 132.209 226.144 132.431 226.078 132.654C226.021 132.849 225.9 133.119 225.979 133.316C226.024 133.428 226.149 133.472 226.246 133.386C226.391 133.256 226.409 133.021 226.458 132.84C226.519 132.614 226.587 132.392 226.661 132.171C226.811 131.734 226.988 131.308 227.2 130.897C227.401 130.507 227.629 130.128 227.872 129.762C228.001 129.568 228.143 129.384 228.277 129.194C228.38 129.049 228.531 128.893 228.493 128.707C228.484 128.664 228.439 128.636 228.399 128.635Z" fill="#B44E50"/>
<path d="M230.063 129.666C229.872 129.665 229.745 129.819 229.617 129.944C229.466 130.094 229.328 130.255 229.197 130.423C228.94 130.755 228.724 131.115 228.543 131.494C228.35 131.896 228.184 132.317 228.063 132.746C227.998 132.977 227.939 133.211 227.885 133.445C227.832 133.672 227.754 133.913 227.754 134.148C227.754 134.255 227.91 134.305 227.963 134.204C228.06 134.018 228.1 133.804 228.16 133.604C228.221 133.399 228.284 133.195 228.353 132.992C228.498 132.559 228.649 132.125 228.846 131.712C229.015 131.359 229.212 131.019 229.446 130.704C229.563 130.546 229.691 130.396 229.828 130.254C229.952 130.125 230.148 130.008 230.183 129.822C230.197 129.745 230.149 129.667 230.063 129.666Z" fill="#B44E50"/>
<path d="M231.079 131.505C230.902 131.488 230.785 131.63 230.673 131.748C230.545 131.882 230.433 132.031 230.329 132.184C230.101 132.513 229.918 132.872 229.761 133.239C229.609 133.595 229.478 133.959 229.36 134.329C229.25 134.669 229.021 135.136 229.179 135.487C229.23 135.601 229.396 135.535 229.399 135.428C229.406 135.22 229.42 135.047 229.484 134.848C229.542 134.67 229.602 134.493 229.663 134.315C229.784 133.963 229.911 133.612 230.063 133.271C230.205 132.953 230.369 132.644 230.565 132.357C230.673 132.2 230.792 132.05 230.916 131.905C231.011 131.794 231.12 131.704 231.12 131.547C231.12 131.523 231.101 131.508 231.079 131.505Z" fill="#B44E50"/>
<path d="M241.986 102.437C241.444 103.1 241.207 103.993 240.941 104.793C240.638 105.702 240.401 106.635 240.201 107.573C240.014 108.45 239.866 109.334 239.765 110.226C239.674 111.032 239.418 112.111 239.754 112.883C239.783 112.95 239.891 112.942 239.922 112.883C240.101 112.545 240.122 112.163 240.153 111.789C240.192 111.325 240.235 110.862 240.291 110.4C240.405 109.473 240.553 108.548 240.741 107.633C240.924 106.75 241.153 105.879 241.397 105.011C241.63 104.18 242.018 103.344 242.08 102.478C242.085 102.43 242.017 102.399 241.986 102.437Z" fill="#2E344B"/>
<path d="M261.749 97.2119C262.55 96.401 263.181 95.4452 263.621 94.3948C263.839 93.8745 264.03 93.3306 264.108 92.77C264.126 92.6395 264.149 92.503 264.172 92.3642C264.037 92.3375 263.9 92.3123 263.763 92.2871C263.735 92.4313 263.703 92.5747 263.655 92.7158C263.48 93.2315 263.325 93.7479 263.094 94.2437C262.646 95.2041 262.037 96.0959 261.283 96.8427C260.531 97.5879 259.637 98.199 258.674 98.6368C258.198 98.8527 257.706 99.0121 257.204 99.1494C256.942 99.2211 256.68 99.2867 256.414 99.3378C256.294 99.3607 256.185 99.3729 256.085 99.405C255.979 99.3973 255.868 99.4454 255.823 99.5736C254.983 101.977 253.986 104.298 252.757 106.524C252.304 105.385 251.976 104.209 251.657 103.023C251.478 102.356 251.315 101.684 251.161 101.011C251.019 100.393 250.94 99.6613 250.657 99.0922C250.65 99.0808 250.64 99.08 250.634 99.0709C250.642 99.0312 250.643 98.9877 250.625 98.9374C250.529 98.649 249.989 98.5926 249.739 98.5079C248.361 98.0418 247.089 97.2744 246.041 96.2652C245.051 95.3102 244.234 94.1301 243.629 92.8775C243.55 92.9027 243.472 92.9279 243.391 92.9553C244.114 95.433 246.018 97.4666 248.33 98.6086C248.637 98.7604 248.952 98.8931 249.274 99.0083C249.56 99.1098 249.897 99.2486 250.212 99.2692C250.209 99.5919 250.3 99.9191 250.361 100.234C250.43 100.599 250.504 100.961 250.584 101.323C250.733 101.998 250.886 102.673 251.065 103.34C251.428 104.692 251.924 106.016 252.489 107.296C252.573 107.486 252.863 107.458 252.956 107.296C254.302 104.928 255.455 102.414 256.272 99.81C256.628 99.8268 257.072 99.7017 257.341 99.646C257.894 99.5316 258.436 99.3386 258.954 99.1143C259.996 98.6612 260.95 98.022 261.749 97.2119Z" fill="#2E344B"/>
<path d="M264.963 106.374C264.953 106.347 264.908 106.331 264.893 106.365C264.544 107.159 264.606 108.166 264.529 109.021C264.436 110.056 264.302 111.085 264.15 112.113C263.855 114.102 263.349 116.037 262.962 118.007C262.914 118.251 263.246 118.34 263.332 118.109C264.037 116.213 264.397 114.165 264.697 112.17C264.841 111.216 264.942 110.255 265.019 109.293C265.058 108.809 265.087 108.326 265.096 107.84C265.105 107.333 265.144 106.855 264.963 106.374Z" fill="#2E344B"/>
<path d="M259.054 123.804C258.474 124.003 257.965 124.336 257.426 124.626C256.822 124.95 256.199 125.242 255.559 125.488C254.316 125.965 253.018 126.302 251.688 126.401C249.203 126.586 246.558 125.94 244.544 124.445C244.519 124.428 244.49 124.467 244.512 124.487C246.458 126.248 249.016 126.986 251.612 126.844C252.977 126.77 254.335 126.47 255.611 125.982C256.24 125.742 256.854 125.464 257.45 125.151C258.063 124.829 258.69 124.498 259.156 123.978C259.218 123.906 259.158 123.769 259.054 123.804Z" fill="#2E344B"/>
<path d="M259.862 122.059C259.393 122.38 258.932 122.709 258.433 122.985C258.154 123.139 257.863 123.268 257.581 123.414C257.316 123.551 256.998 123.648 256.775 123.85C256.762 123.861 256.774 123.878 256.787 123.88C257.055 123.916 257.335 123.813 257.589 123.739C257.852 123.662 258.104 123.555 258.355 123.443C258.871 123.211 259.383 122.945 259.843 122.615C260.008 122.496 260.399 122.283 260.376 122.043C260.349 121.756 259.979 121.978 259.862 122.059Z" fill="#2E344B"/>
<path d="M254.652 159.16C254.646 158.736 254.646 158.311 254.646 157.887C254.646 157.505 254.745 156.994 254.559 156.648C254.475 156.493 254.26 156.513 254.172 156.648C254.056 156.826 254.053 157.044 254.043 157.251C254.031 157.479 254.022 157.708 254.015 157.936C254.002 158.36 254.002 158.784 254.008 159.209C254.02 160.079 254.021 160.963 254.24 161.809C254.305 162.059 254.64 161.983 254.664 161.752C254.75 160.891 254.665 160.024 254.652 159.16Z" fill="#2E344B"/>
<path d="M250.251 172.762C250.609 171.006 250.996 169.256 251.42 167.515C251.855 165.723 252.405 163.929 252.711 162.112C252.722 162.049 252.628 161.994 252.597 162.064C251.977 163.521 251.599 165.087 251.185 166.614C250.754 168.197 250.381 169.8 250.035 171.404C249.342 174.613 248.773 177.852 248.334 181.107C247.462 187.559 247.033 194.125 247.187 200.636C247.27 204.165 247.47 207.717 247.969 211.214C244.539 211.205 241.11 211.194 237.68 211.201C237.185 211.202 236.688 211.199 236.191 211.198C236.22 211.419 236.249 211.632 236.275 211.836C240.201 211.843 244.125 211.832 248.051 211.819C248.802 211.817 249.551 211.815 250.302 211.814C250.287 211.621 250.271 211.426 250.255 211.218C249.671 211.217 249.088 211.217 248.505 211.216C248.226 208.109 247.94 205.008 247.824 201.889C247.705 198.644 247.685 195.383 247.814 192.138C248.072 185.637 248.95 179.133 250.251 172.762Z" fill="#2E344B"/>
<path d="M276.343 211.185C275.531 211.187 274.719 211.19 273.907 211.192C273.939 211.152 273.962 211.102 273.959 211.034C273.785 206.728 273.564 202.426 273.533 198.115C273.518 195.993 273.532 193.87 273.608 191.751C273.685 189.611 273.893 187.477 273.952 185.338C274.066 181.127 273.277 176.976 273.09 172.78C272.997 170.685 273.094 168.589 273.106 166.493C273.117 164.404 273.045 162.313 272.881 160.229C272.518 155.62 271.81 150.938 270.385 146.531C270.336 146.379 270.111 146.441 270.146 146.596C271.07 150.691 271.923 154.777 272.315 158.962C272.507 161.011 272.617 163.069 272.63 165.127C272.644 167.217 272.534 169.306 272.56 171.396C272.611 175.597 273.441 179.745 273.471 183.946C273.486 186.052 273.297 188.153 273.178 190.253C273.058 192.372 272.981 194.494 272.976 196.616C272.965 201.422 273.165 206.235 273.447 211.032C273.451 211.1 273.48 211.151 273.517 211.192C270.878 211.199 268.24 211.208 265.602 211.213C264.582 211.215 263.563 211.218 262.543 211.22C262.596 211.43 262.647 211.63 262.696 211.823C266.492 211.83 270.287 211.838 274.083 211.845C274.845 211.846 275.608 211.849 276.37 211.851C276.36 211.637 276.352 211.415 276.343 211.185Z" fill="#2E344B"/>
<path d="M249.33 80.3736C249.287 79.8312 249.062 79.3064 248.647 79.0928C248.526 79.0302 248.397 79.0012 248.262 79.0051C248.171 78.9883 248.082 78.9951 247.994 79.0249C247.86 79.0409 247.738 79.0882 247.627 79.1676C247.562 79.2232 247.498 79.2789 247.434 79.3346C247.318 79.465 247.242 79.6138 247.206 79.7816C247.04 80.5589 247.151 82.1387 248.307 82.0037C248.571 81.9724 248.84 81.8687 249.011 81.662C249.259 81.3591 249.368 80.8595 249.33 80.3736Z" fill="#2E344B"/>
<path d="M256.779 80.565C256.736 80.0226 256.511 79.4978 256.096 79.2842C255.975 79.2216 255.847 79.1927 255.712 79.1965C255.62 79.1797 255.531 79.1866 255.443 79.2163C255.309 79.2323 255.187 79.2796 255.076 79.359C255.011 79.4146 254.947 79.4703 254.883 79.526C254.767 79.6565 254.691 79.8052 254.655 79.973C254.489 80.7503 254.6 82.3301 255.757 82.1951C256.021 82.1638 256.289 82.0609 256.46 81.8534C256.709 81.5505 256.817 81.0509 256.779 80.565Z" fill="#2E344B"/>
<path d="M252.007 84.5187C251.9 84.4165 251.797 84.3234 251.675 84.238C251.563 84.1609 251.444 84.0976 251.344 84.0046C251.144 83.8199 251.025 83.5697 251.224 83.3409C251.458 83.0739 251.638 82.7901 251.757 82.4545C251.86 82.1654 251.983 81.726 251.83 81.4392C251.765 81.3148 251.582 81.3248 251.513 81.4392C251.418 81.5994 251.412 81.8107 251.36 81.9892C251.31 82.1631 251.238 82.3271 251.146 82.4827C251.054 82.6376 250.949 82.7764 250.826 82.9076C250.675 83.0693 250.547 83.2341 250.524 83.4614C250.487 83.8215 250.677 84.1739 250.946 84.402C251.078 84.5141 251.225 84.6171 251.384 84.688C251.551 84.7628 251.711 84.7842 251.892 84.7941C252.033 84.804 252.106 84.6133 252.007 84.5187Z" fill="#B44E50"/>
<path d="M255.551 79.4919C255.525 79.4042 255.481 79.3272 255.416 79.2623L255.311 79.1807C255.23 79.1334 255.142 79.1098 255.049 79.1098C254.977 79.1067 254.91 79.122 254.848 79.1548C254.783 79.1754 254.727 79.212 254.68 79.2623C254.63 79.3096 254.594 79.3653 254.573 79.4301C254.54 79.4919 254.525 79.5591 254.528 79.6308C254.534 79.6773 254.54 79.7231 254.546 79.7688C254.57 79.8573 254.615 79.9336 254.679 79.9984L254.785 80.0801C254.866 80.1274 254.953 80.151 255.047 80.151C255.119 80.154 255.186 80.1388 255.248 80.106C255.313 80.0846 255.368 80.0488 255.415 79.9984C255.466 79.9511 255.502 79.8955 255.522 79.8314C255.555 79.7696 255.57 79.7025 255.567 79.6308C255.563 79.5835 255.557 79.5377 255.551 79.4919Z" fill="#E4D6CC"/>
<path d="M247.6 82.674C247.6 83.2317 246.908 83.684 246.054 83.684C245.2 83.684 244.508 83.2317 244.508 82.674C244.508 82.1164 245.2 81.6641 246.054 81.6641C246.908 81.6641 247.6 82.1164 247.6 82.674Z" fill="#C85F64"/>
<path d="M259.717 82.8947C259.717 83.4524 259.026 83.9047 258.171 83.9047C257.318 83.9047 256.625 83.4524 256.625 82.8947C256.625 82.3371 257.317 81.8848 258.171 81.8848C259.026 81.8848 259.717 82.3371 259.717 82.8947Z" fill="#C85F64"/>
<path d="M257.095 78.5824C257.041 78.5283 256.947 78.4962 256.872 78.5237C256.855 78.5298 256.838 78.5367 256.821 78.5443C256.8 78.5504 256.782 78.5603 256.767 78.5756C256.757 78.5832 256.747 78.5908 256.737 78.5992C256.734 78.6023 256.731 78.6061 256.727 78.6099C256.713 78.6251 256.698 78.6404 256.683 78.6564L256.596 78.7495C256.57 78.7769 256.546 78.8067 256.53 78.841C256.521 78.8601 256.512 78.8784 256.503 78.8975C256.499 78.9066 256.494 78.9165 256.49 78.9257C256.488 78.931 256.485 78.9364 256.483 78.9417C256.479 78.9501 256.475 78.9585 256.472 78.9677C256.464 78.9822 256.459 78.9982 256.459 79.0157C256.453 79.0592 256.461 79.1019 256.483 79.1408C256.496 79.1645 256.518 79.1904 256.541 79.2018C256.551 79.2064 256.56 79.2102 256.57 79.214C256.618 79.2346 256.67 79.2346 256.718 79.214C256.744 79.2034 256.769 79.1912 256.793 79.179C256.811 79.1706 256.828 79.1614 256.845 79.153C256.88 79.1355 256.91 79.1103 256.938 79.0828C256.966 79.0546 256.995 79.0264 257.023 78.9982C257.039 78.9829 257.054 78.9684 257.069 78.9532C257.072 78.9501 257.076 78.9463 257.079 78.9432C257.092 78.9272 257.104 78.9104 257.117 78.8944L257.122 78.8891C257.136 78.8639 257.145 78.8349 257.154 78.8075C257.18 78.7289 257.151 78.6374 257.095 78.5824Z" fill="#C85F64"/>
<path d="M257.481 79.4806C257.477 79.4691 257.471 79.4577 257.467 79.4462C257.458 79.4294 257.446 79.4157 257.429 79.4058C257.42 79.3966 257.41 79.3905 257.398 79.3875C257.381 79.3783 257.362 79.3745 257.343 79.3753L257.273 79.3669C257.262 79.3654 257.25 79.3638 257.238 79.3623C257.214 79.3593 257.189 79.3638 257.166 79.3684C257.143 79.3722 257.121 79.3753 257.099 79.3814C257.069 79.3898 257.042 79.4081 257.015 79.4233C256.943 79.4638 256.943 79.5759 257.015 79.6163C257.041 79.6308 257.068 79.6468 257.096 79.6568C257.118 79.6644 257.143 79.6667 257.166 79.6705C257.188 79.6751 257.211 79.6797 257.235 79.6766C257.246 79.6751 257.258 79.6735 257.27 79.672L257.343 79.6629C257.355 79.6613 257.368 79.659 257.381 79.6575C257.4 79.6529 257.416 79.6446 257.429 79.6316C257.453 79.6133 257.475 79.5866 257.481 79.5568C257.484 79.5446 257.487 79.5301 257.487 79.5187C257.487 79.5057 257.484 79.4928 257.481 79.4806Z" fill="#C85F64"/>
<path d="M247.851 79.3181C247.826 79.2296 247.782 79.1533 247.717 79.0885L247.612 79.0069C247.531 78.9596 247.443 78.9359 247.349 78.9359C247.278 78.9329 247.211 78.9481 247.149 78.9809C247.084 79.0015 247.028 79.0374 246.981 79.0885C246.931 79.1358 246.895 79.1915 246.873 79.2563C246.841 79.3181 246.826 79.3852 246.828 79.4569C246.834 79.5035 246.841 79.5492 246.847 79.595C246.871 79.6835 246.916 79.7598 246.98 79.8246L247.085 79.9062C247.166 79.9535 247.254 79.9772 247.348 79.9772C247.42 79.9802 247.487 79.965 247.548 79.9322C247.613 79.9116 247.669 79.8757 247.716 79.8246C247.767 79.7773 247.802 79.7216 247.823 79.6576C247.856 79.5958 247.87 79.5286 247.868 79.4569C247.864 79.4104 247.857 79.3646 247.851 79.3181Z" fill="#E4D6CC"/>
<path d="M246.691 78.6232C246.684 78.6095 246.675 78.5965 246.663 78.5866C246.643 78.5668 246.619 78.553 246.592 78.5446L246.615 78.5546C246.593 78.5454 246.574 78.5324 246.555 78.5195C246.55 78.5149 246.545 78.5111 246.54 78.5057C246.525 78.4912 246.51 78.476 246.492 78.4661C246.485 78.463 246.479 78.4592 246.473 78.4561C246.451 78.4432 246.434 78.4264 246.408 78.4203C246.39 78.4165 246.371 78.4165 246.353 78.4142C246.356 78.415 246.358 78.415 246.361 78.415C246.332 78.4111 246.306 78.4195 246.284 78.4401C246.282 78.4424 246.28 78.4447 246.277 78.447C246.268 78.4577 246.26 78.4683 246.252 78.4798C246.244 78.4912 246.239 78.5004 246.235 78.5172C246.232 78.5309 246.229 78.5477 246.231 78.5614C246.233 78.5889 246.237 78.6163 246.245 78.643C246.245 78.6469 246.247 78.6499 246.248 78.6537C246.258 78.6835 246.271 78.7071 246.292 78.7315C246.297 78.7376 246.303 78.7437 246.309 78.7498C246.342 78.7819 246.38 78.8109 246.42 78.8322C246.427 78.836 246.434 78.8391 246.441 78.8421C246.473 78.8566 246.508 78.8742 246.544 78.8726C246.59 78.8704 246.636 78.8543 246.667 78.82C246.693 78.791 246.718 78.7536 246.714 78.7125C246.711 78.6812 246.708 78.653 246.691 78.6232Z" fill="#C85F64"/>
<path d="M246.351 79.4261C246.327 79.4108 246.302 79.3948 246.274 79.3887C246.244 79.3818 246.214 79.3803 246.183 79.3772C246.148 79.3734 246.113 79.3719 246.078 79.3711C245.982 79.3704 245.88 79.378 245.793 79.4261C245.729 79.4627 245.69 79.5496 245.714 79.6213C245.738 79.6969 245.802 79.7442 245.881 79.7487C245.896 79.7495 245.912 79.7464 245.927 79.7457C245.957 79.7434 245.988 79.7411 246.018 79.735C246.041 79.7297 246.065 79.7266 246.088 79.7228C246.117 79.7198 246.146 79.7167 246.175 79.7152C246.193 79.7144 246.211 79.7152 246.23 79.7144C246.262 79.7136 246.287 79.7052 246.315 79.6953C246.372 79.6755 246.412 79.6343 246.42 79.5733C246.429 79.513 246.401 79.4589 246.351 79.4261Z" fill="#C85F64"/>
<path d="M248.258 76.1319C248.322 76.0518 248.368 75.9778 248.383 75.8725C248.396 75.778 248.385 75.6658 248.329 75.5842C248.293 75.5308 248.253 75.4713 248.21 75.4271C248.119 75.3348 248.012 75.2928 247.892 75.2486C247.731 75.1891 247.534 75.2203 247.37 75.2509C247.148 75.2928 246.931 75.3782 246.733 75.4873C246.544 75.5918 246.346 75.7268 246.204 75.8893C246.021 76.0991 245.821 76.3997 245.824 76.6857C245.829 77.0885 246.259 77.3189 246.605 77.1335C246.76 77.0503 246.872 76.8932 247.01 76.7849C246.97 76.8162 246.93 76.8474 246.89 76.8779C246.952 76.8299 247.014 76.7803 247.076 76.7315C247.184 76.6506 247.303 76.5865 247.425 76.5293C247.527 76.4912 247.628 76.4538 247.736 76.4309C247.844 76.408 247.946 76.3722 248.043 76.3188C248.123 76.2753 248.193 76.2189 248.248 76.1472C248.248 76.1472 248.252 76.1411 248.253 76.1395C248.246 76.1472 248.245 76.1487 248.258 76.1319Z" fill="#5F2A3D"/>
<path d="M248.254 76.1401C248.27 76.1219 248.323 76.0567 248.303 76.0757C248.289 76.0886 248.261 76.1295 248.254 76.1401Z" fill="#5F2A3D"/>
<path d="M257.06 76.877C257.018 76.8944 257.026 76.8914 257.06 76.877V76.877Z" fill="#5F2A3D"/>
<path d="M254.883 76.0187C254.881 76.0172 254.88 76.0157 254.878 76.0142C254.87 76.0084 254.864 76.0047 254.855 75.998C254.858 75.9995 254.87 76.0091 254.883 76.0187Z" fill="#5F2A3D"/>
<path d="M257.202 76.0193C256.976 75.6478 256.573 75.4098 256.167 75.284C255.967 75.2222 255.754 75.1848 255.545 75.1856C255.279 75.1871 255.007 75.2153 254.811 75.4129C254.624 75.6021 254.689 75.866 254.88 76.014C254.937 76.0567 254.983 76.0865 255.053 76.1116C255.088 76.1238 255.124 76.1337 255.16 76.1414C255.239 76.1589 255.317 76.1749 255.393 76.1986C255.461 76.2199 255.529 76.2459 255.596 76.2703C255.633 76.2833 255.668 76.2993 255.705 76.3115C255.536 76.2543 255.668 76.297 255.714 76.3206C255.854 76.3908 255.991 76.477 256.119 76.5663C256.124 76.5701 256.129 76.5746 256.134 76.5792C256.127 76.5716 256.124 76.5701 256.114 76.5602C256.169 76.6143 256.237 76.6624 256.301 76.7059C256.363 76.747 256.423 76.7928 256.491 76.8233C256.555 76.8531 256.619 76.8874 256.685 76.9088C256.73 76.9233 256.79 76.9332 256.838 76.9332C256.922 76.9332 256.984 76.9034 257.059 76.876C257.069 76.8714 257.074 76.8691 257.092 76.8622L257.06 76.8752C257.06 76.8752 257.06 76.8752 257.059 76.876C257.068 76.8729 257.076 76.8699 257.085 76.8668C257.089 76.8653 257.092 76.8622 257.096 76.8607C257.098 76.8599 257.098 76.8599 257.1 76.8592C257.124 76.8439 257.15 76.8226 257.17 76.8035C257.391 76.5983 257.346 76.255 257.202 76.0193Z" fill="#5F2A3D"/>
<path d="M256.137 76.5801C256.178 76.6129 256.215 76.6541 256.137 76.5801V76.5801Z" fill="#5F2A3D"/>
<path d="M254.887 76.0195C254.888 76.0211 254.89 76.0234 254.891 76.0241C254.926 76.0501 254.907 76.0356 254.887 76.0195Z" fill="#5F2A3D"/>
<path d="M252.721 85.8615C252.426 85.6853 252.029 85.6212 251.691 85.6487C251.28 85.683 250.896 85.8165 250.587 86.0942C250.378 86.2826 250.646 86.6106 250.882 86.4764C251.139 86.3307 251.427 86.2399 251.722 86.2384C251.801 86.2376 251.878 86.2437 251.957 86.2521C251.964 86.2528 252.028 86.259 251.994 86.2551C251.965 86.2513 252.017 86.2589 252.017 86.2589C252.063 86.2673 252.109 86.2757 252.155 86.2872C252.338 86.3322 252.46 86.3985 252.606 86.4504C252.699 86.4832 252.81 86.5221 252.904 86.4809C252.919 86.4748 252.956 86.4451 252.97 86.4352C252.995 86.4115 253.013 86.3955 253.028 86.3612C253.118 86.1499 252.882 85.9576 252.721 85.8615Z" fill="#B44E50"/>
<path d="M252.97 86.435C252.966 86.4388 252.965 86.4426 252.961 86.4463C252.981 86.4289 252.978 86.4297 252.97 86.435Z" fill="#B44E50"/>
<path d="M200.15 89.0151C199.996 87.8671 198.899 86.6481 197.629 86.7884C196.625 86.899 195.796 87.1683 194.905 87.6535C194.469 87.8907 194.044 88.1493 193.631 88.4231C192.605 89.1036 191.616 89.8733 190.74 90.7398C189.891 91.5805 189.093 92.5271 188.564 93.6019C188.264 94.2107 188.014 94.843 187.837 95.4983C187.687 96.0521 187.648 96.5945 187.799 97.1567C188.034 98.0293 188.839 98.8921 189.827 98.8166C190.502 98.7647 191.064 98.5244 191.553 98.0575C191.83 97.7928 192.014 97.4671 192.222 97.1521C192.456 96.7974 192.713 96.4549 192.97 96.1162C193.226 95.7927 193.483 95.4708 193.734 95.1428C193.599 95.319 193.462 95.4952 193.326 95.6715C194.006 94.8026 194.793 94.0337 195.651 93.3433C196.346 92.8292 197.084 92.3471 197.857 91.9603C198.006 91.9115 198.153 91.8574 198.311 91.8329C198.88 91.746 199.585 91.1464 199.846 90.6529C200.119 90.1334 200.228 89.5994 200.15 89.0151Z" fill="#E4D6CC"/>
<path d="M208.586 87.7084C208.585 87.5078 208.535 87.3209 208.434 87.1478C208.381 86.9593 208.286 86.7961 208.148 86.6573C208.095 86.555 208.024 86.4688 207.935 86.4002C207.784 86.2835 207.633 86.1668 207.482 86.0501C207.452 86.0295 207.423 86.0089 207.392 85.989C207.173 85.8471 206.925 85.7487 206.674 85.6809C206.513 85.6374 206.352 85.6015 206.189 85.5733C205.857 85.5146 205.52 85.4703 205.184 85.4367C205.02 85.4207 204.855 85.4062 204.69 85.4245C204.365 85.4612 204.036 85.5031 203.715 85.5725C203.637 85.5901 203.558 85.6092 203.48 85.6297C203.356 85.6633 203.259 85.7083 203.133 85.7617C202.887 85.8655 202.627 86.0104 202.448 86.2156C202.11 86.6008 201.836 87.0989 201.861 87.6321C201.883 88.128 202.041 88.726 202.448 89.0487C202.739 89.2798 202.995 89.5094 203.377 89.5956C203.438 89.6094 203.503 89.6162 203.567 89.6254C203.731 89.6513 203.894 89.6796 204.055 89.7208C204.24 89.768 204.429 89.7909 204.616 89.8306C204.805 89.8703 204.991 89.9198 205.175 89.9793C205.262 90.0076 205.349 90.0381 205.435 90.0709C205.529 90.1075 205.632 90.1212 205.731 90.1388C205.722 90.1372 205.712 90.1365 205.702 90.135C205.715 90.1373 205.73 90.1395 205.744 90.1418C205.829 90.1563 205.912 90.1746 205.998 90.183C206.117 90.2028 206.237 90.2196 206.352 90.2227C206.468 90.2326 206.584 90.2204 206.698 90.1861C206.899 90.1853 207.085 90.135 207.259 90.0343C207.447 89.9816 207.61 89.8863 207.749 89.749C207.835 89.6979 207.912 89.6376 207.982 89.5674C207.994 89.5552 208.007 89.5438 208.018 89.5316C208.398 89.1341 208.619 88.5964 208.625 88.0464C208.627 87.9296 208.605 87.8496 208.586 87.7084Z" fill="#E4D6CC"/>
<path d="M215.201 118.451C215.126 118.136 214.981 117.861 214.767 117.627C214.324 117.053 213.616 116.628 212.862 116.671C212.786 116.676 212.71 116.677 212.635 116.68C212.089 116.701 211.639 116.836 211.168 117.089C210.99 117.184 210.831 117.283 210.666 117.399C210.515 117.505 210.359 117.605 210.201 117.698C210.006 117.814 209.826 117.949 209.649 118.089C209.017 118.546 208.242 118.872 207.874 119.595C207.697 119.942 207.62 120.288 207.673 120.678C207.725 121.071 207.884 121.347 208.14 121.654C208.677 122.297 209.461 122.378 210.23 122.453C210.57 122.487 210.915 122.498 211.255 122.479C211.826 122.446 212.339 122.295 212.862 122.084C213.273 121.918 213.566 121.799 213.896 121.55C214.301 121.243 214.67 120.98 214.884 120.499C214.996 120.249 215.101 119.996 215.202 119.742C215.316 119.311 215.316 118.882 215.201 118.451Z" fill="#E4D6CC"/>
<path d="M252.677 306.008H244.463L227.488 236.83H235.702L252.677 306.008Z" fill="#8EADD5"/>
<path d="M302.872 306.008H294.659L277.684 236.83H285.897L302.872 306.008Z" fill="#8EADD5"/>
<path d="M250.396 306.008H242.182L225.207 236.83H233.421L250.396 306.008Z" fill="#B9CFE6"/>
<path d="M206.59 306.008H214.803L231.778 236.83H223.565L206.59 306.008Z" fill="#8EADD5"/>
<path d="M300.775 306.008H292.561L275.586 236.83H283.799L300.775 306.008Z" fill="#B9CFE6"/>
<path d="M236.158 261.656H284.711V254.538H236.158V261.656Z" fill="#B9CFE6"/>
<path d="M243.826 287.025H292.379V279.907H243.826V287.025Z" fill="#B9CFE6"/>
<path d="M203.426 306.008H211.64L228.615 236.83H220.401L203.426 306.008Z" fill="#E4D6CC"/>
<path d="M256.844 306.008H265.057L282.032 236.83H273.819L256.844 306.008Z" fill="#8EADD5"/>
<path d="M253.805 306.008H262.018L278.993 236.83H270.78L253.805 306.008Z" fill="#E4D6CC"/>
<path d="M268.041 254.535H219.488V261.654H268.041V254.535Z" fill="#E4D6CC"/>
<path d="M260.373 279.908H211.82V287.027H260.373V279.908Z" fill="#E4D6CC"/>
<path d="M285.137 238.656H218.451C216.839 238.656 215.531 237.35 215.531 235.737V235.613C215.531 234.001 216.838 232.693 218.451 232.693H285.137C286.749 232.693 288.056 234 288.056 235.613V235.737C288.056 237.35 286.749 238.656 285.137 238.656Z" fill="#E4D6CC"/>
<path d="M37.0403 176.518H91.4324C93.2441 176.518 94.9581 177.229 96.0947 178.454L103.773 186.726C104.531 187.542 105.674 188.016 106.882 188.016H191.79C194.798 188.016 197.236 190.132 197.236 192.742V295.816C197.236 301.445 191.977 306.01 185.488 306.01H39.7231C35.1798 306.01 31.4961 302.814 31.4961 298.872V181.329C31.4969 178.672 33.9783 176.518 37.0403 176.518Z" fill="#D3723F"/>
<path d="M76.919 114.959L54.0352 137.843V225.533H166.212V114.959H76.919Z" fill="#E4D6CC"/>
<path d="M76.919 137.843V114.959L54.0352 137.843H76.919Z" fill="#B9CFE6"/>
<path d="M17.9593 202.352H168.675C172.227 202.352 175.276 204.546 175.932 207.575L195.595 298.419C196.448 302.362 192.962 306.008 188.338 306.008H37.6233C34.0708 306.008 31.0226 303.813 30.3666 300.784L10.7034 209.941C9.84977 205.997 13.3359 202.352 17.9593 202.352Z" fill="#EBAB6F"/>
<path d="M114.7 161.919C117.567 159.013 120.429 156.101 123.293 153.188C124.98 151.473 125.131 148.381 123.293 146.693C121.473 145.022 118.598 144.863 116.798 146.693C113.893 149.549 110.989 152.405 108.09 155.264C105.22 152.394 102.34 149.535 99.4251 146.709C97.7309 144.961 94.5354 144.879 92.8565 146.709C91.1325 148.587 91.0486 151.413 92.8565 153.277C95.6751 156.184 98.5273 159.057 101.39 161.919C98.5288 164.78 95.6789 167.651 92.861 170.557C91.1134 172.252 91.0318 175.447 92.861 177.126C94.7391 178.85 97.5653 178.934 99.4297 177.126C102.343 174.301 105.223 171.443 108.09 168.574C110.988 171.432 113.89 174.286 116.794 177.141C118.509 178.828 121.601 178.98 123.288 177.141C124.96 175.321 125.118 172.446 123.288 170.647C120.427 167.736 117.566 164.825 114.7 161.919Z" fill="#C85F64"/>
<path d="M22.1542 122.394H21.1716C21.0191 121.923 20.8299 121.47 20.6072 121.035L21.3029 120.339C21.9612 119.681 21.9612 118.614 21.3029 117.956L19.6437 116.296C18.9854 115.639 17.919 115.639 17.2614 116.296L16.5657 116.992C16.1309 116.77 15.6771 116.58 15.2064 116.427V115.445C15.2064 114.514 14.452 113.76 13.5213 113.76H11.1741C10.2435 113.76 9.48906 114.514 9.48906 115.445V116.427C9.0184 116.58 8.56452 116.769 8.12972 116.992L7.43403 116.296C6.77648 115.639 5.70929 115.639 5.05174 116.296L3.39184 117.956C2.73429 118.614 2.73429 119.681 3.39184 120.339L4.08754 121.035C3.86479 121.47 3.67561 121.923 3.52305 122.394H2.54054C1.6099 122.394 0.855469 123.149 0.855469 124.079V126.426C0.855469 127.357 1.6099 128.111 2.54054 128.111H3.52305C3.67561 128.582 3.86479 129.036 4.08754 129.471L3.39184 130.166C2.73429 130.825 2.73429 131.891 3.39184 132.549L5.05174 134.209C5.70929 134.866 6.77648 134.866 7.43403 134.209L8.12972 133.513C8.56452 133.735 9.0184 133.925 9.48906 134.077V135.06C9.48906 135.991 10.2435 136.745 11.1741 136.745H13.5213C14.452 136.745 15.2064 135.991 15.2064 135.06V134.077C15.6771 133.925 16.1309 133.736 16.5657 133.513L17.2614 134.209C17.9197 134.866 18.9862 134.866 19.6437 134.209L21.3029 132.549C21.9612 131.89 21.9612 130.824 21.3029 130.166L20.6072 129.471C20.8291 129.036 21.0191 128.583 21.1716 128.111H22.1542C23.0848 128.111 23.8392 127.357 23.8392 126.426V124.079C23.8385 123.149 23.084 122.394 22.1542 122.394ZM12.3473 131.148C9.09163 131.148 6.45151 128.509 6.45151 125.252C6.45151 121.997 9.09087 119.357 12.3473 119.357C15.6038 119.357 18.2432 121.996 18.2432 125.252C18.2432 128.509 15.6031 131.148 12.3473 131.148Z" fill="#C9B5A9"/>
<path d="M213.167 162.227H212.185C212.032 161.757 211.843 161.303 211.62 160.868L212.316 160.172C212.974 159.514 212.974 158.448 212.316 157.789L210.656 156.13C209.998 155.472 208.931 155.472 208.273 156.13L207.577 156.826C207.143 156.603 206.69 156.414 206.218 156.261V155.279C206.218 154.348 205.464 153.594 204.533 153.594H202.186C201.255 153.594 200.501 154.348 200.501 155.279V156.261C200.03 156.414 199.576 156.603 199.141 156.826L198.446 156.13C197.788 155.472 196.721 155.472 196.063 156.13L194.404 157.789C193.745 158.448 193.745 159.514 194.404 160.172L195.099 160.868C194.877 161.303 194.687 161.757 194.535 162.227H193.552C192.622 162.227 191.867 162.982 191.867 163.912V166.26C191.867 167.19 192.622 167.945 193.552 167.945H194.535C194.687 168.415 194.877 168.869 195.099 169.304L194.404 170C193.745 170.658 193.745 171.724 194.404 172.383L196.063 174.043C196.721 174.7 197.788 174.7 198.446 174.043L199.141 173.347C199.576 173.57 200.03 173.759 200.501 173.911V174.894C200.501 175.825 201.255 176.579 202.186 176.579H204.533C205.464 176.579 206.218 175.825 206.218 174.894V173.911C206.689 173.759 207.143 173.57 207.577 173.347L208.273 174.043C208.931 174.7 209.998 174.7 210.656 174.043L212.316 172.383C212.974 171.724 212.974 170.658 212.316 170L211.62 169.304C211.842 168.869 212.032 168.416 212.185 167.945H213.167C214.098 167.945 214.852 167.19 214.852 166.26V163.912C214.852 162.981 214.098 162.227 213.167 162.227ZM203.361 170.981C200.105 170.981 197.465 168.341 197.465 165.085C197.465 161.828 200.104 159.189 203.361 159.189C206.617 159.189 209.256 161.828 209.256 165.085C209.256 168.341 206.616 170.981 203.361 170.981Z" fill="#C9B5A9"/>
<path d="M48.6405 104.969L47.346 104.479C47.3804 103.782 47.3567 103.09 47.2812 102.406L48.5452 101.836C49.7405 101.298 50.273 99.8927 49.7344 98.6974L48.3758 95.6827C47.8373 94.4874 46.4322 93.9549 45.2368 94.4935L43.9728 95.0633C43.5113 94.5537 43.0079 94.0777 42.464 93.6414L42.9545 92.3469C43.419 91.121 42.8011 89.7502 41.5753 89.2864L38.4828 88.1155C37.257 87.651 35.8869 88.2688 35.4224 89.4947L34.9319 90.7892C34.2354 90.7549 33.5428 90.7785 32.8593 90.854L32.2895 89.5901C31.7509 88.3947 30.3451 87.8623 29.1505 88.4008L26.1358 89.7594C24.9405 90.298 24.408 91.7031 24.9466 92.8984L25.5164 94.1624C25.0069 94.6239 24.5301 95.1274 24.0945 95.6713L22.8 95.1808C21.5742 94.7162 20.2041 95.3341 19.7396 96.5599L18.5686 99.6524C18.1041 100.878 18.722 102.249 19.9478 102.713L21.2423 103.203C21.208 103.9 21.2317 104.592 21.3072 105.276L20.0432 105.846C18.8478 106.384 18.3154 107.789 18.8539 108.985L20.2125 111.999C20.7511 113.195 22.1562 113.727 23.3515 113.189L24.6155 112.619C25.077 113.128 25.5805 113.605 26.1244 114.041L25.6339 115.335C25.1693 116.561 25.7872 117.931 27.0131 118.396L30.1055 119.567C31.3314 120.031 32.7014 119.413 33.166 118.187L33.6565 116.893C34.3529 116.927 35.0456 116.904 35.729 116.828L36.2989 118.092C36.8374 119.287 38.2425 119.82 39.4379 119.281L42.4525 117.923C43.6479 117.384 44.1803 115.979 43.6418 114.784L43.0719 113.52C43.5815 113.058 44.0583 112.555 44.4938 112.011L45.7883 112.501C47.0142 112.966 48.3842 112.348 48.8488 111.122L50.0197 108.03C50.4835 106.804 49.8664 105.433 48.6405 104.969ZM31.3512 111.609C27.0611 109.984 24.9008 105.189 26.5256 100.899C28.1504 96.6088 32.9455 94.4484 37.2356 96.0733C41.5257 97.6981 43.686 102.493 42.0612 106.783C40.4364 111.073 35.6413 113.234 31.3512 111.609Z" fill="#C9B5A9"/>
<path d="M62.9372 47.7173L56.75 60.8385L70.0345 97.8337L104.804 85.3487L88.0531 38.6992L62.9372 47.7173Z" fill="#E4D6CC"/>
<path d="M66.4042 57.371L62.9372 47.7168L56.75 60.8381L66.4042 57.371Z" fill="#F4E8D8"/>
<path d="M82.5701 67.0009C83.4291 65.1465 84.2849 63.2906 85.1408 61.4346C85.645 60.3415 85.1935 58.8594 84.0424 58.3757C82.9027 57.8967 81.5212 58.3079 80.9835 59.4742C80.0986 61.3111 79.2129 63.1472 78.3311 64.9848C76.4943 64.1182 74.6536 63.2586 72.8022 62.4202C71.7083 61.8839 70.1896 62.3859 69.7082 63.5316C69.2139 64.7079 69.6525 66.0535 70.8196 66.6256C72.639 67.5181 74.4682 68.3893 76.3013 69.2528C75.437 71.0843 74.5803 72.9189 73.7451 74.7642C73.208 75.858 73.7107 77.3768 74.8557 77.8582C76.032 78.3525 77.3776 77.9138 77.9497 76.7475C78.8445 74.9236 79.7172 73.0905 80.583 71.2544C82.4313 72.1111 84.2819 72.9639 86.1325 73.8175C87.2256 74.3217 88.7078 73.8701 89.1914 72.719C89.6705 71.5786 89.2593 70.1979 88.0929 69.6601C86.2515 68.7722 84.4116 67.8851 82.5701 67.0009Z" fill="#C85F64"/>
<path d="M135.64 23.0137L124.058 27.7424L110.926 58.9936L140.297 71.3352L156.856 31.9287L135.64 23.0137Z" fill="#E4D6CC"/>
<path d="M132.214 31.169L135.64 23.0137L124.059 27.7424L132.214 31.169Z" fill="#F4E8D8"/>
<path d="M136.869 46.7158C138.496 46.0384 140.121 45.3588 141.748 44.6783C142.705 44.2779 143.283 43.0726 142.834 42.0939C142.389 41.1244 141.272 40.5805 140.25 41.0076C138.616 41.6583 136.983 42.309 135.352 42.962C134.689 41.3402 134.022 39.7208 133.335 38.1089C132.952 37.1302 131.695 36.5635 130.72 37.0105C129.72 37.4697 129.215 38.5804 129.622 39.6247C130.257 41.2525 130.912 42.8727 131.573 44.4899C129.955 45.1498 128.341 45.8157 126.734 46.5007C125.755 46.8829 125.188 48.1408 125.635 49.1141C126.095 50.1142 127.205 50.6199 128.249 50.2126C129.881 49.5756 131.504 48.9196 133.125 48.2575C133.8 49.8792 134.478 51.5002 135.155 53.122C135.556 54.0793 136.761 54.6575 137.74 54.2082C138.709 53.7635 139.253 52.646 138.826 51.6238C138.175 49.9876 137.523 48.3506 136.869 46.7158Z" fill="#C85F64"/>
</svg>
