<svg width="213" height="218" viewBox="0 0 213 218" fill="none" xmlns="http://www.w3.org/2000/svg">
<path d="M73.9282 193.866C55.4717 186.68 39.8054 174.239 28.6259 157.888C17.4464 141.539 11.537 122.427 11.537 102.62V55.7094C11.537 54.1449 12.6003 52.803 14.1244 52.4461L41.4505 46.0405V22.689C41.4505 21.0244 42.6935 19.5969 44.3435 19.3683L106.501 10.7713V0L42.8829 8.79988C35.9469 9.75931 30.7819 15.6882 30.7819 22.6902V37.5816L11.6898 42.0561C5.35022 43.5423 0.867188 49.1962 0.867188 55.7081V102.619C0.867188 147.386 28.3399 187.565 70.0563 203.808L106.501 218V206.549L73.9282 193.866Z" fill="#5AA0F1"/>
<path d="M201.31 42.0573L182.218 37.5828V22.689C182.218 15.687 177.053 9.75809 170.117 8.79866L106.5 0V10.7713L168.656 19.3683C170.306 19.5969 171.549 21.0232 171.549 22.689V46.0405L198.876 52.4461C200.4 52.803 201.463 54.1449 201.463 55.7094V102.62C201.463 122.427 195.554 141.539 184.374 157.888C173.195 174.239 157.531 186.68 139.073 193.866L106.5 206.549V218L142.944 203.809C184.66 187.566 212.133 147.387 212.133 102.62V55.7094C212.133 49.1974 207.65 43.5423 201.31 42.0573Z" fill="#4D89E2"/>
<path d="M41.4526 22.689V46.0404L14.1265 52.446C12.6036 52.8029 11.5391 54.1449 11.5391 55.7093V102.62C11.5391 122.427 17.4484 141.539 28.6279 157.888C39.8075 174.239 55.4725 186.68 73.9302 193.866L106.502 206.549V200.824V16.1563V10.7712L44.3455 19.3682C42.6956 19.5968 41.4526 21.0243 41.4526 22.689Z" fill="#4D89E2"/>
<path d="M106.5 200.824V206.549L139.074 193.866C157.531 186.68 173.196 174.239 184.375 157.888C195.555 141.539 201.464 122.427 201.464 102.62V55.7093C201.464 54.1449 200.401 52.8029 198.877 52.446L171.551 46.0404V22.689C171.551 21.0243 170.308 19.5968 168.658 19.3682L106.5 10.7712V16.1563V200.824Z" fill="#3A66B4"/>
<path d="M152.915 94.8114H60.0859V156.698H152.915V94.8114Z" fill="#D6F7EE"/>
<path d="M83.5591 85.5765H71.8223V94.8115H83.5591V85.5765Z" fill="#9DD3E4"/>
<path d="M139.577 85.5765H127.84V94.8115H139.577V85.5765Z" fill="#9DD3E4"/>
<path d="M139.576 76.4051C139.576 57.7249 124.38 42.528 105.699 42.528C87.0192 42.528 71.8223 57.7261 71.8223 76.4051V85.5765H83.5591V76.4051C83.5591 64.1977 93.4907 54.2648 105.699 54.2648C117.907 54.2648 127.84 64.1964 127.84 76.4051V85.5765H139.576V76.4051Z" fill="#D6F7EE"/>
<path d="M114.521 117.574C114.521 113.145 110.93 109.552 106.5 109.552C102.069 109.552 98.4785 113.143 98.4785 117.574C98.4785 120.395 99.9378 122.871 102.14 124.301L98.4785 141.954H114.52L110.858 124.301C113.061 122.871 114.521 120.395 114.521 117.574Z" fill="#252735"/>
</svg>
