<svg width="1920" height="800" viewBox="0 0 1920 800" fill="none" xmlns="http://www.w3.org/2000/svg">
<g clip-path="url(#clip0_3241_1990)">
<rect width="1920" height="800" fill="black"/>
<g opacity="0.13" filter="url(#filter0_f_3241_1990)">
<path d="M1453.4 133.315C1416.58 133.315 1386.74 103.472 1386.74 66.6576C1386.74 29.8432 1416.58 0 1453.4 0C1490.21 0 1520.05 29.8432 1520.05 66.6576C1520.05 103.472 1490.21 133.315 1453.4 133.315Z" fill="#DC5354"/>
<path d="M1453.4 96.421C1436.96 96.421 1423.63 83.0946 1423.63 66.6577C1423.63 50.2193 1436.96 36.8945 1453.4 36.8945C1469.83 36.8945 1483.16 50.2193 1483.16 66.6577C1483.16 83.0962 1469.83 96.421 1453.4 96.421Z" fill="#FBD15B"/>
<path d="M1653.37 0H1520.05V133.315H1653.37V0Z" fill="#0A335B"/>
<path d="M1386.74 133.315H1253.42C1253.42 59.6864 1313.11 0 1386.74 0V133.315Z" fill="#E9E5D9"/>
<path d="M1653.37 133.315V0H1786.69C1786.68 73.6272 1727 133.315 1653.37 133.315Z" fill="#DC5354"/>
<path d="M1920 133.315C1846.37 133.315 1786.68 73.6288 1786.68 0H1920V133.315Z" fill="#E9E5D9"/>
<path d="M1386.74 266.628C1313.11 266.628 1253.42 206.941 1253.42 133.312H1386.74V266.628Z" fill="#DC5354"/>
<path d="M1386.74 209.12C1344.87 209.12 1310.94 175.18 1310.94 133.316H1386.74V209.12Z" fill="#FBD15B"/>
<path d="M1520.05 133.316H1386.74V266.632H1520.05V133.316Z" fill="#0A335B"/>
<path d="M1481.93 171.441H1424.87V228.501H1481.93V171.441Z" fill="#E9E5D9"/>
<path d="M1653.37 133.316H1520.05V266.632H1653.37V133.316Z" fill="#E9E5D9"/>
<path d="M1653.37 266.628H1520.05C1520.05 193.001 1579.74 133.312 1653.37 133.312V266.628Z" fill="#DC5354"/>
<path d="M1920 266.628H1786.68C1786.68 193.001 1846.37 133.312 1920 133.312V266.628Z" fill="#DC5354"/>
<path d="M1786.68 266.63H1653.37V133.316C1727 133.316 1786.68 193.003 1786.68 266.63Z" fill="#FBD15B"/>
<path d="M1520.05 266.629H1386.74V399.944H1520.05V266.629Z" fill="#FBD15B"/>
<path d="M1653.37 266.629H1520.05V399.944H1653.37V266.629Z" fill="#F9FBFC"/>
<path d="M1320.08 399.944C1283.27 399.944 1253.42 370.101 1253.42 333.287C1253.42 296.472 1283.27 266.629 1320.08 266.629C1356.9 266.629 1386.74 296.472 1386.74 333.287C1386.74 370.101 1356.9 399.944 1320.08 399.944Z" fill="#0A335B"/>
<path d="M1320.08 363.029C1303.65 363.029 1290.34 349.712 1290.34 333.285C1290.34 316.858 1303.65 303.541 1320.08 303.541C1336.51 303.541 1349.82 316.858 1349.82 333.285C1349.82 349.712 1336.51 363.029 1320.08 363.029Z" fill="#DC5354"/>
<path d="M1786.69 266.629H1653.37V399.944H1786.69V266.629Z" fill="#F9FBFC"/>
<path d="M1653.37 399.944C1579.74 399.944 1520.05 340.258 1520.05 266.629H1653.37V399.944Z" fill="#0A335B"/>
<path d="M1653.37 399.944V266.629H1786.69C1786.68 340.258 1727 399.944 1653.37 399.944Z" fill="#DC5354"/>
<path d="M1653.37 266.629H1587.36C1587.36 230.173 1616.91 200.619 1653.37 200.619V266.629Z" fill="#F9FBFC"/>
<path d="M1719.38 266.629H1653.37V200.619C1689.82 200.621 1719.38 230.174 1719.38 266.629Z" fill="#DC5354"/>
<path d="M1653.37 332.639C1616.91 332.639 1587.36 303.085 1587.36 266.629H1653.37V332.639Z" fill="#FBD15B"/>
<path d="M1653.37 332.639V266.629H1719.38C1719.38 303.085 1689.83 332.639 1653.37 332.639Z" fill="#0A335B"/>
<path d="M1920 399.944H1786.68V266.629C1860.31 266.629 1920 326.317 1920 399.944Z" fill="#0A335B"/>
<path d="M1386.74 533.259C1313.11 533.259 1253.42 473.572 1253.42 399.943H1386.74V533.259Z" fill="#E9E5D9"/>
<path d="M1520.05 399.943H1386.74V533.259H1520.05V399.943Z" fill="#0A335B"/>
<path d="M1520.05 533.259H1386.74L1520.05 399.943V533.259Z" fill="#0A335B"/>
<path d="M1653.37 533.259H1520.05V399.943C1593.68 399.943 1653.37 459.631 1653.37 533.259Z" fill="#DC5354"/>
<path d="M1920 533.259H1786.68V399.943C1860.31 399.943 1920 459.631 1920 533.259Z" fill="#FBD15B"/>
<path d="M1786.68 533.259H1653.37C1653.37 459.631 1713.05 399.943 1786.68 399.943V533.259Z" fill="#0A335B"/>
<path d="M1786.68 533.259H1653.37C1653.37 459.631 1713.05 399.943 1786.68 399.943V533.259Z" fill="#0A335B"/>
<path d="M1870.42 533.258H1786.68V449.525C1832.93 449.525 1870.42 487.013 1870.42 533.258Z" fill="#E9E5D9"/>
<path d="M1786.68 533.258H1702.95C1702.95 487.013 1740.44 449.525 1786.68 449.525V533.258Z" fill="#DC5354"/>
<path d="M1386.74 666.576C1313.11 666.576 1253.42 726.263 1253.42 799.891H1386.74V666.576Z" fill="#DC5354"/>
<path d="M1386.74 666.576V799.891H1520.05C1520.05 726.263 1460.37 666.576 1386.74 666.576Z" fill="#FBD15B"/>
<path d="M1386.74 722.854C1344.19 722.854 1309.7 757.345 1309.7 799.892H1386.74V722.854Z" fill="#E9E5D9"/>
<path d="M1386.74 722.854V799.892H1463.78C1463.78 757.345 1429.29 722.854 1386.74 722.854Z" fill="#F9FBFC"/>
<path d="M1520.05 666.576C1520.05 740.203 1579.74 799.891 1653.37 799.891C1653.37 726.263 1593.68 666.576 1520.05 666.576Z" fill="#0A335B"/>
<path d="M1920 666.576H1786.68V799.891H1920V666.576Z" fill="#0A335B"/>
<path d="M1786.68 666.576C1713.06 666.576 1653.37 726.263 1653.37 799.891H1786.68V666.576Z" fill="#DC5354"/>
<path d="M1386.74 533.26C1386.74 606.887 1446.42 666.575 1520.05 666.575C1520.05 592.946 1460.37 533.26 1386.74 533.26Z" fill="#DC5354"/>
<path d="M1653.37 533.26C1579.74 533.26 1520.05 592.946 1520.05 666.575C1593.68 666.575 1653.37 606.887 1653.37 533.26Z" fill="#FBD15B"/>
<path d="M1786.69 533.26H1653.37V666.575H1786.69V533.26Z" fill="#F9FBFC"/>
<path d="M1753.36 533.26C1734.95 533.26 1720.03 548.181 1720.03 566.588C1720.03 584.994 1734.95 599.916 1753.36 599.916C1771.76 599.916 1786.68 584.994 1786.68 566.588C1786.68 548.181 1771.76 533.26 1753.36 533.26Z" fill="#FBD15B"/>
<path d="M1753.35 558.701C1749 558.701 1745.47 562.232 1745.47 566.589C1745.47 570.946 1749 574.477 1753.35 574.477C1757.71 574.477 1761.24 570.946 1761.24 566.589C1761.24 562.232 1757.71 558.701 1753.35 558.701Z" fill="#F9FBFC"/>
<path d="M1686.7 533.26C1668.29 533.26 1653.37 548.181 1653.37 566.588C1653.37 584.994 1668.29 599.916 1686.7 599.916C1705.1 599.916 1720.02 584.994 1720.02 566.588C1720.02 548.181 1705.1 533.26 1686.7 533.26Z" fill="#E9E5D9"/>
<path d="M1686.7 558.701C1682.34 558.701 1678.81 562.232 1678.81 566.589C1678.81 570.946 1682.34 574.477 1686.7 574.477C1691.06 574.477 1694.59 570.946 1694.59 566.589C1694.59 562.232 1691.06 558.701 1686.7 558.701Z" fill="#0A335B"/>
<path d="M1753.36 599.916C1734.95 599.916 1720.03 614.838 1720.03 633.244C1720.03 651.65 1734.95 666.572 1753.36 666.572C1771.76 666.572 1786.68 651.65 1786.68 633.244C1786.68 614.838 1771.76 599.916 1753.36 599.916Z" fill="#0A335B"/>
<path d="M1753.35 625.359C1749 625.359 1745.47 628.891 1745.47 633.247C1745.47 637.604 1749 641.135 1753.35 641.135C1757.71 641.135 1761.24 637.604 1761.24 633.247C1761.24 628.891 1757.71 625.359 1753.35 625.359Z" fill="#FBD15B"/>
<path d="M1686.7 599.916C1668.29 599.916 1653.37 614.838 1653.37 633.244C1653.37 651.65 1668.29 666.572 1686.7 666.572C1705.1 666.572 1720.02 651.65 1720.02 633.244C1720.02 614.838 1705.1 599.916 1686.7 599.916Z" fill="#DC5354"/>
<path d="M1686.7 625.359C1682.34 625.359 1678.81 628.891 1678.81 633.247C1678.81 637.604 1682.34 641.135 1686.7 641.135C1691.06 641.135 1694.59 637.604 1694.59 633.247C1694.59 628.891 1691.06 625.359 1686.7 625.359Z" fill="#E9E5D9"/>
<path d="M1920 533.26H1786.68V666.575H1920V533.26Z" fill="#DC5354"/>
<path d="M1881.74 571.521H1824.95V628.312H1881.74V571.521Z" fill="#0A335B"/>
<path d="M1805.01 714.466C1806.71 714.466 1808.37 713.776 1809.57 712.575C1810.78 711.372 1811.47 709.709 1811.47 708.008C1811.47 706.308 1810.78 704.645 1809.57 703.442C1808.37 702.24 1806.71 701.551 1805.01 701.551C1803.31 701.551 1801.64 702.24 1800.44 703.442C1799.24 704.645 1798.55 706.308 1798.55 708.008C1798.55 709.709 1799.24 711.372 1800.44 712.575C1801.65 713.778 1803.31 714.466 1805.01 714.466Z" fill="#FBD15B"/>
<path d="M1871.59 714.466H1871.62C1875.19 714.466 1878.08 711.575 1878.08 708.008C1878.08 704.442 1875.19 701.551 1871.62 701.551H1871.59C1868.02 701.551 1865.13 704.442 1865.13 708.008C1865.13 711.575 1868.02 714.466 1871.59 714.466Z" fill="#FBD15B"/>
<path d="M1838.29 714.466H1838.32C1841.89 714.466 1844.78 711.575 1844.78 708.008C1844.78 704.442 1841.89 701.551 1838.32 701.551H1838.29C1834.73 701.551 1831.83 704.442 1831.83 708.008C1831.83 711.575 1834.72 714.466 1838.29 714.466Z" fill="#FBD15B"/>
<path d="M1904.9 714.466C1906.6 714.466 1908.26 713.776 1909.47 712.575C1910.67 711.372 1911.36 709.709 1911.36 708.008C1911.36 706.308 1910.67 704.645 1909.47 703.442C1908.26 702.24 1906.6 701.551 1904.9 701.551C1903.2 701.551 1901.54 702.24 1900.33 703.442C1899.13 704.645 1898.44 706.308 1898.44 708.008C1898.44 709.709 1899.13 711.372 1900.33 712.575C1901.54 713.778 1903.2 714.466 1904.9 714.466Z" fill="#FBD15B"/>
<path d="M1805.01 687.941C1806.71 687.941 1808.37 687.251 1809.57 686.049C1810.78 684.848 1811.47 683.184 1811.47 681.483C1811.47 679.782 1810.78 678.118 1809.57 676.917C1808.37 675.713 1806.71 675.025 1805.01 675.025C1803.31 675.025 1801.64 675.713 1800.44 676.917C1799.24 678.12 1798.55 679.782 1798.55 681.483C1798.55 683.182 1799.24 684.846 1800.44 686.049C1801.65 687.253 1803.31 687.941 1805.01 687.941Z" fill="#FBD15B"/>
<path d="M1871.59 687.941H1871.62C1875.19 687.941 1878.08 685.049 1878.08 681.483C1878.08 677.917 1875.19 675.025 1871.62 675.025H1871.59C1868.02 675.025 1865.13 677.917 1865.13 681.483C1865.13 685.049 1868.02 687.941 1871.59 687.941Z" fill="#FBD15B"/>
<path d="M1838.29 687.941H1838.32C1841.89 687.941 1844.78 685.049 1844.78 681.483C1844.78 677.917 1841.89 675.025 1838.32 675.025H1838.29C1834.73 675.025 1831.83 677.917 1831.83 681.483C1831.83 685.049 1834.72 687.941 1838.29 687.941Z" fill="#FBD15B"/>
<path d="M1904.9 687.941C1906.6 687.941 1908.26 687.251 1909.47 686.049C1910.67 684.848 1911.36 683.184 1911.36 681.483C1911.36 679.782 1910.67 678.118 1909.47 676.917C1908.26 675.713 1906.6 675.025 1904.9 675.025C1903.2 675.025 1901.54 675.713 1900.33 676.917C1899.13 678.12 1898.44 679.782 1898.44 681.483C1898.44 683.182 1899.13 684.846 1900.33 686.049C1901.54 687.253 1903.2 687.941 1904.9 687.941Z" fill="#FBD15B"/>
<path d="M1805.01 740.993C1806.71 740.993 1808.37 740.304 1809.57 739.102C1810.78 737.899 1811.47 736.236 1811.47 734.536C1811.47 732.835 1810.78 731.171 1809.57 729.969C1808.37 728.766 1806.71 728.078 1805.01 728.078C1803.31 728.078 1801.64 728.766 1800.44 729.969C1799.24 731.172 1798.55 732.835 1798.55 734.536C1798.55 736.236 1799.24 737.899 1800.44 739.102C1801.65 740.304 1803.31 740.993 1805.01 740.993Z" fill="#FBD15B"/>
<path d="M1871.59 740.993H1871.62C1875.19 740.993 1878.08 738.102 1878.08 734.536C1878.08 730.969 1875.19 728.078 1871.62 728.078H1871.59C1868.02 728.078 1865.13 730.969 1865.13 734.536C1865.13 738.102 1868.02 740.993 1871.59 740.993Z" fill="#FBD15B"/>
<path d="M1838.29 740.993H1838.32C1841.89 740.993 1844.78 738.102 1844.78 734.536C1844.78 730.969 1841.89 728.078 1838.32 728.078H1838.29C1834.73 728.078 1831.83 730.969 1831.83 734.536C1831.83 738.102 1834.72 740.993 1838.29 740.993Z" fill="#FBD15B"/>
<path d="M1904.9 740.993C1906.6 740.993 1908.26 740.304 1909.47 739.102C1910.67 737.899 1911.36 736.236 1911.36 734.536C1911.36 732.835 1910.67 731.171 1909.47 729.969C1908.26 728.766 1906.6 728.078 1904.9 728.078C1903.2 728.078 1901.54 728.766 1900.33 729.969C1899.13 731.172 1898.44 732.835 1898.44 734.536C1898.44 736.236 1899.13 737.899 1900.33 739.102C1901.54 740.304 1903.2 740.993 1904.9 740.993Z" fill="#FBD15B"/>
<path d="M1805.01 767.519C1806.71 767.519 1808.37 766.829 1809.57 765.628C1810.78 764.424 1811.47 762.762 1811.47 761.061C1811.47 759.36 1810.78 757.696 1809.57 756.495C1808.37 755.293 1806.71 754.604 1805.01 754.604C1803.31 754.604 1801.64 755.292 1800.44 756.495C1799.24 757.698 1798.55 759.36 1798.55 761.061C1798.55 762.762 1799.24 764.424 1800.44 765.628C1801.65 766.829 1803.31 767.519 1805.01 767.519Z" fill="#FBD15B"/>
<path d="M1871.59 767.519H1871.62C1875.19 767.519 1878.08 764.628 1878.08 761.061C1878.08 757.495 1875.19 754.604 1871.62 754.604H1871.59C1868.02 754.604 1865.13 757.495 1865.13 761.061C1865.13 764.626 1868.02 767.519 1871.59 767.519Z" fill="#FBD15B"/>
<path d="M1838.29 767.519H1838.32C1841.89 767.519 1844.78 764.628 1844.78 761.061C1844.78 757.495 1841.89 754.604 1838.32 754.604H1838.29C1834.73 754.604 1831.83 757.495 1831.83 761.061C1831.83 764.626 1834.72 767.519 1838.29 767.519Z" fill="#FBD15B"/>
<path d="M1904.9 767.519C1906.6 767.519 1908.26 766.829 1909.47 765.628C1910.67 764.424 1911.36 762.762 1911.36 761.061C1911.36 759.36 1910.67 757.696 1909.47 756.495C1908.26 755.293 1906.6 754.604 1904.9 754.604C1903.2 754.604 1901.54 755.292 1900.33 756.495C1899.13 757.698 1898.44 759.36 1898.44 761.061C1898.44 762.762 1899.13 764.424 1900.33 765.628C1901.54 766.829 1903.2 767.519 1904.9 767.519Z" fill="#FBD15B"/>
<path d="M1805.01 794.046C1806.71 794.046 1808.37 793.358 1809.57 792.155C1810.78 790.953 1811.47 789.289 1811.47 787.588C1811.47 785.888 1810.78 784.224 1809.57 783.022C1808.37 781.819 1806.71 781.131 1805.01 781.131C1803.31 781.131 1801.64 781.82 1800.44 783.022C1799.24 784.224 1798.55 785.888 1798.55 787.588C1798.55 789.289 1799.24 790.952 1800.44 792.155C1801.65 793.356 1803.31 794.046 1805.01 794.046Z" fill="#FBD15B"/>
<path d="M1871.59 794.046H1871.62C1875.19 794.046 1878.08 791.155 1878.08 787.588C1878.08 784.022 1875.19 781.131 1871.62 781.131H1871.59C1868.02 781.131 1865.13 784.022 1865.13 787.588C1865.13 791.155 1868.02 794.046 1871.59 794.046Z" fill="#FBD15B"/>
<path d="M1838.29 794.046H1838.32C1841.89 794.046 1844.78 791.155 1844.78 787.588C1844.78 784.022 1841.89 781.131 1838.32 781.131H1838.29C1834.73 781.131 1831.83 784.022 1831.83 787.588C1831.83 791.155 1834.72 794.046 1838.29 794.046Z" fill="#FBD15B"/>
<path d="M1904.9 794.046C1906.6 794.046 1908.26 793.358 1909.47 792.155C1910.67 790.953 1911.36 789.289 1911.36 787.588C1911.36 785.888 1910.67 784.224 1909.47 783.022C1908.26 781.819 1906.6 781.131 1904.9 781.131C1903.2 781.131 1901.54 781.82 1900.33 783.022C1899.13 784.224 1898.44 785.888 1898.44 787.588C1898.44 789.289 1899.13 790.952 1900.33 792.155C1901.54 793.356 1903.2 794.046 1904.9 794.046Z" fill="#FBD15B"/>
<path d="M1403.36 314.624C1405.06 314.624 1406.73 313.936 1407.93 312.733C1409.13 311.531 1409.82 309.867 1409.82 308.167C1409.82 306.466 1409.13 304.803 1407.93 303.6C1406.73 302.397 1405.06 301.709 1403.36 301.709C1401.66 301.709 1400 302.399 1398.8 303.6C1397.59 304.802 1396.9 306.466 1396.9 308.167C1396.9 309.867 1397.59 311.53 1398.8 312.733C1400 313.936 1401.66 314.624 1403.36 314.624Z" fill="#F9FBFC"/>
<path d="M1469.94 314.624H1469.98C1473.54 314.624 1476.43 311.733 1476.43 308.167C1476.43 304.6 1473.54 301.709 1469.98 301.709H1469.94C1466.38 301.709 1463.49 304.6 1463.49 308.167C1463.49 311.733 1466.38 314.624 1469.94 314.624Z" fill="#F9FBFC"/>
<path d="M1436.65 314.624H1436.68C1440.25 314.624 1443.14 311.733 1443.14 308.167C1443.14 304.6 1440.25 301.709 1436.68 301.709H1436.65C1433.08 301.709 1430.19 304.6 1430.19 308.167C1430.19 311.733 1433.08 314.624 1436.65 314.624Z" fill="#F9FBFC"/>
<path d="M1503.26 314.624C1504.96 314.624 1506.62 313.936 1507.82 312.733C1509.02 311.531 1509.71 309.867 1509.71 308.167C1509.71 306.466 1509.02 304.803 1507.82 303.6C1506.62 302.397 1504.96 301.709 1503.26 301.709C1501.56 301.709 1499.89 302.399 1498.69 303.6C1497.49 304.802 1496.8 306.466 1496.8 308.167C1496.8 309.867 1497.49 311.53 1498.69 312.733C1499.89 313.936 1501.56 314.624 1503.26 314.624Z" fill="#F9FBFC"/>
<path d="M1403.36 288.099C1405.06 288.099 1406.73 287.409 1407.93 286.208C1409.13 285.004 1409.82 283.342 1409.82 281.641C1409.82 279.94 1409.13 278.276 1407.93 277.075C1406.73 275.873 1405.06 275.184 1403.36 275.184C1401.66 275.184 1400 275.872 1398.8 277.075C1397.59 278.278 1396.9 279.94 1396.9 281.641C1396.9 283.342 1397.59 285.004 1398.8 286.208C1400 287.411 1401.66 288.099 1403.36 288.099Z" fill="#F9FBFC"/>
<path d="M1469.94 288.099H1469.98C1473.54 288.099 1476.43 285.208 1476.43 281.641C1476.43 278.075 1473.54 275.184 1469.98 275.184H1469.94C1466.38 275.184 1463.49 278.075 1463.49 281.641C1463.49 285.208 1466.38 288.099 1469.94 288.099Z" fill="#F9FBFC"/>
<path d="M1436.65 288.099H1436.68C1440.25 288.099 1443.14 285.208 1443.14 281.641C1443.14 278.075 1440.25 275.184 1436.68 275.184H1436.65C1433.08 275.184 1430.19 278.075 1430.19 281.641C1430.19 285.208 1433.08 288.099 1436.65 288.099Z" fill="#F9FBFC"/>
<path d="M1503.26 288.099C1504.96 288.099 1506.62 287.409 1507.82 286.208C1509.02 285.004 1509.71 283.342 1509.71 281.641C1509.71 279.94 1509.02 278.276 1507.82 277.075C1506.62 275.873 1504.96 275.184 1503.26 275.184C1501.56 275.184 1499.89 275.872 1498.69 277.075C1497.49 278.278 1496.8 279.94 1496.8 281.641C1496.8 283.342 1497.49 285.004 1498.69 286.208C1499.89 287.411 1501.56 288.099 1503.26 288.099Z" fill="#F9FBFC"/>
<path d="M1403.36 341.153C1405.06 341.153 1406.73 340.464 1407.93 339.262C1409.13 338.059 1409.82 336.397 1409.82 334.696C1409.82 332.995 1409.13 331.331 1407.93 330.129C1406.73 328.926 1405.06 328.238 1403.36 328.238C1401.66 328.238 1400 328.926 1398.8 330.129C1397.59 331.333 1396.9 332.995 1396.9 334.696C1396.9 336.397 1397.59 338.059 1398.8 339.262C1400 340.464 1401.66 341.153 1403.36 341.153Z" fill="#F9FBFC"/>
<path d="M1469.94 341.153H1469.98C1473.54 341.153 1476.43 338.262 1476.43 334.696C1476.43 331.13 1473.54 328.238 1469.98 328.238H1469.94C1466.38 328.238 1463.49 331.13 1463.49 334.696C1463.49 338.262 1466.38 341.153 1469.94 341.153Z" fill="#F9FBFC"/>
<path d="M1436.65 341.153H1436.68C1440.25 341.153 1443.14 338.262 1443.14 334.696C1443.14 331.13 1440.25 328.238 1436.68 328.238H1436.65C1433.08 328.238 1430.19 331.13 1430.19 334.696C1430.19 338.262 1433.08 341.153 1436.65 341.153Z" fill="#F9FBFC"/>
<path d="M1503.26 341.153C1504.96 341.153 1506.62 340.464 1507.82 339.262C1509.02 338.059 1509.71 336.397 1509.71 334.696C1509.71 332.995 1509.02 331.331 1507.82 330.129C1506.62 328.926 1504.96 328.238 1503.26 328.238C1501.56 328.238 1499.89 328.926 1498.69 330.129C1497.49 331.333 1496.8 332.995 1496.8 334.696C1496.8 336.397 1497.49 338.059 1498.69 339.262C1499.89 340.464 1501.56 341.153 1503.26 341.153Z" fill="#F9FBFC"/>
<path d="M1403.36 367.677C1405.06 367.677 1406.73 366.987 1407.93 365.786C1409.13 364.583 1409.82 362.92 1409.82 361.219C1409.82 359.519 1409.13 357.855 1407.93 356.653C1406.73 355.451 1405.06 354.762 1403.36 354.762C1401.66 354.762 1400 355.45 1398.8 356.653C1397.59 357.856 1396.9 359.519 1396.9 361.219C1396.9 362.92 1397.59 364.583 1398.8 365.786C1400 366.987 1401.66 367.677 1403.36 367.677Z" fill="#F9FBFC"/>
<path d="M1469.94 367.677H1469.98C1473.54 367.677 1476.43 364.786 1476.43 361.219C1476.43 357.653 1473.54 354.762 1469.98 354.762H1469.94C1466.38 354.762 1463.49 357.653 1463.49 361.219C1463.49 364.784 1466.38 367.677 1469.94 367.677Z" fill="#F9FBFC"/>
<path d="M1436.65 367.677H1436.68C1440.25 367.677 1443.14 364.786 1443.14 361.219C1443.14 357.653 1440.25 354.762 1436.68 354.762H1436.65C1433.08 354.762 1430.19 357.653 1430.19 361.219C1430.19 364.784 1433.08 367.677 1436.65 367.677Z" fill="#F9FBFC"/>
<path d="M1503.26 367.677C1504.96 367.677 1506.62 366.987 1507.82 365.786C1509.02 364.583 1509.71 362.92 1509.71 361.219C1509.71 359.519 1509.02 357.855 1507.82 356.653C1506.62 355.451 1504.96 354.762 1503.26 354.762C1501.56 354.762 1499.89 355.45 1498.69 356.653C1497.49 357.856 1496.8 359.519 1496.8 361.219C1496.8 362.92 1497.49 364.583 1498.69 365.786C1499.89 366.987 1501.56 367.677 1503.26 367.677Z" fill="#F9FBFC"/>
<path d="M1403.36 394.202C1405.06 394.202 1406.73 393.514 1407.93 392.311C1409.13 391.11 1409.82 389.446 1409.82 387.745C1409.82 386.044 1409.13 384.38 1407.93 383.178C1406.73 381.975 1405.06 381.287 1403.36 381.287C1401.66 381.287 1400 381.977 1398.8 383.178C1397.59 384.38 1396.9 386.044 1396.9 387.745C1396.9 389.446 1397.59 391.108 1398.8 392.311C1400 393.514 1401.66 394.202 1403.36 394.202Z" fill="#F9FBFC"/>
<path d="M1469.94 394.202H1469.98C1473.54 394.202 1476.43 391.311 1476.43 387.745C1476.43 384.178 1473.54 381.287 1469.98 381.287H1469.94C1466.38 381.287 1463.49 384.178 1463.49 387.745C1463.49 391.311 1466.38 394.202 1469.94 394.202Z" fill="#F9FBFC"/>
<path d="M1436.65 394.202H1436.68C1440.25 394.202 1443.14 391.311 1443.14 387.745C1443.14 384.178 1440.25 381.287 1436.68 381.287H1436.65C1433.08 381.287 1430.19 384.178 1430.19 387.745C1430.19 391.311 1433.08 394.202 1436.65 394.202Z" fill="#F9FBFC"/>
<path d="M1503.26 394.202C1504.96 394.202 1506.62 393.514 1507.82 392.311C1509.02 391.11 1509.71 389.446 1509.71 387.745C1509.71 386.044 1509.02 384.38 1507.82 383.178C1506.62 381.975 1504.96 381.287 1503.26 381.287C1501.56 381.287 1499.89 381.977 1498.69 383.178C1497.49 384.38 1496.8 386.044 1496.8 387.745C1496.8 389.446 1497.49 391.108 1498.69 392.311C1499.89 393.514 1501.56 394.202 1503.26 394.202Z" fill="#F9FBFC"/>
<path d="M1207.72 272.769C1208.6 272.769 1209.46 272.412 1210.08 271.79C1210.7 271.167 1211.06 270.306 1211.06 269.426C1211.06 268.546 1210.7 267.686 1210.08 267.063C1209.46 266.441 1208.6 266.084 1207.72 266.084C1206.84 266.084 1205.98 266.441 1205.36 267.063C1204.73 267.686 1204.38 268.546 1204.38 269.426C1204.38 270.306 1204.73 271.167 1205.36 271.79C1205.98 272.414 1206.84 272.769 1207.72 272.769Z" fill="#DC5354"/>
<path d="M1207.72 259.04C1208.6 259.04 1209.46 258.683 1210.08 258.061C1210.7 257.439 1211.06 256.578 1211.06 255.698C1211.06 254.818 1210.7 253.957 1210.08 253.335C1209.46 252.712 1208.6 252.355 1207.72 252.355C1206.84 252.355 1205.98 252.712 1205.36 253.335C1204.73 253.957 1204.38 254.818 1204.38 255.698C1204.38 256.578 1204.73 257.439 1205.36 258.061C1205.98 258.683 1206.84 259.04 1207.72 259.04Z" fill="#DC5354"/>
<path d="M1138.22 272.769C1139.1 272.769 1139.96 272.412 1140.58 271.79C1141.21 271.167 1141.56 270.306 1141.56 269.426C1141.56 268.546 1141.21 267.686 1140.58 267.063C1139.96 266.441 1139.1 266.084 1138.22 266.084C1137.34 266.084 1136.48 266.441 1135.86 267.063C1135.24 267.686 1134.88 268.546 1134.88 269.426C1134.88 270.306 1135.24 271.167 1135.86 271.79C1136.48 272.414 1137.34 272.769 1138.22 272.769Z" fill="#DC5354"/>
<path d="M1172.68 272.769H1172.7C1174.54 272.769 1176.04 271.273 1176.04 269.426C1176.04 267.58 1174.54 266.084 1172.7 266.084H1172.68C1170.84 266.084 1169.34 267.58 1169.34 269.426C1169.34 271.273 1170.84 272.769 1172.68 272.769Z" fill="#DC5354"/>
<path d="M1155.45 272.769H1155.47C1157.31 272.769 1158.81 271.273 1158.81 269.426C1158.81 267.58 1157.31 266.084 1155.47 266.084H1155.45C1153.6 266.084 1152.11 267.58 1152.11 269.426C1152.11 271.273 1153.6 272.769 1155.45 272.769Z" fill="#DC5354"/>
<path d="M1189.92 272.769C1190.8 272.769 1191.67 272.412 1192.29 271.79C1192.91 271.167 1193.27 270.306 1193.27 269.426C1193.27 268.546 1192.91 267.686 1192.29 267.063C1191.67 266.441 1190.8 266.084 1189.92 266.084C1189.04 266.084 1188.18 266.441 1187.56 267.063C1186.94 267.686 1186.58 268.546 1186.58 269.426C1186.58 270.306 1186.94 271.167 1187.56 271.79C1188.18 272.414 1189.04 272.769 1189.92 272.769Z" fill="#DC5354"/>
<path d="M1138.22 259.04C1139.1 259.04 1139.96 258.683 1140.58 258.061C1141.21 257.439 1141.56 256.578 1141.56 255.698C1141.56 254.818 1141.21 253.957 1140.58 253.335C1139.96 252.712 1139.1 252.355 1138.22 252.355C1137.34 252.355 1136.48 252.712 1135.86 253.335C1135.24 253.957 1134.88 254.818 1134.88 255.698C1134.88 256.578 1135.24 257.439 1135.86 258.061C1136.48 258.683 1137.34 259.04 1138.22 259.04Z" fill="#DC5354"/>
<path d="M1172.68 259.04H1172.7C1174.54 259.04 1176.04 257.543 1176.04 255.698C1176.04 253.851 1174.54 252.355 1172.7 252.355H1172.68C1170.84 252.355 1169.34 253.851 1169.34 255.698C1169.34 257.543 1170.84 259.04 1172.68 259.04Z" fill="#DC5354"/>
<path d="M1155.45 259.04H1155.47C1157.31 259.04 1158.81 257.543 1158.81 255.698C1158.81 253.851 1157.31 252.355 1155.47 252.355H1155.45C1153.6 252.355 1152.11 253.851 1152.11 255.698C1152.11 257.543 1153.6 259.04 1155.45 259.04Z" fill="#DC5354"/>
<path d="M1189.92 259.04C1190.8 259.04 1191.67 258.683 1192.29 258.061C1192.91 257.439 1193.27 256.578 1193.27 255.698C1193.27 254.818 1192.91 253.957 1192.29 253.335C1191.67 252.712 1190.8 252.355 1189.92 252.355C1189.04 252.355 1188.18 252.712 1187.56 253.335C1186.94 253.957 1186.58 254.818 1186.58 255.698C1186.58 256.578 1186.94 257.439 1187.56 258.061C1188.18 258.683 1189.04 259.04 1189.92 259.04Z" fill="#DC5354"/>
<path d="M1068.1 272.769C1068.98 272.769 1069.84 272.412 1070.46 271.79C1071.09 271.167 1071.44 270.306 1071.44 269.426C1071.44 268.546 1071.09 267.686 1070.46 267.063C1069.84 266.441 1068.98 266.084 1068.1 266.084C1067.22 266.084 1066.36 266.441 1065.74 267.063C1065.11 267.686 1064.76 268.546 1064.76 269.426C1064.76 270.306 1065.11 271.167 1065.74 271.79C1066.36 272.414 1067.22 272.769 1068.1 272.769Z" fill="#DC5354"/>
<path d="M1102.56 272.769H1102.58C1104.42 272.769 1105.92 271.273 1105.92 269.426C1105.92 267.58 1104.42 266.084 1102.58 266.084H1102.56C1100.71 266.084 1099.22 267.58 1099.22 269.426C1099.22 271.273 1100.71 272.769 1102.56 272.769Z" fill="#DC5354"/>
<path d="M1085.32 272.769H1085.34C1087.19 272.769 1088.68 271.273 1088.68 269.426C1088.68 267.58 1087.19 266.084 1085.34 266.084H1085.32C1083.48 266.084 1081.98 267.58 1081.98 269.426C1081.98 271.273 1083.48 272.769 1085.32 272.769Z" fill="#DC5354"/>
<path d="M1119.8 272.769C1120.68 272.769 1121.54 272.412 1122.17 271.79C1122.79 271.167 1123.15 270.306 1123.15 269.426C1123.15 268.546 1122.79 267.686 1122.17 267.063C1121.54 266.441 1120.68 266.084 1119.8 266.084C1118.92 266.084 1118.06 266.441 1117.44 267.063C1116.82 267.686 1116.46 268.546 1116.46 269.426C1116.46 270.306 1116.82 271.167 1117.44 271.79C1118.06 272.414 1118.92 272.769 1119.8 272.769Z" fill="#DC5354"/>
<path d="M1068.1 259.04C1068.98 259.04 1069.84 258.683 1070.46 258.061C1071.09 257.439 1071.44 256.578 1071.44 255.698C1071.44 254.818 1071.09 253.957 1070.46 253.335C1069.84 252.712 1068.98 252.355 1068.1 252.355C1067.22 252.355 1066.36 252.712 1065.74 253.335C1065.11 253.957 1064.76 254.818 1064.76 255.698C1064.76 256.578 1065.11 257.439 1065.74 258.061C1066.36 258.683 1067.22 259.04 1068.1 259.04Z" fill="#DC5354"/>
<path d="M1102.56 259.04H1102.58C1104.42 259.04 1105.92 257.543 1105.92 255.698C1105.92 253.851 1104.42 252.355 1102.58 252.355H1102.56C1100.71 252.355 1099.22 253.851 1099.22 255.698C1099.22 257.543 1100.71 259.04 1102.56 259.04Z" fill="#DC5354"/>
<path d="M1085.32 259.04H1085.34C1087.19 259.04 1088.68 257.543 1088.68 255.698C1088.68 253.851 1087.19 252.355 1085.34 252.355H1085.32C1083.48 252.355 1081.98 253.851 1081.98 255.698C1081.98 257.543 1083.48 259.04 1085.32 259.04Z" fill="#DC5354"/>
<path d="M1119.8 259.04C1120.68 259.04 1121.54 258.683 1122.17 258.061C1122.79 257.439 1123.15 256.578 1123.15 255.698C1123.15 254.818 1122.79 253.957 1122.17 253.335C1121.54 252.712 1120.68 252.355 1119.8 252.355C1118.92 252.355 1118.06 252.712 1117.44 253.335C1116.82 253.957 1116.46 254.818 1116.46 255.698C1116.46 256.578 1116.82 257.439 1117.44 258.061C1118.06 258.683 1118.92 259.04 1119.8 259.04Z" fill="#DC5354"/>
<path d="M998.602 272.769C999.482 272.769 1000.34 272.412 1000.97 271.79C1001.59 271.167 1001.94 270.306 1001.94 269.426C1001.94 268.546 1001.59 267.686 1000.97 267.063C1000.34 266.441 999.482 266.084 998.602 266.084C997.722 266.084 996.861 266.441 996.239 267.063C995.617 267.686 995.26 268.546 995.26 269.426C995.26 270.306 995.617 271.167 996.239 271.79C996.861 272.414 997.722 272.769 998.602 272.769Z" fill="#DC5354"/>
<path d="M1033.06 272.769H1033.08C1034.93 272.769 1036.42 271.273 1036.42 269.426C1036.42 267.58 1034.93 266.084 1033.08 266.084H1033.06C1031.22 266.084 1029.72 267.58 1029.72 269.426C1029.72 271.273 1031.22 272.769 1033.06 272.769Z" fill="#DC5354"/>
<path d="M1015.83 272.769H1015.85C1017.69 272.769 1019.19 271.273 1019.19 269.426C1019.19 267.58 1017.69 266.084 1015.85 266.084H1015.83C1013.98 266.084 1012.49 267.58 1012.49 269.426C1012.49 271.273 1013.98 272.769 1015.83 272.769Z" fill="#DC5354"/>
<path d="M1050.31 272.769C1051.19 272.769 1052.05 272.412 1052.67 271.79C1053.29 271.167 1053.65 270.306 1053.65 269.426C1053.65 268.546 1053.29 267.686 1052.67 267.063C1052.05 266.441 1051.19 266.084 1050.31 266.084C1049.43 266.084 1048.56 266.441 1047.94 267.063C1047.32 267.686 1046.96 268.546 1046.96 269.426C1046.96 270.306 1047.32 271.167 1047.94 271.79C1048.56 272.414 1049.43 272.769 1050.31 272.769Z" fill="#DC5354"/>
<path d="M998.602 259.04C999.482 259.04 1000.34 258.683 1000.97 258.061C1001.59 257.439 1001.94 256.578 1001.94 255.698C1001.94 254.818 1001.59 253.957 1000.97 253.335C1000.34 252.712 999.482 252.355 998.602 252.355C997.722 252.355 996.861 252.712 996.239 253.335C995.617 253.957 995.26 254.818 995.26 255.698C995.26 256.578 995.617 257.439 996.239 258.061C996.861 258.683 997.722 259.04 998.602 259.04Z" fill="#DC5354"/>
<path d="M1033.06 259.04H1033.08C1034.93 259.04 1036.42 257.543 1036.42 255.698C1036.42 253.851 1034.93 252.355 1033.08 252.355H1033.06C1031.22 252.355 1029.72 253.851 1029.72 255.698C1029.72 257.543 1031.22 259.04 1033.06 259.04Z" fill="#DC5354"/>
<path d="M1015.83 259.04H1015.85C1017.69 259.04 1019.19 257.543 1019.19 255.698C1019.19 253.851 1017.69 252.355 1015.85 252.355H1015.83C1013.98 252.355 1012.49 253.851 1012.49 255.698C1012.49 257.543 1013.98 259.04 1015.83 259.04Z" fill="#DC5354"/>
<path d="M1050.31 259.04C1051.19 259.04 1052.05 258.683 1052.67 258.061C1053.29 257.439 1053.65 256.578 1053.65 255.698C1053.65 254.818 1053.29 253.957 1052.67 253.335C1052.05 252.712 1051.19 252.355 1050.31 252.355C1049.43 252.355 1048.56 252.712 1047.94 253.335C1047.32 253.957 1046.96 254.818 1046.96 255.698C1046.96 256.578 1047.32 257.439 1047.94 258.061C1048.56 258.683 1049.43 259.04 1050.31 259.04Z" fill="#DC5354"/>
</g>
<g opacity="0.13" filter="url(#filter1_f_3241_1990)">
<path d="M466.604 133.315C503.419 133.315 533.262 103.472 533.262 66.6576C533.262 29.8432 503.419 0 466.604 0C429.79 0 399.946 29.8432 399.946 66.6576C399.946 103.472 429.79 133.315 466.604 133.315Z" fill="#DC5354"/>
<path d="M466.604 96.421C483.042 96.421 496.367 83.0946 496.367 66.6577C496.367 50.2193 483.041 36.8945 466.604 36.8945C450.166 36.8945 436.841 50.2193 436.841 66.6577C436.841 83.0962 450.166 96.421 466.604 96.421Z" fill="#FBD15B"/>
<path d="M266.63 0H399.945V133.315H266.63V0Z" fill="#0A335B"/>
<path d="M533.261 133.315H666.576C666.576 59.6864 606.888 0 533.261 0V133.315Z" fill="#E9E5D9"/>
<path d="M266.629 133.315V0H133.314C133.315 73.6272 193.002 133.315 266.629 133.315Z" fill="#DC5354"/>
<path d="M0.00109863 133.315C73.6283 133.315 133.316 73.6288 133.316 0H0.00109863V133.315Z" fill="#E9E5D9"/>
<path d="M533.261 266.628C606.888 266.628 666.576 206.941 666.576 133.312H533.261V266.628Z" fill="#DC5354"/>
<path d="M533.261 209.12C575.127 209.12 609.064 175.18 609.064 133.316H533.261V209.12Z" fill="#FBD15B"/>
<path d="M399.946 133.316H533.262V266.632H399.946V133.316Z" fill="#0A335B"/>
<path d="M438.074 171.441H495.133V228.501H438.074V171.441Z" fill="#E9E5D9"/>
<path d="M266.63 133.316H399.945V266.632H266.63V133.316Z" fill="#E9E5D9"/>
<path d="M266.63 266.628H399.945C399.945 193.001 340.259 133.312 266.63 133.312V266.628Z" fill="#DC5354"/>
<path d="M0.00109863 266.628H133.316C133.316 193.001 73.6299 133.312 0.00109863 133.312V266.628Z" fill="#DC5354"/>
<path d="M133.318 266.63H266.633V133.316C193.004 133.316 133.318 193.003 133.318 266.63Z" fill="#FBD15B"/>
<path d="M399.946 266.629H533.262V399.944H399.946V266.629Z" fill="#FBD15B"/>
<path d="M266.63 266.629H399.945V399.944H266.63V266.629Z" fill="#F9FBFC"/>
<path d="M599.919 399.944C636.733 399.944 666.576 370.101 666.576 333.287C666.576 296.472 636.733 266.629 599.919 266.629C563.104 266.629 533.261 296.472 533.261 333.287C533.261 370.101 563.104 399.944 599.919 399.944Z" fill="#0A335B"/>
<path d="M599.92 363.029C616.347 363.029 629.664 349.712 629.664 333.285C629.664 316.858 616.347 303.541 599.92 303.541C583.493 303.541 570.176 316.858 570.176 333.285C570.176 349.712 583.493 363.029 599.92 363.029Z" fill="#DC5354"/>
<path d="M133.314 266.629H266.629V399.944H133.314V266.629Z" fill="#F9FBFC"/>
<path d="M266.63 399.944C340.257 399.944 399.945 340.258 399.945 266.629H266.63V399.944Z" fill="#0A335B"/>
<path d="M266.629 399.944V266.629H133.314C133.315 340.258 193.002 399.944 266.629 399.944Z" fill="#DC5354"/>
<path d="M266.629 266.629H332.639C332.639 230.173 303.085 200.619 266.629 200.619V266.629Z" fill="#F9FBFC"/>
<path d="M200.623 266.629H266.633V200.619C230.177 200.621 200.623 230.174 200.623 266.629Z" fill="#DC5354"/>
<path d="M266.629 332.639C303.085 332.639 332.639 303.085 332.639 266.629H266.629V332.639Z" fill="#FBD15B"/>
<path d="M266.629 332.639V266.629H200.619C200.621 303.085 230.174 332.639 266.629 332.639Z" fill="#0A335B"/>
<path d="M0.00109863 399.944H133.316V266.629C59.6876 266.629 0.00109863 326.317 0.00109863 399.944Z" fill="#0A335B"/>
<path d="M533.261 533.259C606.888 533.259 666.576 473.572 666.576 399.943H533.261V533.259Z" fill="#E9E5D9"/>
<path d="M399.946 399.943H533.262V533.259H399.946V399.943Z" fill="#0A335B"/>
<path d="M399.946 533.259H533.262L399.946 399.943V533.259Z" fill="#0A335B"/>
<path d="M266.63 533.259H399.945V399.943C326.318 399.943 266.63 459.631 266.63 533.259Z" fill="#DC5354"/>
<path d="M0.00109863 533.259H133.316V399.943C59.6876 399.943 0.00109863 459.631 0.00109863 533.259Z" fill="#FBD15B"/>
<path d="M133.318 533.259H266.633C266.633 459.631 206.946 399.943 133.318 399.943V533.259Z" fill="#0A335B"/>
<path d="M133.318 533.259H266.633C266.633 459.631 206.946 399.943 133.318 399.943V533.259Z" fill="#0A335B"/>
<path d="M49.5835 533.258H133.316V449.525C87.0716 449.525 49.5835 487.013 49.5835 533.258Z" fill="#E9E5D9"/>
<path d="M133.318 533.258H217.051C217.051 487.013 179.563 449.525 133.318 449.525V533.258Z" fill="#DC5354"/>
<path d="M533.261 666.576C606.888 666.576 666.576 726.263 666.576 799.891H533.261V666.576Z" fill="#DC5354"/>
<path d="M533.262 666.576V799.891H399.946C399.946 726.263 459.634 666.576 533.262 666.576Z" fill="#FBD15B"/>
<path d="M533.26 722.854C575.808 722.854 610.299 757.345 610.299 799.892H533.26V722.854Z" fill="#E9E5D9"/>
<path d="M533.262 722.854V799.892H456.223C456.223 757.345 490.714 722.854 533.262 722.854Z" fill="#F9FBFC"/>
<path d="M399.945 666.576C399.945 740.203 340.259 799.891 266.63 799.891C266.63 726.263 326.318 666.576 399.945 666.576Z" fill="#0A335B"/>
<path d="M0.00109863 666.576H133.316V799.891H0.00109863V666.576Z" fill="#0A335B"/>
<path d="M133.318 666.576C206.945 666.576 266.633 726.263 266.633 799.891H133.318V666.576Z" fill="#DC5354"/>
<path d="M533.262 533.26C533.262 606.887 473.575 666.575 399.946 666.575C399.946 592.946 459.634 533.26 533.262 533.26Z" fill="#DC5354"/>
<path d="M266.63 533.26C340.257 533.26 399.945 592.946 399.945 666.575C326.318 666.575 266.63 606.887 266.63 533.26Z" fill="#FBD15B"/>
<path d="M133.314 533.26H266.629V666.575H133.314V533.26Z" fill="#F9FBFC"/>
<path d="M166.645 533.26C185.051 533.26 199.973 548.181 199.973 566.588C199.973 584.994 185.051 599.916 166.645 599.916C148.238 599.916 133.315 584.994 133.315 566.588C133.317 548.181 148.238 533.26 166.645 533.26Z" fill="#FBD15B"/>
<path d="M166.645 558.701C171.002 558.701 174.533 562.232 174.533 566.589C174.533 570.946 171.002 574.477 166.645 574.477C162.288 574.477 158.757 570.946 158.757 566.589C158.757 562.232 162.29 558.701 166.645 558.701Z" fill="#F9FBFC"/>
<path d="M233.303 533.26C251.71 533.26 266.633 548.181 266.633 566.588C266.633 584.994 251.711 599.916 233.305 599.916C214.898 599.916 199.977 584.994 199.977 566.588C199.975 548.181 214.897 533.26 233.303 533.26Z" fill="#E9E5D9"/>
<path d="M233.301 558.701C237.658 558.701 241.189 562.232 241.189 566.589C241.189 570.946 237.658 574.477 233.301 574.477C228.945 574.477 225.413 570.946 225.413 566.589C225.413 562.232 228.945 558.701 233.301 558.701Z" fill="#0A335B"/>
<path d="M166.645 599.916C185.051 599.916 199.973 614.838 199.973 633.244C199.973 651.65 185.051 666.572 166.645 666.572C148.238 666.572 133.315 651.65 133.315 633.244C133.317 614.838 148.238 599.916 166.645 599.916Z" fill="#0A335B"/>
<path d="M166.645 625.359C171.002 625.359 174.533 628.891 174.533 633.247C174.533 637.604 171.002 641.135 166.645 641.135C162.288 641.135 158.757 637.604 158.757 633.247C158.757 628.891 162.29 625.359 166.645 625.359Z" fill="#FBD15B"/>
<path d="M233.303 599.916C251.71 599.916 266.633 614.838 266.633 633.244C266.633 651.65 251.711 666.572 233.305 666.572C214.898 666.572 199.977 651.65 199.977 633.244C199.975 614.838 214.897 599.916 233.303 599.916Z" fill="#DC5354"/>
<path d="M233.301 625.359C237.658 625.359 241.189 628.891 241.189 633.247C241.189 637.604 237.658 641.135 233.301 641.135C228.945 641.135 225.413 637.604 225.413 633.247C225.413 628.891 228.945 625.359 233.301 625.359Z" fill="#E9E5D9"/>
<path d="M0.00109863 533.26H133.316V666.575H0.00109863V533.26Z" fill="#DC5354"/>
<path d="M38.2642 571.521H95.0547V628.312H38.2642V571.521Z" fill="#0A335B"/>
<path d="M114.992 714.466C113.291 714.466 111.628 713.776 110.425 712.575C109.222 711.372 108.534 709.709 108.534 708.008C108.534 706.308 109.224 704.645 110.425 703.442C111.628 702.24 113.291 701.551 114.992 701.551C116.692 701.551 118.356 702.24 119.558 703.442C120.76 704.645 121.449 706.308 121.449 708.008C121.449 709.709 120.76 711.372 119.558 712.575C118.355 713.778 116.692 714.466 114.992 714.466Z" fill="#FBD15B"/>
<path d="M48.4115 714.466H48.3795C44.8131 714.466 41.9219 711.575 41.9219 708.008C41.9219 704.442 44.8131 701.551 48.3795 701.551H48.4115C51.9779 701.551 54.8691 704.442 54.8691 708.008C54.8691 711.575 51.9779 714.466 48.4115 714.466Z" fill="#FBD15B"/>
<path d="M81.7084 714.466H81.6765C78.1101 714.466 75.2188 711.575 75.2188 708.008C75.2188 704.442 78.1101 701.551 81.6765 701.551H81.7084C85.2748 701.551 88.166 704.442 88.166 708.008C88.1676 711.575 85.2764 714.466 81.7084 714.466Z" fill="#FBD15B"/>
<path d="M15.0991 714.466C13.3983 714.466 11.7359 713.776 10.5327 712.575C9.33111 711.372 8.6415 709.709 8.6415 708.008C8.6415 706.308 9.33111 704.645 10.5327 703.442C11.7359 702.24 13.3983 701.551 15.0991 701.551C16.7999 701.551 18.4639 702.24 19.6655 703.442C20.8687 704.645 21.5566 706.308 21.5566 708.008C21.5566 709.709 20.8687 711.372 19.6655 712.575C18.4623 713.778 16.7999 714.466 15.0991 714.466Z" fill="#FBD15B"/>
<path d="M114.992 687.941C113.291 687.941 111.628 687.251 110.425 686.049C109.222 684.848 108.534 683.184 108.534 681.483C108.534 679.782 109.224 678.118 110.425 676.917C111.628 675.713 113.291 675.025 114.992 675.025C116.692 675.025 118.356 675.713 119.558 676.917C120.76 678.12 121.449 679.782 121.449 681.483C121.449 683.182 120.76 684.846 119.558 686.049C118.355 687.253 116.692 687.941 114.992 687.941Z" fill="#FBD15B"/>
<path d="M48.4115 687.941H48.3795C44.8131 687.941 41.9219 685.049 41.9219 681.483C41.9219 677.917 44.8131 675.025 48.3795 675.025H48.4115C51.9779 675.025 54.8691 677.917 54.8691 681.483C54.8691 685.049 51.9779 687.941 48.4115 687.941Z" fill="#FBD15B"/>
<path d="M81.7084 687.941H81.6765C78.1101 687.941 75.2188 685.049 75.2188 681.483C75.2188 677.917 78.1101 675.025 81.6765 675.025H81.7084C85.2748 675.025 88.166 677.917 88.166 681.483C88.1676 685.049 85.2764 687.941 81.7084 687.941Z" fill="#FBD15B"/>
<path d="M15.0991 687.941C13.3983 687.941 11.7359 687.251 10.5327 686.049C9.33111 684.848 8.6415 683.184 8.6415 681.483C8.6415 679.782 9.33111 678.118 10.5327 676.917C11.7359 675.713 13.3983 675.025 15.0991 675.025C16.7999 675.025 18.4639 675.713 19.6655 676.917C20.8687 678.12 21.5566 679.782 21.5566 681.483C21.5566 683.182 20.8687 684.846 19.6655 686.049C18.4623 687.253 16.7999 687.941 15.0991 687.941Z" fill="#FBD15B"/>
<path d="M114.992 740.993C113.291 740.993 111.628 740.304 110.425 739.102C109.222 737.899 108.534 736.236 108.534 734.536C108.534 732.835 109.224 731.171 110.425 729.969C111.628 728.766 113.291 728.078 114.992 728.078C116.692 728.078 118.356 728.766 119.558 729.969C120.76 731.172 121.449 732.835 121.449 734.536C121.449 736.236 120.76 737.899 119.558 739.102C118.355 740.304 116.692 740.993 114.992 740.993Z" fill="#FBD15B"/>
<path d="M48.4115 740.993H48.3795C44.8131 740.993 41.9219 738.102 41.9219 734.536C41.9219 730.969 44.8131 728.078 48.3795 728.078H48.4115C51.9779 728.078 54.8691 730.969 54.8691 734.536C54.8691 738.102 51.9779 740.993 48.4115 740.993Z" fill="#FBD15B"/>
<path d="M81.7084 740.993H81.6765C78.1101 740.993 75.2188 738.102 75.2188 734.536C75.2188 730.969 78.1101 728.078 81.6765 728.078H81.7084C85.2748 728.078 88.166 730.969 88.166 734.536C88.1676 738.102 85.2764 740.993 81.7084 740.993Z" fill="#FBD15B"/>
<path d="M15.0991 740.993C13.3983 740.993 11.7359 740.304 10.5327 739.102C9.33111 737.899 8.6415 736.236 8.6415 734.536C8.6415 732.835 9.33111 731.171 10.5327 729.969C11.7359 728.766 13.3983 728.078 15.0991 728.078C16.7999 728.078 18.4639 728.766 19.6655 729.969C20.8687 731.172 21.5566 732.835 21.5566 734.536C21.5566 736.236 20.8687 737.899 19.6655 739.102C18.4623 740.304 16.7999 740.993 15.0991 740.993Z" fill="#FBD15B"/>
<path d="M114.992 767.519C113.291 767.519 111.628 766.829 110.425 765.628C109.222 764.424 108.534 762.762 108.534 761.061C108.534 759.36 109.224 757.696 110.425 756.495C111.628 755.293 113.291 754.604 114.992 754.604C116.692 754.604 118.356 755.292 119.558 756.495C120.76 757.698 121.449 759.36 121.449 761.061C121.449 762.762 120.76 764.424 119.558 765.628C118.355 766.829 116.692 767.519 114.992 767.519Z" fill="#FBD15B"/>
<path d="M48.4115 767.519H48.3795C44.8131 767.519 41.9219 764.628 41.9219 761.061C41.9219 757.495 44.8131 754.604 48.3795 754.604H48.4115C51.9779 754.604 54.8691 757.495 54.8691 761.061C54.8691 764.626 51.9779 767.519 48.4115 767.519Z" fill="#FBD15B"/>
<path d="M81.7084 767.519H81.6765C78.1101 767.519 75.2188 764.628 75.2188 761.061C75.2188 757.495 78.1101 754.604 81.6765 754.604H81.7084C85.2748 754.604 88.166 757.495 88.166 761.061C88.1676 764.626 85.2764 767.519 81.7084 767.519Z" fill="#FBD15B"/>
<path d="M15.0991 767.519C13.3983 767.519 11.7359 766.829 10.5327 765.628C9.33111 764.424 8.6415 762.762 8.6415 761.061C8.6415 759.36 9.33111 757.696 10.5327 756.495C11.7359 755.293 13.3983 754.604 15.0991 754.604C16.7999 754.604 18.4639 755.292 19.6655 756.495C20.8687 757.698 21.5566 759.36 21.5566 761.061C21.5566 762.762 20.8687 764.424 19.6655 765.628C18.4623 766.829 16.7999 767.519 15.0991 767.519Z" fill="#FBD15B"/>
<path d="M114.992 794.046C113.291 794.046 111.628 793.358 110.425 792.155C109.222 790.953 108.534 789.289 108.534 787.588C108.534 785.888 109.224 784.224 110.425 783.022C111.628 781.819 113.291 781.131 114.992 781.131C116.692 781.131 118.356 781.82 119.558 783.022C120.76 784.224 121.449 785.888 121.449 787.588C121.449 789.289 120.76 790.952 119.558 792.155C118.355 793.356 116.692 794.046 114.992 794.046Z" fill="#FBD15B"/>
<path d="M48.4115 794.046H48.3795C44.8131 794.046 41.9219 791.155 41.9219 787.588C41.9219 784.022 44.8131 781.131 48.3795 781.131H48.4115C51.9779 781.131 54.8691 784.022 54.8691 787.588C54.8691 791.155 51.9779 794.046 48.4115 794.046Z" fill="#FBD15B"/>
<path d="M81.7084 794.046H81.6765C78.1101 794.046 75.2188 791.155 75.2188 787.588C75.2188 784.022 78.1101 781.131 81.6765 781.131H81.7084C85.2748 781.131 88.166 784.022 88.166 787.588C88.1676 791.155 85.2764 794.046 81.7084 794.046Z" fill="#FBD15B"/>
<path d="M15.0991 794.046C13.3983 794.046 11.7359 793.358 10.5327 792.155C9.33111 790.953 8.6415 789.289 8.6415 787.588C8.6415 785.888 9.33111 784.224 10.5327 783.022C11.7359 781.819 13.3983 781.131 15.0991 781.131C16.7999 781.131 18.4639 781.82 19.6655 783.022C20.8687 784.224 21.5566 785.888 21.5566 787.588C21.5566 789.289 20.8687 790.952 19.6655 792.155C18.4623 793.356 16.7999 794.046 15.0991 794.046Z" fill="#FBD15B"/>
<path d="M516.638 314.624C514.937 314.624 513.275 313.936 512.072 312.733C510.868 311.531 510.18 309.867 510.18 308.167C510.18 306.466 510.87 304.803 512.072 303.6C513.273 302.397 514.937 301.709 516.638 301.709C518.339 301.709 520.003 302.399 521.204 303.6C522.406 304.802 523.096 306.466 523.096 308.167C523.096 309.867 522.406 311.53 521.204 312.733C520.001 313.936 518.337 314.624 516.638 314.624Z" fill="#F9FBFC"/>
<path d="M450.056 314.624H450.024C446.458 314.624 443.566 311.733 443.566 308.167C443.566 304.6 446.458 301.709 450.024 301.709H450.056C453.622 301.709 456.514 304.6 456.514 308.167C456.514 311.733 453.622 314.624 450.056 314.624Z" fill="#F9FBFC"/>
<path d="M483.353 314.624H483.321C479.755 314.624 476.863 311.733 476.863 308.167C476.863 304.6 479.755 301.709 483.321 301.709H483.353C486.919 301.709 489.811 304.6 489.811 308.167C489.811 311.733 486.919 314.624 483.353 314.624Z" fill="#F9FBFC"/>
<path d="M416.744 314.624C415.043 314.624 413.38 313.936 412.177 312.733C410.976 311.531 410.286 309.867 410.286 308.167C410.286 306.466 410.976 304.803 412.177 303.6C413.38 302.397 415.043 301.709 416.744 301.709C418.444 301.709 420.108 302.399 421.31 303.6C422.513 304.802 423.201 306.466 423.201 308.167C423.201 309.867 422.513 311.53 421.31 312.733C420.107 313.936 418.444 314.624 416.744 314.624Z" fill="#F9FBFC"/>
<path d="M516.638 288.099C514.937 288.099 513.275 287.409 512.072 286.208C510.868 285.004 510.18 283.342 510.18 281.641C510.18 279.94 510.87 278.276 512.072 277.075C513.273 275.873 514.937 275.184 516.638 275.184C518.339 275.184 520.003 275.872 521.204 277.075C522.406 278.278 523.096 279.94 523.096 281.641C523.096 283.342 522.406 285.004 521.204 286.208C520.001 287.411 518.337 288.099 516.638 288.099Z" fill="#F9FBFC"/>
<path d="M450.056 288.099H450.024C446.458 288.099 443.566 285.208 443.566 281.641C443.566 278.075 446.458 275.184 450.024 275.184H450.056C453.622 275.184 456.514 278.075 456.514 281.641C456.514 285.208 453.622 288.099 450.056 288.099Z" fill="#F9FBFC"/>
<path d="M483.353 288.099H483.321C479.755 288.099 476.863 285.208 476.863 281.641C476.863 278.075 479.755 275.184 483.321 275.184H483.353C486.919 275.184 489.811 278.075 489.811 281.641C489.811 285.208 486.919 288.099 483.353 288.099Z" fill="#F9FBFC"/>
<path d="M416.744 288.099C415.043 288.099 413.38 287.409 412.177 286.208C410.976 285.004 410.286 283.342 410.286 281.641C410.286 279.94 410.976 278.276 412.177 277.075C413.38 275.873 415.043 275.184 416.744 275.184C418.444 275.184 420.108 275.872 421.31 277.075C422.513 278.278 423.201 279.94 423.201 281.641C423.201 283.342 422.513 285.004 421.31 286.208C420.107 287.411 418.444 288.099 416.744 288.099Z" fill="#F9FBFC"/>
<path d="M516.638 341.153C514.937 341.153 513.275 340.464 512.072 339.262C510.868 338.059 510.18 336.397 510.18 334.696C510.18 332.995 510.87 331.331 512.072 330.129C513.273 328.926 514.937 328.238 516.638 328.238C518.339 328.238 520.003 328.926 521.204 330.129C522.406 331.333 523.096 332.995 523.096 334.696C523.096 336.397 522.406 338.059 521.204 339.262C520.001 340.464 518.337 341.153 516.638 341.153Z" fill="#F9FBFC"/>
<path d="M450.056 341.153H450.024C446.458 341.153 443.566 338.262 443.566 334.696C443.566 331.13 446.458 328.238 450.024 328.238H450.056C453.622 328.238 456.514 331.13 456.514 334.696C456.514 338.262 453.622 341.153 450.056 341.153Z" fill="#F9FBFC"/>
<path d="M483.353 341.153H483.321C479.755 341.153 476.863 338.262 476.863 334.696C476.863 331.13 479.755 328.238 483.321 328.238H483.353C486.919 328.238 489.811 331.13 489.811 334.696C489.811 338.262 486.919 341.153 483.353 341.153Z" fill="#F9FBFC"/>
<path d="M416.744 341.153C415.043 341.153 413.38 340.464 412.177 339.262C410.976 338.059 410.286 336.397 410.286 334.696C410.286 332.995 410.976 331.331 412.177 330.129C413.38 328.926 415.043 328.238 416.744 328.238C418.444 328.238 420.108 328.926 421.31 330.129C422.513 331.333 423.201 332.995 423.201 334.696C423.201 336.397 422.513 338.059 421.31 339.262C420.107 340.464 418.444 341.153 416.744 341.153Z" fill="#F9FBFC"/>
<path d="M516.638 367.677C514.937 367.677 513.275 366.987 512.072 365.786C510.868 364.583 510.18 362.92 510.18 361.219C510.18 359.519 510.87 357.855 512.072 356.653C513.273 355.451 514.937 354.762 516.638 354.762C518.339 354.762 520.003 355.45 521.204 356.653C522.406 357.856 523.096 359.519 523.096 361.219C523.096 362.92 522.406 364.583 521.204 365.786C520.001 366.987 518.337 367.677 516.638 367.677Z" fill="#F9FBFC"/>
<path d="M450.056 367.677H450.024C446.458 367.677 443.566 364.786 443.566 361.219C443.566 357.653 446.458 354.762 450.024 354.762H450.056C453.622 354.762 456.514 357.653 456.514 361.219C456.514 364.784 453.622 367.677 450.056 367.677Z" fill="#F9FBFC"/>
<path d="M483.353 367.677H483.321C479.755 367.677 476.863 364.786 476.863 361.219C476.863 357.653 479.755 354.762 483.321 354.762H483.353C486.919 354.762 489.811 357.653 489.811 361.219C489.811 364.784 486.919 367.677 483.353 367.677Z" fill="#F9FBFC"/>
<path d="M416.744 367.677C415.043 367.677 413.38 366.987 412.177 365.786C410.976 364.583 410.286 362.92 410.286 361.219C410.286 359.519 410.976 357.855 412.177 356.653C413.38 355.451 415.043 354.762 416.744 354.762C418.444 354.762 420.108 355.45 421.31 356.653C422.513 357.856 423.201 359.519 423.201 361.219C423.201 362.92 422.513 364.583 421.31 365.786C420.107 366.987 418.444 367.677 416.744 367.677Z" fill="#F9FBFC"/>
<path d="M516.638 394.202C514.937 394.202 513.275 393.514 512.072 392.311C510.868 391.11 510.18 389.446 510.18 387.745C510.18 386.044 510.87 384.38 512.072 383.178C513.273 381.975 514.937 381.287 516.638 381.287C518.339 381.287 520.003 381.977 521.204 383.178C522.406 384.38 523.096 386.044 523.096 387.745C523.096 389.446 522.406 391.108 521.204 392.311C520.001 393.514 518.337 394.202 516.638 394.202Z" fill="#F9FBFC"/>
<path d="M450.056 394.202H450.024C446.458 394.202 443.566 391.311 443.566 387.745C443.566 384.178 446.458 381.287 450.024 381.287H450.056C453.622 381.287 456.514 384.178 456.514 387.745C456.514 391.311 453.622 394.202 450.056 394.202Z" fill="#F9FBFC"/>
<path d="M483.353 394.202H483.321C479.755 394.202 476.863 391.311 476.863 387.745C476.863 384.178 479.755 381.287 483.321 381.287H483.353C486.919 381.287 489.811 384.178 489.811 387.745C489.811 391.311 486.919 394.202 483.353 394.202Z" fill="#F9FBFC"/>
<path d="M416.744 394.202C415.043 394.202 413.38 393.514 412.177 392.311C410.976 391.11 410.286 389.446 410.286 387.745C410.286 386.044 410.976 384.38 412.177 383.178C413.38 381.975 415.043 381.287 416.744 381.287C418.444 381.287 420.108 381.977 421.31 383.178C422.513 384.38 423.201 386.044 423.201 387.745C423.201 389.446 422.513 391.108 421.31 392.311C420.107 393.514 418.444 394.202 416.744 394.202Z" fill="#F9FBFC"/>
<path d="M712.281 272.769C711.401 272.769 710.54 272.412 709.917 271.79C709.295 271.167 708.938 270.306 708.938 269.426C708.938 268.546 709.295 267.686 709.917 267.063C710.54 266.441 711.401 266.084 712.281 266.084C713.161 266.084 714.021 266.441 714.644 267.063C715.266 267.686 715.623 268.546 715.623 269.426C715.623 270.306 715.266 271.167 714.644 271.79C714.021 272.414 713.161 272.769 712.281 272.769Z" fill="#DC5354"/>
<path d="M712.281 259.04C711.401 259.04 710.54 258.683 709.917 258.061C709.295 257.439 708.938 256.578 708.938 255.698C708.938 254.818 709.295 253.957 709.917 253.335C710.54 252.712 711.401 252.355 712.281 252.355C713.161 252.355 714.021 252.712 714.644 253.335C715.266 253.957 715.623 254.818 715.623 255.698C715.623 256.578 715.266 257.439 714.644 258.061C714.021 258.683 713.161 259.04 712.281 259.04Z" fill="#DC5354"/>
<path d="M781.779 272.769C780.899 272.769 780.038 272.412 779.415 271.79C778.793 271.167 778.436 270.306 778.436 269.426C778.436 268.546 778.793 267.686 779.415 267.063C780.038 266.441 780.899 266.084 781.779 266.084C782.659 266.084 783.519 266.441 784.142 267.063C784.764 267.686 785.121 268.546 785.121 269.426C785.121 270.306 784.764 271.167 784.142 271.79C783.519 272.414 782.659 272.769 781.779 272.769Z" fill="#DC5354"/>
<path d="M747.318 272.769H747.302C745.455 272.769 743.959 271.273 743.959 269.426C743.959 267.58 745.455 266.084 747.302 266.084H747.318C749.164 266.084 750.66 267.58 750.66 269.426C750.66 271.273 749.164 272.769 747.318 272.769Z" fill="#DC5354"/>
<path d="M764.55 272.769H764.534C762.688 272.769 761.192 271.273 761.192 269.426C761.192 267.58 762.689 266.084 764.534 266.084H764.55C766.397 266.084 767.893 267.58 767.893 269.426C767.893 271.273 766.397 272.769 764.55 272.769Z" fill="#DC5354"/>
<path d="M730.076 272.769C729.196 272.769 728.335 272.412 727.712 271.79C727.09 271.167 726.733 270.306 726.733 269.426C726.733 268.546 727.09 267.686 727.712 267.063C728.335 266.441 729.196 266.084 730.076 266.084C730.956 266.084 731.816 266.441 732.439 267.063C733.061 267.686 733.418 268.546 733.418 269.426C733.418 270.306 733.061 271.167 732.439 271.79C731.818 272.414 730.956 272.769 730.076 272.769Z" fill="#DC5354"/>
<path d="M781.779 259.04C780.899 259.04 780.038 258.683 779.415 258.061C778.793 257.439 778.436 256.578 778.436 255.698C778.436 254.818 778.793 253.957 779.415 253.335C780.038 252.712 780.899 252.355 781.779 252.355C782.659 252.355 783.519 252.712 784.142 253.335C784.764 253.957 785.121 254.818 785.121 255.698C785.121 256.578 784.764 257.439 784.142 258.061C783.519 258.683 782.659 259.04 781.779 259.04Z" fill="#DC5354"/>
<path d="M747.318 259.04H747.302C745.455 259.04 743.959 257.543 743.959 255.698C743.959 253.851 745.455 252.355 747.302 252.355H747.318C749.164 252.355 750.66 253.851 750.66 255.698C750.66 257.543 749.164 259.04 747.318 259.04Z" fill="#DC5354"/>
<path d="M764.55 259.04H764.534C762.688 259.04 761.192 257.543 761.192 255.698C761.192 253.851 762.689 252.355 764.534 252.355H764.55C766.397 252.355 767.893 253.851 767.893 255.698C767.893 257.543 766.397 259.04 764.55 259.04Z" fill="#DC5354"/>
<path d="M730.076 259.04C729.196 259.04 728.335 258.683 727.712 258.061C727.09 257.439 726.733 256.578 726.733 255.698C726.733 254.818 727.09 253.957 727.712 253.335C728.335 252.712 729.196 252.355 730.076 252.355C730.956 252.355 731.816 252.712 732.439 253.335C733.061 253.957 733.418 254.818 733.418 255.698C733.418 256.578 733.061 257.439 732.439 258.061C731.818 258.683 730.956 259.04 730.076 259.04Z" fill="#DC5354"/>
<path d="M851.9 272.769C851.02 272.769 850.159 272.412 849.537 271.79C848.914 271.167 848.557 270.306 848.557 269.426C848.557 268.546 848.914 267.686 849.537 267.063C850.159 266.441 851.02 266.084 851.9 266.084C852.78 266.084 853.641 266.441 854.263 267.063C854.885 267.686 855.242 268.546 855.242 269.426C855.242 270.306 854.885 271.167 854.263 271.79C853.641 272.414 852.78 272.769 851.9 272.769Z" fill="#DC5354"/>
<path d="M817.441 272.769H817.425C815.578 272.769 814.082 271.273 814.082 269.426C814.082 267.58 815.578 266.084 817.425 266.084H817.441C819.287 266.084 820.783 267.58 820.783 269.426C820.783 271.273 819.287 272.769 817.441 272.769Z" fill="#DC5354"/>
<path d="M834.675 272.769H834.659C832.813 272.769 831.317 271.273 831.317 269.426C831.317 267.58 832.813 266.084 834.659 266.084H834.675C836.522 266.084 838.018 267.58 838.018 269.426C838.018 271.273 836.52 272.769 834.675 272.769Z" fill="#DC5354"/>
<path d="M800.197 272.769C799.317 272.769 798.456 272.412 797.833 271.79C797.211 271.167 796.854 270.306 796.854 269.426C796.854 268.546 797.211 267.686 797.833 267.063C798.456 266.441 799.317 266.084 800.197 266.084C801.077 266.084 801.937 266.441 802.56 267.063C803.182 267.686 803.539 268.546 803.539 269.426C803.539 270.306 803.182 271.167 802.56 271.79C801.939 272.414 801.078 272.769 800.197 272.769Z" fill="#DC5354"/>
<path d="M851.9 259.04C851.02 259.04 850.159 258.683 849.537 258.061C848.914 257.439 848.557 256.578 848.557 255.698C848.557 254.818 848.914 253.957 849.537 253.335C850.159 252.712 851.02 252.355 851.9 252.355C852.78 252.355 853.641 252.712 854.263 253.335C854.885 253.957 855.242 254.818 855.242 255.698C855.242 256.578 854.885 257.439 854.263 258.061C853.641 258.683 852.78 259.04 851.9 259.04Z" fill="#DC5354"/>
<path d="M817.441 259.04H817.425C815.578 259.04 814.082 257.543 814.082 255.698C814.082 253.851 815.578 252.355 817.425 252.355H817.441C819.287 252.355 820.783 253.851 820.783 255.698C820.783 257.543 819.287 259.04 817.441 259.04Z" fill="#DC5354"/>
<path d="M834.675 259.04H834.659C832.813 259.04 831.317 257.543 831.317 255.698C831.317 253.851 832.813 252.355 834.659 252.355H834.675C836.522 252.355 838.018 253.851 838.018 255.698C838.018 257.543 836.52 259.04 834.675 259.04Z" fill="#DC5354"/>
<path d="M800.197 259.04C799.317 259.04 798.456 258.683 797.833 258.061C797.211 257.439 796.854 256.578 796.854 255.698C796.854 254.818 797.211 253.957 797.833 253.335C798.456 252.712 799.317 252.355 800.197 252.355C801.077 252.355 801.937 252.712 802.56 253.335C803.182 253.957 803.539 254.818 803.539 255.698C803.539 256.578 803.182 257.439 802.56 258.061C801.939 258.683 801.078 259.04 800.197 259.04Z" fill="#DC5354"/>
<path d="M921.398 272.769C920.518 272.769 919.657 272.412 919.035 271.79C918.412 271.167 918.055 270.306 918.055 269.426C918.055 268.546 918.412 267.686 919.035 267.063C919.657 266.441 920.518 266.084 921.398 266.084C922.278 266.084 923.139 266.441 923.761 267.063C924.383 267.686 924.74 268.546 924.74 269.426C924.74 270.306 924.383 271.167 923.761 271.79C923.139 272.414 922.278 272.769 921.398 272.769Z" fill="#DC5354"/>
<path d="M886.937 272.769H886.921C885.074 272.769 883.578 271.273 883.578 269.426C883.578 267.58 885.074 266.084 886.921 266.084H886.937C888.783 266.084 890.279 267.58 890.279 269.426C890.279 271.273 888.783 272.769 886.937 272.769Z" fill="#DC5354"/>
<path d="M904.169 272.769H904.153C902.307 272.769 900.811 271.273 900.811 269.426C900.811 267.58 902.307 266.084 904.153 266.084H904.169C906.016 266.084 907.512 267.58 907.512 269.426C907.512 271.273 906.016 272.769 904.169 272.769Z" fill="#DC5354"/>
<path d="M869.695 272.769C868.815 272.769 867.954 272.412 867.332 271.79C866.709 271.167 866.352 270.306 866.352 269.426C866.352 268.546 866.709 267.686 867.332 267.063C867.954 266.441 868.815 266.084 869.695 266.084C870.575 266.084 871.436 266.441 872.058 267.063C872.68 267.686 873.037 268.546 873.037 269.426C873.037 270.306 872.68 271.167 872.058 271.79C871.436 272.414 870.575 272.769 869.695 272.769Z" fill="#DC5354"/>
<path d="M921.398 259.04C920.518 259.04 919.657 258.683 919.035 258.061C918.412 257.439 918.055 256.578 918.055 255.698C918.055 254.818 918.412 253.957 919.035 253.335C919.657 252.712 920.518 252.355 921.398 252.355C922.278 252.355 923.139 252.712 923.761 253.335C924.383 253.957 924.74 254.818 924.74 255.698C924.74 256.578 924.383 257.439 923.761 258.061C923.139 258.683 922.278 259.04 921.398 259.04Z" fill="#DC5354"/>
<path d="M886.937 259.04H886.921C885.074 259.04 883.578 257.543 883.578 255.698C883.578 253.851 885.074 252.355 886.921 252.355H886.937C888.783 252.355 890.279 253.851 890.279 255.698C890.279 257.543 888.783 259.04 886.937 259.04Z" fill="#DC5354"/>
<path d="M904.169 259.04H904.153C902.307 259.04 900.811 257.543 900.811 255.698C900.811 253.851 902.307 252.355 904.153 252.355H904.169C906.016 252.355 907.512 253.851 907.512 255.698C907.512 257.543 906.016 259.04 904.169 259.04Z" fill="#DC5354"/>
<path d="M869.695 259.04C868.815 259.04 867.954 258.683 867.332 258.061C866.709 257.439 866.352 256.578 866.352 255.698C866.352 254.818 866.709 253.957 867.332 253.335C867.954 252.712 868.815 252.355 869.695 252.355C870.575 252.355 871.436 252.712 872.058 253.335C872.68 253.957 873.037 254.818 873.037 255.698C873.037 256.578 872.68 257.439 872.058 258.061C871.436 258.683 870.575 259.04 869.695 259.04Z" fill="#DC5354"/>
</g>
</g>
<defs>
<filter id="filter0_f_3241_1990" x="962.26" y="-33" width="990.738" height="865.893" filterUnits="userSpaceOnUse" color-interpolation-filters="sRGB">
<feFlood flood-opacity="0" result="BackgroundImageFix"/>
<feBlend mode="normal" in="SourceGraphic" in2="BackgroundImageFix" result="shape"/>
<feGaussianBlur stdDeviation="16.5" result="effect1_foregroundBlur_3241_1990"/>
</filter>
<filter id="filter1_f_3241_1990" x="-32.998" y="-33" width="990.738" height="865.893" filterUnits="userSpaceOnUse" color-interpolation-filters="sRGB">
<feFlood flood-opacity="0" result="BackgroundImageFix"/>
<feBlend mode="normal" in="SourceGraphic" in2="BackgroundImageFix" result="shape"/>
<feGaussianBlur stdDeviation="16.5" result="effect1_foregroundBlur_3241_1990"/>
</filter>
<clipPath id="clip0_3241_1990">
<rect width="1920" height="800" fill="white"/>
</clipPath>
</defs>
</svg>
