<svg width="28" height="34" viewBox="0 0 28 34" fill="none" xmlns="http://www.w3.org/2000/svg">
<path d="M12.8626 33.7C12.0425 33.7 11.344 33.4115 10.7671 32.8346C10.1903 32.2578 9.90181 31.5586 9.90181 30.7373H15.8235C15.8235 31.5586 15.535 32.2578 14.9581 32.8346C14.3813 33.4115 13.6828 33.7 12.8626 33.7ZM0.945976 28.904C0.685643 28.904 0.467476 28.8166 0.291476 28.6418C0.115476 28.467 0.0280873 28.2489 0.0293095 27.9873C0.0305317 27.7257 0.117921 27.5082 0.291476 27.3346C0.465032 27.1611 0.683198 27.0731 0.945976 27.0706H2.99198V12.5451C2.99198 10.7033 3.45581 9.01842 4.38348 7.49064C5.31114 5.96286 6.54192 4.7767 8.07581 3.93214C8.4657 3.69503 8.83909 3.71214 9.19598 3.98347C9.55286 4.25481 9.6977 4.63981 9.63048 5.13847C9.57548 5.43914 9.53025 5.76914 9.49481 6.12847C9.45936 6.48659 9.44164 6.81597 9.44164 7.11664C9.44164 10.3458 10.6168 13.0878 12.9671 15.3428C15.3163 17.5978 18.1017 18.7253 21.3235 18.7253C21.7024 18.7253 22.0324 18.8506 22.3135 19.1011C22.5946 19.3517 22.7351 19.6628 22.7351 20.0343V27.0706H24.7793C25.0409 27.0706 25.259 27.1586 25.4338 27.3346C25.6086 27.5106 25.696 27.7282 25.696 27.9873C25.696 28.2464 25.6086 28.4646 25.4338 28.6418C25.259 28.819 25.0409 28.9064 24.7793 28.904H0.945976ZM20.8523 14.2373C20.636 14.2373 20.4435 14.1585 20.2748 14.0008C20.1074 13.8431 20.001 13.6561 19.9558 13.4398L19.8586 12.6148C19.2793 12.4865 18.7354 12.2909 18.227 12.0281C17.7185 11.7666 17.2608 11.4079 16.8538 10.952L15.983 11.293C15.774 11.3688 15.5723 11.3773 15.378 11.3186C15.1849 11.26 15.0284 11.1451 14.9086 10.974L14.7876 10.7191C14.6679 10.5175 14.6147 10.314 14.6281 10.1086C14.6416 9.90331 14.7467 9.72242 14.9435 9.56597L15.598 9.01231C15.3963 8.38042 15.2955 7.74853 15.2955 7.11664C15.2955 6.48353 15.3963 5.85103 15.598 5.21914L14.9416 4.66547C14.7705 4.53103 14.6666 4.35747 14.63 4.14481C14.5933 3.93214 14.6343 3.72497 14.7528 3.52331L14.9545 3.25931C15.0743 3.0882 15.2234 2.9727 15.4018 2.91281C15.5803 2.85292 15.774 2.86147 15.983 2.93847L16.8538 3.27947C17.2376 2.82358 17.6898 2.46486 18.2105 2.20331C18.7299 1.94053 19.2793 1.74497 19.8586 1.61664L19.9558 0.78064C20.001 0.564307 20.1074 0.37914 20.2748 0.22514C20.4423 0.0711405 20.6348 -0.00585937 20.8523 -0.00585938H21.0906C21.3082 -0.00585938 21.5007 0.0729739 21.6681 0.230641C21.8368 0.388307 21.9431 0.574696 21.9871 0.789807L22.0861 1.61481C22.6643 1.74436 23.2136 1.93992 23.7343 2.20147C24.255 2.46303 24.7072 2.82236 25.091 3.27947L25.96 2.93847C26.1702 2.8627 26.3719 2.85414 26.565 2.91281C26.7581 2.97147 26.9151 3.08697 27.0361 3.25931L27.1553 3.51231C27.2751 3.71397 27.3283 3.91747 27.3148 4.12281C27.3001 4.32692 27.1956 4.50781 27.0013 4.66547L26.345 5.21914C26.5466 5.85103 26.6475 6.48353 26.6475 7.11664C26.6475 7.74975 26.5466 8.38164 26.345 9.01231L27.0013 9.56597C27.1724 9.70042 27.2763 9.87397 27.313 10.0866C27.3496 10.2993 27.3093 10.5071 27.192 10.71L26.9903 10.9721C26.8705 11.1433 26.7214 11.2588 26.543 11.3186C26.3645 11.3785 26.1702 11.37 25.96 11.293L25.0891 10.952C24.6821 11.4079 24.2244 11.7666 23.716 12.0281C23.2075 12.2909 22.6636 12.4865 22.0843 12.6148L21.9871 13.4508C21.9419 13.6671 21.8356 13.8523 21.6681 14.0063C21.5007 14.1603 21.3082 14.2373 21.0906 14.2373H20.8523ZM20.9715 11.0656C22.0739 11.0656 23.0077 10.6825 23.7728 9.91614C24.5379 9.14981 24.9205 8.21603 24.9205 7.11481C24.9205 6.01359 24.5379 5.08042 23.7728 4.31531C23.0077 3.5502 22.0739 3.16764 20.9715 3.16764C19.869 3.16764 18.9353 3.5502 18.1701 4.31531C17.405 5.08042 17.0225 6.01359 17.0225 7.11481C17.0225 8.21603 17.405 9.14981 18.1701 9.91614C18.9353 10.6825 19.869 11.0669 20.9715 11.0656Z" fill="#1F712F"/>
</svg>
