<svg width="32" height="32" viewBox="0 0 32 32" fill="none" xmlns="http://www.w3.org/2000/svg">
<path d="M6.15467 23.59C5.54044 23.59 5.028 23.3847 4.61733 22.974C4.20667 22.5633 4.00089 22.0509 4 21.4367V7.48866C4 6.87444 4.20578 6.36199 4.61733 5.95133C5.02889 5.54066 5.54089 5.33488 6.15333 5.33399H15.9227C16.1129 5.33399 16.2716 5.39755 16.3987 5.52466C16.5258 5.65177 16.5893 5.81044 16.5893 6.00066C16.5893 6.19088 16.5258 6.34955 16.3987 6.47666C16.2716 6.60377 16.1129 6.66733 15.9227 6.66733H6.15467C5.94933 6.66733 5.76089 6.75266 5.58933 6.92333C5.41778 7.09399 5.33244 7.28244 5.33333 7.48866V21.4367C5.33333 21.6411 5.41867 21.8291 5.58933 22.0007C5.76 22.1722 5.948 22.2575 6.15333 22.2567H25.8467C26.0511 22.2567 26.2391 22.1713 26.4107 22.0007C26.5822 21.83 26.6676 21.642 26.6667 21.4367V18.0007C26.6667 17.8113 26.7302 17.6527 26.8573 17.5247C26.9844 17.3967 27.1431 17.3331 27.3333 17.334C27.5236 17.3349 27.6822 17.3984 27.8093 17.5247C27.9364 17.6509 28 17.8095 28 18.0007V21.4367C28 22.05 27.7947 22.5624 27.384 22.974C26.9733 23.3855 26.4609 23.5909 25.8467 23.59H21.384L22.0867 24.2927C22.2031 24.4091 22.2862 24.5291 22.336 24.6527C22.3858 24.7771 22.4107 24.9113 22.4107 25.0553V25.59C22.4107 25.9002 22.3084 26.1571 22.104 26.3607C21.8996 26.5651 21.6427 26.6673 21.3333 26.6673H10.6667C10.3573 26.6673 10.1004 26.5651 9.896 26.3607C9.69156 26.1562 9.58933 25.8993 9.58933 25.59V25.0553C9.58933 24.9113 9.61422 24.7775 9.664 24.654C9.71378 24.5295 9.79644 24.4095 9.912 24.294L10.6147 23.59H6.15467ZM20.2827 16.5167V6.00066C20.2827 5.81133 20.3462 5.65266 20.4733 5.52466C20.6004 5.39666 20.7591 5.3331 20.9493 5.33399C21.1396 5.33488 21.2978 5.39844 21.424 5.52466C21.5502 5.65088 21.6142 5.80955 21.616 6.00066V16.5167L25.252 12.8633C25.3764 12.7211 25.5276 12.6487 25.7053 12.646C25.8849 12.6433 26.048 12.7153 26.1947 12.862C26.3369 13.0042 26.408 13.1615 26.408 13.334C26.408 13.5064 26.3369 13.6638 26.1947 13.806L20.9493 19.0527L15.7027 13.806C15.5782 13.6815 15.5102 13.53 15.4987 13.3513C15.4871 13.1727 15.5551 13.0095 15.7027 12.862C15.8449 12.7198 16.0022 12.6487 16.1747 12.6487C16.3471 12.6487 16.5044 12.7198 16.6467 12.862L20.2827 16.5167Z" fill="#1F712F" stroke="#1F712F"/>
</svg>
