<svg width="32" height="32" viewBox="0 0 32 32" fill="none" xmlns="http://www.w3.org/2000/svg">
<path d="M28.3341 12.6673H26.3341M5.6674 12.6673H7.6674M17.0007 1.33398V3.33398M8.98673 4.65398L10.4001 6.06865M25.0141 4.65398L23.5994 6.06865M17.8747 8.28532C11.9954 13.4173 5.6654 19.872 3.41673 22.1987C2.89007 22.7433 2.72207 23.5373 3.0254 24.2307C3.19073 24.6073 3.38607 25.0186 3.58807 25.3686C3.79007 25.7186 4.04873 26.0933 4.29273 26.4247C4.74073 27.0347 5.51273 27.2853 6.2474 27.102C9.38673 26.3173 18.1421 24.0633 25.5261 21.538" stroke="#1F712F" stroke-width="2" stroke-linecap="round" stroke-linejoin="round"/>
<path d="M14.4092 11.4624C14.4092 11.4624 15.8032 12.8571 18.1665 16.9504C20.5298 21.0437 21.0405 22.9484 21.0405 22.9484M15.1318 24.9051L15.5278 26.3837C15.6318 26.772 15.6583 27.177 15.6058 27.5755C15.5533 27.974 15.4229 28.3583 15.2219 28.7064C15.0209 29.0545 14.7533 29.3596 14.4343 29.6042C14.1154 29.8489 13.7514 30.0284 13.3632 30.1324C12.9749 30.2364 12.5699 30.2629 12.1714 30.2104C11.7729 30.1579 11.3886 30.0274 11.0405 29.8264C10.6924 29.6254 10.3873 29.3578 10.1426 29.0389C9.89796 28.72 9.7185 28.356 9.61449 27.9677L9.28516 26.7357M17.3652 7.40039C17.3652 7.40039 18.9632 9.14772 22.1425 14.6551C25.3218 20.1624 26.0365 22.4197 26.0365 22.4197" stroke="#1F712F" stroke-width="2" stroke-linecap="round" stroke-linejoin="round"/>
</svg>
