<svg width="32" height="32" viewBox="0 0 32 32" fill="none" xmlns="http://www.w3.org/2000/svg">
<path fill-rule="evenodd" clip-rule="evenodd" d="M16.0007 2.66602V11.3327C16.0007 11.8631 16.2114 12.3718 16.5864 12.7469C16.9615 13.122 17.4702 13.3327 18.0007 13.3327H26.6673V26.666C26.6673 27.3733 26.3864 28.0515 25.8863 28.5516C25.3862 29.0517 24.7079 29.3327 24.0007 29.3327H8.00065C7.29341 29.3327 6.61513 29.0517 6.11503 28.5516C5.61494 28.0515 5.33398 27.3733 5.33398 26.666V5.33268C5.33398 4.62544 5.61494 3.94716 6.11503 3.44706C6.61513 2.94697 7.29341 2.66602 8.00065 2.66602H16.0007ZM20.0007 19.9993H12.0007C11.647 19.9993 11.3079 20.1398 11.0578 20.3899C10.8078 20.6399 10.6673 20.9791 10.6673 21.3327C10.6673 21.6863 10.8078 22.0254 11.0578 22.2755C11.3079 22.5255 11.647 22.666 12.0007 22.666H20.0007C20.3543 22.666 20.6934 22.5255 20.9435 22.2755C21.1935 22.0254 21.334 21.6863 21.334 21.3327C21.334 20.9791 21.1935 20.6399 20.9435 20.3899C20.6934 20.1398 20.3543 19.9993 20.0007 19.9993ZM13.334 14.666H12.0007C11.647 14.666 11.3079 14.8065 11.0578 15.0565C10.8078 15.3066 10.6673 15.6457 10.6673 15.9993C10.6673 16.353 10.8078 16.6921 11.0578 16.9422C11.3079 17.1922 11.647 17.3327 12.0007 17.3327H13.334C13.6876 17.3327 14.0267 17.1922 14.2768 16.9422C14.5268 16.6921 14.6673 16.353 14.6673 15.9993C14.6673 15.6457 14.5268 15.3066 14.2768 15.0565C14.0267 14.8065 13.6876 14.666 13.334 14.666ZM18.6673 2.72335C19.1725 2.83049 19.6357 3.082 20.0007 3.44735L25.886 9.33268C26.2513 9.69765 26.5028 10.1608 26.61 10.666H18.6673V2.72335Z" fill="#1F712F"/>
</svg>
