<svg width="38" height="38" viewBox="0 0 38 38" fill="none" xmlns="http://www.w3.org/2000/svg">
<g clip-path="url(#clip0_2691_5993)">
<path d="M15.5 16.127C18.5376 16.127 21 13.4407 21 10.127C21 6.81324 18.5376 4.12695 15.5 4.12695C12.4624 4.12695 10 6.81324 10 10.127C10 13.4407 12.4624 16.127 15.5 16.127Z" fill="#1F712F"/>
<path d="M17.8276 32.127C17.5112 31.8259 17.3047 31.4343 17.2391 31.0109C17.1735 30.5875 17.2523 30.155 17.4637 29.7783L17.9713 28.8572L16.9275 28.5533C16.5019 28.4251 16.1313 28.1669 15.8721 27.8179C15.6128 27.4688 15.4791 27.0479 15.4911 26.6191V24.7309C15.4903 24.304 15.6323 23.8881 15.8961 23.5448C16.16 23.2015 16.5316 22.9489 16.9562 22.8243L18 22.5204L17.5021 21.5993C17.2968 21.2278 17.2187 20.8034 17.2789 20.3866C17.3391 19.9699 17.5345 19.582 17.8372 19.2783C17.1005 19.1856 16.3586 19.1364 15.6156 19.1309C13.4211 19.0812 11.2422 19.4979 9.23443 20.3513C7.22661 21.2046 5.43931 22.4736 4 24.0678V31.2059C4 31.4502 4.10089 31.6845 4.28047 31.8572C4.46006 32.0299 4.70362 32.127 4.95759 32.127H17.8276Z" fill="#1F712F"/>
<path d="M33.8126 24.3218L31.9403 23.7604C31.8108 23.2983 31.6287 22.8525 31.3974 22.4319L32.3335 20.6916C32.3697 20.627 32.3829 20.5521 32.371 20.479C32.3591 20.406 32.3228 20.3391 32.268 20.2893L30.9106 18.9233C30.8583 18.8725 30.7917 18.8389 30.7197 18.8272C30.6477 18.8155 30.5738 18.8262 30.5081 18.8578L28.7763 19.7934C28.3501 19.5618 27.9016 19.3737 27.4377 19.2321L26.8666 17.3609C26.8415 17.2919 26.7956 17.2323 26.7353 17.1905C26.6749 17.1486 26.6031 17.1264 26.5296 17.127H24.5825C24.5095 17.129 24.4389 17.1534 24.3803 17.197C24.3217 17.2405 24.2779 17.301 24.2549 17.3702L23.6932 19.2414C23.2207 19.3801 22.7654 19.5715 22.3359 19.8122L20.6415 18.8765C20.5756 18.8416 20.5004 18.8282 20.4265 18.8382C20.3526 18.8483 20.2837 18.8813 20.2296 18.9327L18.8535 20.28C18.7993 20.3322 18.7636 20.4006 18.7518 20.4748C18.74 20.5491 18.7527 20.6252 18.788 20.6916L19.7241 22.3944C19.4731 22.8169 19.269 23.2655 19.1156 23.7324L17.2434 24.3031C17.1726 24.3235 17.1104 24.3666 17.0665 24.4258C17.0225 24.4849 16.9992 24.5569 17 24.6305V26.5485C16.9992 26.6222 17.0225 26.6941 17.0665 26.7533C17.1104 26.8124 17.1726 26.8555 17.2434 26.876L19.1156 27.4467C19.256 27.9049 19.4443 28.3471 19.6773 28.7659L18.7412 30.5436C18.7059 30.61 18.6932 30.6861 18.705 30.7604C18.7168 30.8346 18.7525 30.9031 18.8067 30.9552L20.2015 32.3119C20.2556 32.3632 20.3245 32.3963 20.3984 32.4063C20.4723 32.4164 20.5475 32.403 20.6134 32.368L22.3639 31.4324C22.7802 31.6569 23.2197 31.8357 23.6745 31.9657L24.2362 33.8837C24.2597 33.9544 24.3049 34.016 24.3654 34.0596C24.4259 34.1033 24.4986 34.1268 24.5732 34.127H26.4922C26.5652 34.1249 26.6358 34.1005 26.6944 34.057C26.753 34.0134 26.7968 33.953 26.8198 33.8837L27.3815 31.9657C27.8306 31.8366 28.2639 31.6577 28.6733 31.4324L30.4426 32.368C30.5084 32.403 30.5837 32.4164 30.6576 32.4063C30.7315 32.3963 30.8004 32.3632 30.8545 32.3119L32.2212 30.9552C32.2725 30.9012 32.3056 30.8323 32.3157 30.7585C32.3258 30.6846 32.3124 30.6094 32.2773 30.5436L31.3412 28.7846C31.5646 28.3745 31.7435 27.9417 31.8748 27.4935L33.747 26.9228C33.8174 26.9002 33.8792 26.8568 33.9243 26.7983C33.9694 26.7398 33.9958 26.669 33.9998 26.5953V24.6586C34.0021 24.5908 33.9859 24.5236 33.9529 24.4643C33.9199 24.4049 33.8714 24.3557 33.8126 24.3218ZM25.5467 28.7379C24.9279 28.7397 24.3225 28.558 23.8071 28.2158C23.2917 27.8735 22.8895 27.3861 22.6514 26.8153C22.4134 26.2444 22.3501 25.6158 22.4697 25.009C22.5893 24.4022 22.8863 23.8446 23.3232 23.4066C23.7601 22.9686 24.3172 22.6701 24.9239 22.5487C25.5307 22.4274 26.1598 22.4887 26.7317 22.725C27.3035 22.9612 27.7924 23.3617 28.1364 23.8758C28.4803 24.3899 28.664 24.9945 28.664 25.6129C28.664 26.4401 28.3358 27.2335 27.7515 27.8193C27.1672 28.4051 26.3743 28.7354 25.5467 28.7379Z" fill="#1F712F"/>
</g>
<defs>
<clipPath id="clip0_2691_5993">
<rect width="38" height="38" fill="white"/>
</clipPath>
</defs>
</svg>
