<svg width="38" height="38" viewBox="0 0 38 38" fill="none" xmlns="http://www.w3.org/2000/svg">
<path d="M33.25 17.5915V7.91732C33.25 7.07747 32.9164 6.27201 32.3225 5.67815C31.7286 5.08428 30.9232 4.75065 30.0833 4.75065H23.465C22.8 2.91398 21.0583 1.58398 19 1.58398C16.9417 1.58398 15.2 2.91398 14.535 4.75065H7.91667C6.175 4.75065 4.75 6.17565 4.75 7.91732V30.084C4.75 30.9238 5.08363 31.7293 5.6775 32.3232C6.27136 32.917 7.07681 33.2506 7.91667 33.2506H17.5908C19.5858 35.214 22.3092 36.4173 25.3333 36.4173C31.4608 36.4173 36.4167 31.4615 36.4167 25.334C36.4167 22.3098 35.2133 19.5865 33.25 17.5915ZM19 4.75065C19.8708 4.75065 20.5833 5.46315 20.5833 6.33398C20.5833 7.20482 19.8708 7.91732 19 7.91732C18.1292 7.91732 17.4167 7.20482 17.4167 6.33398C17.4167 5.46315 18.1292 4.75065 19 4.75065ZM9.5 11.084H28.5V14.2507H9.5V11.084ZM14.3767 26.9173H9.5V23.7507H14.3767C14.2975 24.2731 14.25 24.7957 14.25 25.334C14.25 25.8723 14.2975 26.3948 14.3767 26.9173ZM9.5 20.584V17.4173H17.5908C16.625 18.3198 15.8967 19.3965 15.3267 20.584H9.5ZM25.3333 33.2506C20.9633 33.2506 17.4167 29.704 17.4167 25.334C17.4167 20.964 20.9633 17.4173 25.3333 17.4173C29.7033 17.4173 33.25 20.964 33.25 25.334C33.25 29.704 29.7033 33.2506 25.3333 33.2506ZM26.125 25.7298L30.6533 28.4057L29.4658 30.3373L23.75 26.9173V19.0007H26.125V25.7298Z" fill="#1F712F"/>
</svg>
