<svg width="38" height="38" viewBox="0 0 38 38" fill="none" xmlns="http://www.w3.org/2000/svg">
<path fill-rule="evenodd" clip-rule="evenodd" d="M32.3333 9.22222C31.6261 9.22222 30.9478 9.50317 30.4477 10.0033C29.9476 10.5034 29.6667 11.1816 29.6667 11.8889V13.6667H35V11.8889C35 11.1816 34.719 10.5034 34.219 10.0033C33.7189 9.50317 33.0406 9.22222 32.3333 9.22222ZM35 15.4444H29.6667V30.1111L32.3333 34.1111L35 30.1111V15.4444ZM3 5.66667V32.3333C3 33.0406 3.28095 33.7189 3.78105 34.219C4.28115 34.719 4.95942 35 5.66667 35H25.2222C25.9295 35 26.6077 34.719 27.1078 34.219C27.6079 33.7189 27.8889 33.0406 27.8889 32.3333V5.66667C27.8889 4.95942 27.6079 4.28115 27.1078 3.78105C26.6077 3.28095 25.9295 3 25.2222 3H5.66667C4.95942 3 4.28115 3.28095 3.78105 3.78105C3.28095 4.28115 3 4.95942 3 5.66667ZM15.4444 11C15.4444 10.7643 15.5381 10.5382 15.7048 10.3715C15.8715 10.2048 16.0976 10.1111 16.3333 10.1111H23.4444C23.6802 10.1111 23.9063 10.2048 24.073 10.3715C24.2397 10.5382 24.3333 10.7643 24.3333 11C24.3333 11.2357 24.2397 11.4618 24.073 11.6285C23.9063 11.7952 23.6802 11.8889 23.4444 11.8889H16.3333C16.0976 11.8889 15.8715 11.7952 15.7048 11.6285C15.5381 11.4618 15.4444 11.2357 15.4444 11ZM16.3333 13.6667C16.0976 13.6667 15.8715 13.7603 15.7048 13.927C15.5381 14.0937 15.4444 14.3198 15.4444 14.5556C15.4444 14.7913 15.5381 15.0174 15.7048 15.1841C15.8715 15.3508 16.0976 15.4444 16.3333 15.4444H23.4444C23.6802 15.4444 23.9063 15.3508 24.073 15.1841C24.2397 15.0174 24.3333 14.7913 24.3333 14.5556C24.3333 14.3198 24.2397 14.0937 24.073 13.927C23.9063 13.7603 23.6802 13.6667 23.4444 13.6667H16.3333ZM15.4444 22.5556C15.4444 22.3198 15.5381 22.0937 15.7048 21.927C15.8715 21.7603 16.0976 21.6667 16.3333 21.6667H23.4444C23.6802 21.6667 23.9063 21.7603 24.073 21.927C24.2397 22.0937 24.3333 22.3198 24.3333 22.5556C24.3333 22.7913 24.2397 23.0174 24.073 23.1841C23.9063 23.3508 23.6802 23.4444 23.4444 23.4444H16.3333C16.0976 23.4444 15.8715 23.3508 15.7048 23.1841C15.5381 23.0174 15.4444 22.7913 15.4444 22.5556ZM16.3333 25.2222C16.0976 25.2222 15.8715 25.3159 15.7048 25.4826C15.5381 25.6493 15.4444 25.8754 15.4444 26.1111C15.4444 26.3469 15.5381 26.573 15.7048 26.7397C15.8715 26.9064 16.0976 27 16.3333 27H23.4444C23.6802 27 23.9063 26.9064 24.073 26.7397C24.2397 26.573 24.3333 26.3469 24.3333 26.1111C24.3333 25.8754 24.2397 25.6493 24.073 25.4826C23.9063 25.3159 23.6802 25.2222 23.4444 25.2222H16.3333ZM8.33333 22.5556V25.2222H11V22.5556H8.33333ZM7.44444 20.7778H11.8889C12.1246 20.7778 12.3507 20.8714 12.5174 21.0381C12.6841 21.2048 12.7778 21.4309 12.7778 21.6667V26.1111C12.7778 26.3469 12.6841 26.573 12.5174 26.7397C12.3507 26.9064 12.1246 27 11.8889 27H7.44444C7.2087 27 6.9826 26.9064 6.81591 26.7397C6.64921 26.573 6.55556 26.3469 6.55556 26.1111V21.6667C6.55556 21.4309 6.64921 21.2048 6.81591 21.0381C6.9826 20.8714 7.2087 20.7778 7.44444 20.7778ZM13.4062 11.6284C13.5681 11.4608 13.6577 11.2363 13.6557 11.0032C13.6537 10.7701 13.5602 10.5472 13.3954 10.3824C13.2306 10.2176 13.0076 10.1241 12.7746 10.1221C12.5415 10.12 12.317 10.2096 12.1493 10.3716L9.22222 13.2987L8.07289 12.1493C7.90524 11.9874 7.68071 11.8978 7.44764 11.8998C7.21458 11.9019 6.99164 11.9954 6.82683 12.1602C6.66202 12.325 6.56854 12.5479 6.56651 12.781C6.56449 13.014 6.65408 13.2386 6.816 13.4062L9.22222 15.8124L13.4062 11.6284Z" fill="#1F712F"/>
</svg>
