<svg width="38" height="38" viewBox="0 0 38 38" fill="none" xmlns="http://www.w3.org/2000/svg">
<path fill-rule="evenodd" clip-rule="evenodd" d="M19 1.58398C18.5461 1.58392 18.0975 1.68144 17.6846 1.86991C17.2717 2.05839 16.9042 2.33343 16.6068 2.67639C16.3095 3.01934 16.0894 3.42221 15.9614 3.85767C15.8334 4.29314 15.8005 4.75103 15.865 5.20032C13.5698 5.87718 11.5552 7.27872 10.1226 9.19542C8.68989 11.1121 7.91603 13.441 7.91667 15.834V28.5006H6.33333C5.91341 28.5006 5.51068 28.6675 5.21375 28.9644C4.91681 29.2613 4.75 29.6641 4.75 30.084C4.75 30.5039 4.91681 30.9066 5.21375 31.2036C5.51068 31.5005 5.91341 31.6673 6.33333 31.6673H31.6667C32.0866 31.6673 32.4893 31.5005 32.7863 31.2036C33.0832 30.9066 33.25 30.5039 33.25 30.084C33.25 29.6641 33.0832 29.2613 32.7863 28.9644C32.4893 28.6675 32.0866 28.5006 31.6667 28.5006H30.0833V15.834C30.084 13.441 29.3101 11.1121 27.8774 9.19542C26.4448 7.27872 24.4302 5.87718 22.135 5.20032C22.1561 5.05254 22.1667 4.90265 22.1667 4.75065C22.1667 3.9108 21.833 3.10534 21.2392 2.51148C20.6453 1.91761 19.8399 1.58398 19 1.58398ZM22.1667 34.834C22.1667 35.2539 21.9999 35.6566 21.7029 35.9536C21.406 36.2505 21.0033 36.4173 20.5833 36.4173H17.4167C16.9967 36.4173 16.594 36.2505 16.2971 35.9536C16.0001 35.6566 15.8333 35.2539 15.8333 34.834C15.8333 34.4141 16.0001 34.0113 16.2971 33.7144C16.594 33.4175 16.9967 33.2506 17.4167 33.2506H20.5833C21.0033 33.2506 21.406 33.4175 21.7029 33.7144C21.9999 34.0113 22.1667 34.4141 22.1667 34.834Z" fill="#1F712F"/>
</svg>
