<svg width="38" height="38" viewBox="0 0 38 38" fill="none" xmlns="http://www.w3.org/2000/svg">
<path d="M33.25 9.97565C33.25 8.72482 32.5058 7.58482 31.3658 7.07815L20.2825 2.15398C19.4592 1.78982 18.525 1.78982 17.7175 2.15398L6.63417 7.07815C5.49417 7.58482 4.75 8.72482 4.75 9.97565V17.4173C4.75 26.2048 10.83 34.4223 19 36.4173C22.6417 35.5306 25.8558 33.409 28.31 30.5431L23.37 25.6031C21.8479 26.6092 20.0248 27.0579 18.2096 26.8732C16.3945 26.6885 14.6991 25.8818 13.4108 24.5898C11.9279 23.1046 11.0949 21.0916 11.0949 18.9927C11.0949 16.8939 11.9279 14.8809 13.4108 13.3956C14.896 11.9127 16.9091 11.0797 19.0079 11.0797C21.1067 11.0797 23.1198 11.9127 24.605 13.3956C25.8938 14.6858 26.6983 16.3808 26.8829 18.195C27.0675 20.0092 26.6208 21.8316 25.6183 23.3548L30.21 27.9465C32.1258 24.8431 33.25 21.1856 33.25 17.4173V9.97565Z" fill="#1F712F"/>
<path d="M19 23.75C21.6234 23.75 23.75 21.6234 23.75 19C23.75 16.3766 21.6234 14.25 19 14.25C16.3766 14.25 14.25 16.3766 14.25 19C14.25 21.6234 16.3766 23.75 19 23.75Z" fill="#1F712F"/>
</svg>
