<svg width="36" height="36" viewBox="0 0 36 36" fill="none" xmlns="http://www.w3.org/2000/svg">
<path fill-rule="evenodd" clip-rule="evenodd" d="M35.1167 30.8831L27.5122 23.2635C29.1411 20.8157 30.008 17.9399 30.002 14.9991C30.002 6.71558 23.2865 0 15.003 0C6.71949 0 0.00390625 6.71558 0.00390625 14.9991C0.00390625 23.2825 6.71949 29.9981 15.003 29.9981C17.9438 30.0041 20.8196 29.1372 23.2675 27.5083L30.887 35.1278C32.0569 36.2907 33.9468 36.2907 35.1167 35.1278C35.6797 34.5648 35.9967 33.8019 35.9967 33.0049C35.9967 32.209 35.6797 31.446 35.1167 30.8831ZM15.003 2.62484C21.8375 2.62484 27.3772 8.16449 27.3772 14.9991C27.3772 21.8336 21.8375 27.3733 15.003 27.3733C8.1684 27.3733 2.62874 21.8336 2.62874 14.9991C2.63674 8.16849 8.1724 2.63284 15.003 2.62484ZM15.003 25.1234C20.5946 25.1234 25.1273 20.5907 25.1273 14.9991C25.1273 9.40741 20.5946 4.8747 15.003 4.8747C9.41132 4.8747 4.8786 9.40741 4.8786 14.9991C4.8786 20.5907 9.41132 25.1234 15.003 25.1234ZM10.5033 13.4992H13.5031V10.4993C13.5031 9.6714 14.175 8.99944 15.003 8.99944C15.8309 8.99944 16.5029 9.6714 16.5029 10.4993V13.4992H19.5027C20.3306 13.4992 21.0026 14.1711 21.0026 14.9991C21.0026 15.827 20.3306 16.499 19.5027 16.499H16.5029V19.4988C16.5029 20.3267 15.8309 20.9987 15.003 20.9987C14.175 20.9987 13.5031 20.3267 13.5031 19.4988V16.499H10.5033C9.6753 16.499 9.00334 15.827 9.00334 14.9991C9.00334 14.1711 9.6753 13.4992 10.5033 13.4992Z" fill="#1F712F"/>
</svg>
