<svg width="36" height="36" viewBox="0 0 36 36" fill="none" xmlns="http://www.w3.org/2000/svg">
<path fill-rule="evenodd" clip-rule="evenodd" d="M17.52 36C17.521 30.897 21.657 26.761 26.76 26.761C31.863 26.761 35.999 30.897 36 36H17.52ZM18.57 20.325C16.789 20.325 15.345 18.881 15.345 17.1V12.78C15.336 11.453 16.148 10.26 17.385 9.78L19.665 8.865V0H9.405V8.28C9.397 8.898 8.898 9.397 8.28 9.405H0V25.35H19.665V20.13C19.315 20.263 18.944 20.329 18.57 20.325ZM9.315 20.22H4.245C3.624 20.22 3.12 19.716 3.12 19.095C3.12 18.474 3.624 17.97 4.245 17.97H9.315C9.936 17.97 10.44 18.474 10.44 19.095C10.44 19.716 9.936 20.22 9.315 20.22ZM10.5 15.555H4.245C3.624 15.555 3.12 15.051 3.12 14.43C3.12 13.809 3.624 13.305 4.245 13.305H10.5C11.121 13.305 11.625 13.809 11.625 14.43C11.625 15.051 11.121 15.555 10.5 15.555ZM7.155 0.615L0.615 7.155H7.155V0.615ZM27.84 18.75C27.14 18.99 26.38 18.99 25.68 18.75L21.78 17.37C21.749 17.84 21.61 18.297 21.375 18.705C21.374 21.68 23.785 24.092 26.76 24.092C29.735 24.092 32.146 21.68 32.145 18.705C32.157 18.198 32.091 17.692 31.95 17.205L27.84 18.75ZM35.31 11.91L27.12 8.67C26.892 8.564 26.628 8.564 26.4 8.67L18.21 11.91C17.843 12.06 17.602 12.414 17.595 12.81V17.1C17.595 17.638 18.032 18.075 18.57 18.075C19.108 18.075 19.545 17.638 19.545 17.1V14.895C19.542 14.733 19.621 14.581 19.755 14.49C19.896 14.415 20.064 14.415 20.205 14.49L26.43 16.695C26.644 16.77 26.876 16.77 27.09 16.695L35.265 13.8C35.649 13.664 35.911 13.307 35.925 12.9C35.952 12.473 35.705 12.075 35.31 11.91Z" fill="#1F712F"/>
</svg>
