<svg width="36" height="36" viewBox="0 0 36 36" fill="none" xmlns="http://www.w3.org/2000/svg">
<path fill-rule="evenodd" clip-rule="evenodd" d="M26.2501 31.9819C26.2501 29.2229 24.0141 26.9869 21.2551 26.9869H19.1251C18.9181 26.9869 18.7501 26.819 18.7501 26.6119V20.2369C18.7501 18.9939 17.7431 17.9869 16.5001 17.9869C15.2571 17.9869 14.2501 18.9939 14.2501 20.2369V29.9869C14.2501 30.132 14.1692 30.265 14.0402 30.332C13.9182 30.415 13.7571 30.415 13.6351 30.332L12.3152 29.2369C11.9882 28.538 11.2661 28.11 10.4962 28.16C9.72615 28.209 9.06515 28.7259 8.83015 29.4609C8.59615 30.1969 8.83615 31.0009 9.43515 31.4869L12.9302 35.687C13.0641 35.8689 13.2741 35.9799 13.5001 35.9869H25.5001C25.9141 35.9869 26.2501 35.651 26.2501 35.2369V31.9819ZM8.25015 7.48695H9.75015C10.3712 7.48695 10.8751 6.98295 10.8751 6.36195C10.8751 5.74095 10.3712 5.23695 9.75015 5.23695H8.25015C7.62915 5.23695 7.12515 5.74095 7.12515 6.36195C7.12515 6.98295 7.62915 7.48695 8.25015 7.48695ZM10.6951 2.88195C10.8801 3.00895 11.1002 3.07695 11.3252 3.07695C11.8272 3.09595 12.2802 2.78095 12.4372 2.30395C12.5941 1.82695 12.4151 1.30395 12.0001 1.02195L10.7252 0.18195C10.2232 -0.12605 9.57015 0.00495014 9.22515 0.48195C8.91015 0.98195 9.04115 1.64195 9.52515 1.98195L10.6951 2.88195ZM24.6751 3.07695C24.9001 3.07695 25.1201 3.00895 25.3051 2.88195L26.5351 2.04195C27.0191 1.70195 27.1501 1.04195 26.8351 0.541951C26.4901 0.0649506 25.8371 -0.0660496 25.3351 0.24195L24.0001 1.02195C23.5231 1.36695 23.3921 2.01995 23.7001 2.52195C23.9011 2.86995 24.2741 3.08195 24.6751 3.07695ZM28.8751 6.36195C28.8671 5.74395 28.3681 5.24495 27.7501 5.23695H26.2501C25.6291 5.23695 25.1251 5.74095 25.1251 6.36195C25.1251 6.98295 25.6291 7.48695 26.2501 7.48695H27.7501C28.3711 7.48695 28.8751 6.98295 28.8751 6.36195ZM18.0001 7.87695C19.9721 7.87695 21.5701 6.27895 21.5701 4.30695C21.5701 2.33495 19.9721 0.73695 18.0001 0.73695C16.0281 0.73695 14.4302 2.33495 14.4302 4.30695C14.4262 5.25495 14.8012 6.16495 15.4712 6.83595C16.1422 7.50595 17.0521 7.88095 18.0001 7.87695ZM23.6251 15.7369C23.8481 15.735 24.0591 15.6369 24.2031 15.4669C24.3471 15.2969 24.4101 15.0719 24.3751 14.8519C23.9371 11.667 21.2151 9.29395 18.0001 9.29395C14.7851 9.29395 12.0631 11.667 11.6251 14.8519C11.5901 15.0719 11.6532 15.2969 11.7972 15.4669C11.9412 15.6369 12.1522 15.735 12.3751 15.7369H23.6251ZM4.50015 16.982C5.51515 16.982 6.42915 16.3699 6.81615 15.4319C7.20315 14.4939 6.98515 13.4159 6.26615 12.6999C5.54615 11.9849 4.46615 11.775 3.53115 12.167C2.59515 12.559 1.98915 13.4769 1.99515 14.4919C1.99515 15.1549 2.25915 15.7909 2.73015 16.2579C3.20015 16.7249 3.83715 16.986 4.50015 16.982ZM4.50015 17.9869C2.36115 17.9869 0.51815 19.492 0.0901498 21.587C0.0501498 21.809 0.11115 22.0379 0.25515 22.2119C0.40015 22.3849 0.61415 22.486 0.84015 22.4869H8.16015C8.38615 22.486 8.60015 22.3849 8.74515 22.2119C8.88915 22.0379 8.95015 21.809 8.91015 21.587C8.48215 19.492 6.63915 17.9869 4.50015 17.9869ZM31.5001 16.982C32.5151 16.982 33.4291 16.3699 33.8162 15.4319C34.2032 14.4939 33.9851 13.4159 33.2661 12.6999C32.5461 11.9849 31.4661 11.775 30.5311 12.167C29.5951 12.559 28.9891 13.4769 28.9951 14.4919C28.9951 15.1549 29.2591 15.7909 29.7301 16.2579C30.2001 16.7249 30.8371 16.986 31.5001 16.982ZM31.5001 17.9869C29.3611 17.9869 27.5181 19.492 27.0901 21.587C27.0501 21.809 27.1112 22.0379 27.2551 22.2119C27.4002 22.3849 27.6141 22.486 27.8401 22.4869H35.1601C35.3862 22.486 35.6001 22.3849 35.7451 22.2119C35.8891 22.0379 35.9501 21.809 35.9101 21.587C35.4821 19.492 33.6391 17.9869 31.5001 17.9869Z" fill="#1F712F"/>
</svg>
