<svg width="36" height="36" viewBox="0 0 36 36" fill="none" xmlns="http://www.w3.org/2000/svg">
<path fill-rule="evenodd" clip-rule="evenodd" d="M17.27 26.773L16.7417 26.1157L15.0865 32.2317C14.8932 32.9228 14.3336 33.4503 13.6332 33.6029C12.932 33.7555 12.2034 33.5082 11.7408 32.9596C11.3761 32.5135 11.2259 31.9297 11.33 31.363L12.9617 22.7465V19.9996C12.3865 20.7337 11.985 21.5883 11.7878 22.5C11.7878 23.4728 10.9997 24.2609 10.0269 24.2609C9.05414 24.2609 8.26605 23.4728 8.26605 22.5C8.33101 20.3009 9.28344 18.2215 10.9074 16.7361C12.3294 15.4017 14.2452 14.7248 16.19 14.8696C17.7114 14.9682 19.1396 15.6342 20.193 16.7361C21.0132 17.7402 22.378 18.1174 23.5974 17.6752C24.34 17.3442 25.2127 17.597 25.6634 18.2739C25.9295 18.731 26.0133 19.2717 25.8982 19.7883C25.762 20.3408 25.3942 20.8064 24.8887 21.0678C23.372 21.8888 21.5735 22.0132 19.9582 21.4083V22.9109C21.3059 24.4878 21.9687 26.5367 21.8013 28.6043C21.8005 28.6881 21.7668 28.7687 21.7074 28.8274C21.6408 28.8814 21.5579 28.9103 21.4726 28.9096C20.582 28.8102 19.7007 29.1623 19.1247 29.8487C19.0465 29.9309 18.9283 29.9622 18.8195 29.9309C18.7092 29.9003 18.627 29.8088 18.6082 29.6961C18.4345 28.6184 17.972 27.6089 17.27 26.773ZM21.766 28.9565L0.146484 0L21.766 28.9565ZM16.4834 13.6957C14.8627 13.6957 13.5487 12.3817 13.5487 10.7609C13.5487 9.14009 14.8627 7.82609 16.4834 7.82609C18.1042 7.82609 19.4182 9.14009 19.4182 10.7609C19.4182 12.3817 18.1042 13.6957 16.4834 13.6957ZM35.853 21.3261C35.853 21.0021 35.59 20.7391 35.266 20.7391H31.1574C30.5094 20.7391 29.9834 21.265 29.9834 21.913V24.8478C29.9834 25.1718 29.7205 25.4348 29.3965 25.4348H26.4617C25.8137 25.4348 25.2878 25.9607 25.2878 26.6087V29.5435C25.2878 29.8675 25.0248 30.1304 24.7008 30.1304H21.766C21.118 30.1304 20.5921 30.6563 20.5921 31.3043V35.413C20.5921 35.737 20.8551 36 21.1791 36H35.266C35.59 36 35.853 35.737 35.853 35.413V21.3261Z" fill="#1F712F"/>
</svg>
