<svg width="36" height="30" viewBox="0 0 36 30" fill="none" xmlns="http://www.w3.org/2000/svg">
<path fill-rule="evenodd" clip-rule="evenodd" d="M14.25 15C14.25 12.929 15.929 11.25 18 11.25C20.071 11.25 21.75 12.929 21.75 15C21.75 17.071 20.071 18.75 18 18.75C15.929 18.75 14.25 17.071 14.25 15ZM31.875 0H4.125C1.847 0 0 1.847 0 4.125V25.875C0 28.153 1.847 30 4.125 30H31.875C34.153 30 36 28.153 36 25.875V4.125C36 1.847 34.153 0 31.875 0ZM3.75 6.375C3.758 4.929 4.929 3.758 6.375 3.75H9.375C9.996 3.75 10.5 4.254 10.5 4.875C10.5 5.496 9.996 6 9.375 6H6.375C6.168 6 6 6.168 6 6.375V9.375C6 9.996 5.496 10.5 4.875 10.5C4.254 10.5 3.75 9.996 3.75 9.375V6.375ZM3.75 20.625C3.75 20.004 4.254 19.5 4.875 19.5C5.496 19.5 6 20.004 6 20.625V23.625C6 23.832 6.168 24 6.375 24H9.375C9.996 24 10.5 24.504 10.5 25.125C10.5 25.746 9.996 26.25 9.375 26.25H6.375C4.929 26.242 3.758 25.071 3.75 23.625V20.625ZM7.725 16.125C7.184 15.495 7.184 14.565 7.725 13.935C11.565 9.195 15.435 8.22 18 8.22C20.565 8.22 24.435 9.195 28.275 13.905C28.816 14.535 28.816 15.465 28.275 16.095C24.435 20.805 20.565 21.78 18 21.78C15.435 21.78 11.565 20.805 7.725 16.095M29.625 6H26.625C26.004 6 25.5 5.496 25.5 4.875C25.5 4.254 26.004 3.75 26.625 3.75H29.625C31.071 3.758 32.242 4.929 32.25 6.375V9.375C32.25 9.996 31.746 10.5 31.125 10.5C30.504 10.5 30 9.996 30 9.375V6.375C30 6.168 29.832 6 29.625 6ZM26.625 24H29.625C29.832 24 30 23.832 30 23.625V20.625C30 20.004 30.504 19.5 31.125 19.5C31.746 19.5 32.25 20.004 32.25 20.625V23.625C32.242 25.071 31.071 26.242 29.625 26.25H26.625C26.004 26.25 25.5 25.746 25.5 25.125C25.5 24.504 26.004 24 26.625 24Z" fill="#1F712F"/>
</svg>
