<svg width="61" height="62" viewBox="0 0 61 62" fill="none" xmlns="http://www.w3.org/2000/svg">
<path fill-rule="evenodd" clip-rule="evenodd" d="M35.0208 39.3971C35.2106 39.2156 35.3371 38.9791 35.3825 38.7206C35.4278 38.4621 35.3893 38.1954 35.2738 37.9603C33.7338 34.762 31.3248 32.0588 28.3218 30.1599C25.3202 28.261 21.8442 27.2435 18.2898 27.2215C14.2088 27.2298 10.2378 28.547 6.96258 30.9794C3.68596 33.4118 1.27971 36.8314 0.0958313 40.7336C0.0408313 40.922 0.0298322 41.12 0.0655822 41.3125C0.0999572 41.505 0.179707 41.6865 0.297957 41.8433C0.412082 42.0028 0.563332 42.132 0.739332 42.22C0.915332 42.308 1.11058 42.3506 1.30721 42.3465H31.5888C31.7552 42.3492 31.9188 42.3162 32.0715 42.2516C32.2227 42.1856 32.3602 42.0894 32.473 41.9684L35.0208 39.3971ZM5.77321 12.7249C5.77321 14.2979 6.08396 15.8544 6.68621 17.3078C7.28846 18.7598 8.17121 20.0811 9.28496 21.1921C10.3973 22.3045 11.7187 23.1859 13.1735 23.7881C14.6268 24.3904 16.1861 24.6997 17.7605 24.6997C19.3348 24.6997 20.8927 24.3904 22.3475 23.7881C23.8022 23.1859 25.1236 22.3045 26.236 21.1921C27.3497 20.0811 28.2325 18.7598 28.8347 17.3078C29.437 15.8544 29.7477 14.2979 29.7477 12.7249C29.7477 11.1519 29.437 9.59537 28.8347 8.142C28.2325 6.69 27.3497 5.37 26.236 4.25762C25.1236 3.14525 23.8022 2.26388 22.3475 1.66163C20.8927 1.05938 19.3348 0.75 17.7605 0.75C16.1861 0.75 14.6268 1.05938 13.1735 1.66163C11.7187 2.26388 10.3973 3.14525 9.28496 4.25762C8.17121 5.37 7.28846 6.69 6.68621 8.142C6.08396 9.59537 5.77321 11.1519 5.77321 12.7249ZM49.38 30.4225L32.902 46.8098C32.781 46.9225 32.6847 47.0586 32.6187 47.2113C32.5527 47.3625 32.5197 47.5261 32.5197 47.6911C32.5197 47.8575 32.5527 48.0211 32.6187 48.1724C32.6847 48.3236 32.781 48.4611 32.902 48.5739L40.4727 56.1364C40.5855 56.2574 40.723 56.3536 40.8742 56.4196C41.0268 56.4856 41.1905 56.5186 41.3555 56.5186C41.5205 56.5186 41.6855 56.4856 41.8367 56.4196C41.9893 56.3536 42.1255 56.2574 42.2382 56.1364L58.6667 39.7505C59.8822 38.5047 60.5573 36.8314 60.545 35.0934C60.5326 33.354 59.8341 31.6903 58.6021 30.4624C57.3701 29.2345 55.7022 28.5415 53.9615 28.5346C52.2207 28.5264 50.5473 29.2056 49.3043 30.4225M31.362 52.3304C31.1997 52.1709 30.9976 52.0595 30.7762 52.0059C30.5548 51.9523 30.3238 51.9605 30.1066 52.0279C29.8893 52.0939 29.6955 52.219 29.5428 52.3881C29.3902 52.5559 29.2871 52.7635 29.2431 52.9863L27.8543 59.7416C27.8131 59.9451 27.8241 60.1569 27.886 60.3549C27.9478 60.5529 28.0578 60.733 28.2077 60.876C28.3548 61.0218 28.535 61.1304 28.733 61.1922C28.9296 61.2528 29.14 61.2665 29.3435 61.2294L36.1071 59.8681C36.3312 59.8296 36.5402 59.7293 36.7093 59.578C36.8785 59.4254 37.0022 59.2301 37.0655 59.0115C37.137 58.7929 37.1466 58.5605 37.093 58.3377C37.0393 58.115 36.9252 57.9115 36.763 57.7506L31.362 52.3304Z" fill="#0070E0"/>
</svg>
