<svg width="67" height="67" viewBox="0 0 67 67" fill="none" xmlns="http://www.w3.org/2000/svg">
<g clip-path="url(#clip0_3203_54)">
<rect width="66" height="66" transform="translate(0.294922 0.5)" fill="#1A1A50"/>
<path fill-rule="evenodd" clip-rule="evenodd" d="M48.4199 30.7531C38.5474 30.7531 30.5449 38.7556 30.5449 48.6281C30.5449 58.5006 38.5474 66.5031 48.4199 66.5031C58.2924 66.5031 66.2949 58.5006 66.2949 48.6281C66.2798 38.7625 58.2855 30.7682 48.4199 30.7531ZM56.6699 43.3481L48.6949 53.9906C47.9772 54.9462 46.8799 55.5444 45.6878 55.6282C44.4957 55.7121 43.3255 55.2762 42.4799 54.4306L38.3549 50.3056C37.8035 49.7914 37.5767 49.0172 37.7623 48.2857C37.9493 47.5556 38.5199 46.985 39.25 46.798C39.9815 46.6124 40.7557 46.8392 41.2699 47.3906L44.8449 50.9656C44.9865 51.0976 45.1749 51.1677 45.3674 51.1581C45.564 51.1416 45.7442 51.0412 45.8624 50.8831L53.3699 40.8731C54.0533 39.9615 55.3458 39.7772 56.2574 40.4606C57.169 41.144 57.3533 42.4365 56.6699 43.3481ZM14.0449 28.6906H31.9199C33.0584 28.6906 33.9824 27.7666 33.9824 26.6281C33.9824 25.4896 33.0584 24.5656 31.9199 24.5656H14.0449C12.9064 24.5656 11.9824 25.4896 11.9824 26.6281C11.9824 27.7666 12.9064 28.6906 14.0449 28.6906ZM14.0449 38.3156H22.2949C23.4334 38.3156 24.3574 37.3916 24.3574 36.2531C24.3574 35.1146 23.4334 34.1906 22.2949 34.1906H14.0449C12.9064 34.1906 11.9824 35.1146 11.9824 36.2531C11.9824 37.3916 12.9064 38.3156 14.0449 38.3156ZM14.0449 47.9406H21.6074C22.7459 47.9406 23.6699 47.0166 23.6699 45.8781C23.6699 44.7396 22.7459 43.8156 21.6074 43.8156H14.0449C12.9064 43.8156 11.9824 44.7396 11.9824 45.8781C11.9824 47.0166 12.9064 47.9406 14.0449 47.9406ZM14.7324 17.6906H38.1074C38.4869 17.6906 38.7949 17.3826 38.7949 17.0031V8.75312C38.7949 8.37362 38.4869 8.06562 38.1074 8.06562H33.2949V7.37812C33.2867 5.22624 32.276 3.20087 30.5614 1.90149C28.8468 0.602118 26.6234 0.175868 24.5499 0.750618C21.529 1.66224 19.4844 4.47137 19.5449 7.62562V8.06562H14.7324C14.3529 8.06562 14.0449 8.37362 14.0449 8.75312V17.0031C14.0449 17.3826 14.3529 17.6906 14.7324 17.6906ZM26.4199 4.62812C27.5584 4.62812 28.4824 5.55212 28.4824 6.69062C28.4824 7.82912 27.5584 8.75312 26.4199 8.75312C25.2814 8.75312 24.3574 7.82912 24.3574 6.69062C24.3725 5.55762 25.2869 4.64324 26.4199 4.62812ZM30.5449 61.3056C30.4239 61.1186 30.2177 61.0045 29.9949 61.0031H7.16992C6.41092 61.0031 5.79492 60.3871 5.79492 59.6281V14.9406C5.79492 14.1816 6.41092 13.5656 7.16992 13.5656H9.23242C9.61192 13.5656 9.91992 13.2576 9.91992 12.8781V8.75312C9.91992 8.37362 9.61192 8.06562 9.23242 8.06562H5.79492C2.75755 8.06562 0.294922 10.5282 0.294922 13.5656V61.0031C0.294922 64.0405 2.75755 66.5031 5.79492 66.5031H33.6249C33.9109 66.4962 34.168 66.3244 34.2849 66.0631C34.3908 65.7922 34.3138 65.4829 34.0924 65.2931C32.7587 64.1079 31.5679 62.7686 30.5449 61.3056ZM51.7474 26.8756C51.9427 26.9292 52.1503 26.877 52.2974 26.7381C52.4528 26.6089 52.5435 26.4177 52.5449 26.2156V13.5656C52.5449 10.5282 50.0823 8.06562 47.0449 8.06562H43.6074C43.2279 8.06562 42.9199 8.37362 42.9199 8.75312V12.8781C42.9199 13.2576 43.2279 13.5656 43.6074 13.5656H45.6699C46.4289 13.5656 47.0449 14.1816 47.0449 14.9406V25.9406C47.0477 26.129 47.1274 26.3077 47.2649 26.4356C47.3997 26.5607 47.5757 26.6295 47.7599 26.6281H48.4199C49.5337 26.6267 50.646 26.7092 51.7474 26.8756Z" fill="#0070E0"/>
</g>
<defs>
<clipPath id="clip0_3203_54">
<rect width="66" height="66" fill="white" transform="translate(0.294922 0.5)"/>
</clipPath>
</defs>
</svg>
