<svg width="67" height="66" viewBox="0 0 67 66" fill="none" xmlns="http://www.w3.org/2000/svg">
<path fill-rule="evenodd" clip-rule="evenodd" d="M53.5486 18.8764V14.8923C53.5555 13.2863 52.9208 11.7449 51.786 10.6101C50.6513 9.47531 49.1098 8.8406 47.5038 8.84747H40.1127L39.3708 4.31386C38.9903 1.83137 36.854 -0.00131195 34.3426 6.18669e-05H24.3412C21.8312 -0.0123025 19.6977 1.82999 19.3405 4.31386L18.5712 8.84747H11.18C7.84161 8.84747 5.13519 11.5539 5.13519 14.8923V18.8764H53.5486ZM23.3246 5.13815C23.3933 4.67655 23.7917 4.33584 24.2588 4.34134H34.2602C34.7328 4.33447 35.1408 4.67243 35.2219 5.13815L35.8538 8.98485H22.7476L23.3246 5.13815ZM59.1813 28.4656C54.105 25.2591 47.5973 25.4281 42.6941 28.8929C37.7909 32.359 35.4595 38.4368 36.788 44.2921C37.4296 47.3474 39.0274 50.1184 41.3491 52.2053L34.6449 62.8386C34.0376 63.8017 34.3275 65.0752 35.2906 65.6825C36.2536 66.2897 37.5271 65.9998 38.1344 65.0368L44.7837 54.5133C51.8822 58.0316 60.4947 55.3527 64.3428 48.4259C68.1908 41.5005 65.9185 32.7726 59.1813 28.603V28.4656ZM60.3353 46.71C58.0122 50.3657 53.7204 52.2671 49.4519 51.5348C45.1834 50.8026 41.7722 47.5782 40.7996 43.3579C39.8365 39.1265 41.5208 34.7303 45.0667 32.2272C48.6111 29.7227 53.3165 29.6045 56.9832 31.9277C61.9921 35.0833 63.4924 41.7024 60.3353 46.71ZM11.3723 38.4671L9.50394 35.7194C9.06706 35.0298 8.28398 34.6382 7.47068 34.7028L2.36007 35.1699C1.2198 35.2578 0.348794 36.225 0.381765 37.368L1.83802 53.5241C1.88747 54.0929 2.16086 54.6191 2.59911 54.9859C3.03736 55.3527 3.60475 55.5285 4.17351 55.475L23.5444 53.7439C24.1132 53.6945 24.6393 53.4211 25.0061 52.9829C25.3729 52.5446 25.5488 51.9772 25.4952 51.4084L24.4511 39.5661C24.4017 38.9973 24.1283 38.4712 23.69 38.1044C23.2518 37.7376 22.6844 37.5617 22.1156 37.6153L11.3723 38.4671ZM31.4026 22.9978V26.9819C31.4026 28.1194 30.4794 29.0426 29.3419 29.0426C28.2044 29.0426 27.2812 28.1194 27.2812 26.9819V22.9978H5.13519V30.6363L7.11349 30.4714H7.66302C9.84052 30.4714 11.8655 31.5925 13.0209 33.4389L13.5155 34.2357L21.7584 33.4938H22.3629C25.623 33.4842 28.3418 35.9859 28.6001 39.2364L28.8748 42.1489H32.5017C31.9549 33.4251 37.4681 25.468 45.8278 22.9154H31.4026" fill="#0070E0"/>
</svg>
