<svg width="67" height="66" viewBox="0 0 67 66" fill="none" xmlns="http://www.w3.org/2000/svg">
<path fill-rule="evenodd" clip-rule="evenodd" d="M4.54782 64.4579C4.54782 65.2129 5.16057 65.8256 5.91556 65.8256H56.5219C57.2769 65.8256 57.8896 65.2129 57.8896 64.4579C58.0141 60.1071 54.6317 56.458 50.285 56.2515C49.9581 56.2269 49.6941 55.9752 49.6558 55.6497C48.8981 52.5682 46.0053 50.5001 42.8445 50.7805H40.6561C40.3675 50.7805 40.1118 50.9693 40.027 51.2455C38.7002 54.6348 36.7211 57.73 34.2004 60.3547C33.418 61.1603 32.3416 61.6144 31.2187 61.6144C30.0958 61.6144 29.0194 61.1603 28.237 60.3547C25.6876 57.7368 23.6797 54.6416 22.3284 51.2455C22.2436 50.9693 21.9879 50.7805 21.6993 50.7805H19.5929C16.4403 50.5398 13.5735 52.6092 12.809 55.677C12.7611 55.9971 12.5026 56.2446 12.1798 56.2788C7.83313 56.4717 4.43977 60.1085 4.54782 64.4579ZM31.2187 42.5194C29.7662 42.4701 28.3588 43.0364 27.3439 44.0772C26.3291 45.1181 25.7997 46.5392 25.8845 47.9903C25.8845 51.355 29.3586 55.6223 30.699 57.1542C30.8289 57.306 31.019 57.3935 31.2187 57.3935C31.4184 57.3935 31.6085 57.306 31.7385 57.1542C33.0788 55.6497 36.5529 51.355 36.5529 47.9903C36.6377 46.5392 36.1084 45.1181 35.0935 44.0772C34.0787 43.0364 32.6726 42.4701 31.2187 42.5194ZM58.7103 32.9999H63.3606C64.8719 32.9999 66.096 31.7758 66.096 30.2644C66.1179 28.9268 65.1687 27.7697 63.853 27.529C63.578 27.4702 63.3647 27.2568 63.3059 26.9819C63.046 25.7085 61.9258 24.7935 60.6251 24.7935C59.1137 24.7935 57.8896 26.0176 57.8896 27.529C55.2868 27.8531 53.1586 29.7597 52.5486 32.312C51.94 34.8628 52.9781 37.5258 55.1541 38.9906L60.1874 42.3553C60.4117 42.5098 60.5458 42.7656 60.543 43.0391C60.5293 43.4864 60.1696 43.8461 59.7224 43.8598H55.1541C53.6428 43.8598 52.4187 45.0839 52.4187 46.5952C52.3968 47.9329 53.346 49.09 54.6618 49.3307C54.9367 49.3895 55.15 49.6029 55.2088 49.8778C55.2088 51.3892 56.433 52.6133 57.9443 52.6133C59.4557 52.6133 60.6798 51.3892 60.6798 49.8778C60.7126 49.6002 60.9246 49.3772 61.1995 49.3307C63.7312 48.8506 65.7103 46.8688 66.1877 44.3371C66.6664 41.8041 65.5435 39.2382 63.3606 37.8691L58.3273 34.5044C58.0715 34.369 57.9047 34.1092 57.8896 33.8206C57.9033 33.3733 58.263 33.0136 58.7103 32.9999ZM7.83039 19.3225H3.18008C1.66873 19.3225 0.444605 20.5467 0.444605 22.058C0.422721 23.3957 1.37193 24.5528 2.6877 24.7935C2.96261 24.8523 3.17598 25.0657 3.23479 25.3406C3.23479 26.8519 4.45892 28.0761 5.97027 28.0761C7.48162 28.0761 8.70575 26.8519 8.70575 25.3406C8.73857 25.0629 8.95057 24.84 9.22548 24.7935C11.805 24.349 13.8375 22.3466 14.3189 19.7725C14.8004 17.1998 13.631 14.597 11.3865 13.2498L6.27117 9.88514C6.04686 9.73059 5.91282 9.47482 5.91556 9.20127C5.92924 8.75402 6.28895 8.39431 6.7362 8.38063H11.3865C12.8979 8.38063 14.122 7.1565 14.122 5.64515C14.1439 4.3075 13.1947 3.1504 11.8789 2.90968C11.6395 2.84266 11.4535 2.65664 11.3865 2.41729C11.1458 1.10153 9.98868 0.152315 8.65104 0.174199C7.13968 0.174199 5.91556 1.39832 5.91556 2.90968C3.26488 3.19553 1.08197 5.11994 0.466488 7.71454C-0.147626 10.3091 0.939726 13.0091 3.18008 14.4534L8.29542 17.818C8.51973 17.9726 8.65377 18.2283 8.65104 18.5019C8.63736 18.9491 8.27764 19.3089 7.83039 19.3225ZM41.4768 30.0182L39.7808 29.1429C42.3795 19.3225 43.0633 9.50217 32.012 0.447746C31.5689 0.13727 30.978 0.13727 30.5349 0.447746C19.3741 9.50217 20.058 19.3225 22.602 29.1703L20.906 30.0182C18.8434 31.1822 17.5687 33.3678 17.5687 35.7354V39.866C17.5947 40.7824 18.0775 41.6235 18.8544 42.1091C19.2278 42.3252 19.6531 42.4387 20.0853 42.4373C20.5654 42.4305 21.0332 42.2773 21.4257 41.9996L26.6505 38.5529H35.8143L40.9844 41.9723C41.3892 42.2705 41.8775 42.4332 42.3795 42.4373C42.8021 42.4359 43.2179 42.3224 43.5831 42.1091C44.36 41.6235 44.8428 40.7824 44.8687 39.866V35.7354C44.8578 33.3555 43.5598 31.1685 41.4768 30.0182ZM31.2187 20.0338C29.7005 20.0447 28.326 19.1393 27.7365 17.7387C27.1483 16.3395 27.4615 14.7228 28.5311 13.6464C29.6007 12.5686 31.216 12.2431 32.6193 12.8217C34.0226 13.4002 34.939 14.768 34.939 16.2862C34.939 18.3446 33.2772 20.0187 31.2187 20.0338Z" fill="#0070E0"/>
</svg>
